<svg xmlns="http://www.w3.org/2000/svg" aria-hidden="true" style="width:0;height:0;position:absolute;overflow:hidden"><defs><symbol id="ua" viewBox="0 0 31 32"><path fill="gold" d="M30.559 5.496H.233v22.568h30.326V5.496z" style="fill:var(--color7,gold)"/><path fill="#0057b7" d="M.233 5.496h30.326V16.78H.233V5.496z" style="fill:var(--color8,#0057b7)"/></symbol><symbol id="icon-Amazon_logo" viewBox="0 0 106 32"><path d="M65.759 24.999c-6.154 4.536-15.073 6.956-22.753 6.956-10.768 0-20.462-3.983-27.796-10.607-.576-.521-.06-1.231.631-.825 7.915 4.605 17.701 7.375 27.809 7.375 6.818 0 14.317-1.411 21.213-4.338 1.042-.443 1.913.682.894 1.438z"/><path d="M68.318 22.072c-.784-1.005-5.2-.475-7.182-.24-.604.074-.696-.452-.152-.83 3.517-2.475 9.288-1.761 9.961-.931.673.834-.175 6.619-3.48 9.38-.507.424-.991.198-.765-.364.742-1.853 2.406-6.006 1.618-7.016zM61.274 3.528V1.122c0-.364.277-.608.608-.608h10.773c.346 0 .622.249.622.608v2.06c-.005.346-.295.797-.811 1.512l-5.582 7.97c2.074-.051 4.264.258 6.145 1.318.424.24.539.59.572.936v2.568c0 .35-.387.761-.793.549-3.314-1.738-7.716-1.927-11.381.018-.373.203-.765-.203-.765-.553v-2.438c0-.392.005-1.06.396-1.655l6.467-9.274h-5.628c-.346 0-.622-.244-.622-.604zM21.978 18.541h-3.277a.619.619 0 0 1-.585-.558V1.163c0-.337.281-.604.631-.604h3.056a.618.618 0 0 1 .595.562V3.32h.06c.797-2.125 2.296-3.116 4.315-3.116 2.051 0 3.333.991 4.255 3.116.793-2.125 2.595-3.116 4.527-3.116 1.374 0 2.876.567 3.794 1.839 1.037 1.415.825 3.471.825 5.273l-.005 10.616a.618.618 0 0 1-.632.608h-3.273a.623.623 0 0 1-.59-.608V9.017c0-.71.065-2.48-.092-3.153-.244-1.129-.977-1.447-1.927-1.447-.793 0-1.623.53-1.959 1.378s-.304 2.268-.304 3.222v8.915a.618.618 0 0 1-.631.608h-3.273a.62.62 0 0 1-.59-.608l-.005-8.915c0-1.876.309-4.637-2.019-4.637-2.355 0-2.263 2.692-2.263 4.637v8.915a.618.618 0 0 1-.631.608zM82.552.205c4.863 0 7.495 4.176 7.495 9.486 0 5.13-2.909 9.201-7.495 9.201-4.775 0-7.375-4.176-7.375-9.38 0-5.236 2.632-9.307 7.375-9.307zm.028 3.434c-2.415 0-2.568 3.291-2.568 5.342 0 2.056-.032 6.444 2.54 6.444 2.54 0 2.66-3.54 2.66-5.697 0-1.42-.06-3.116-.489-4.462-.369-1.171-1.102-1.627-2.143-1.627zM96.353 18.541h-3.264a.623.623 0 0 1-.59-.608l-.005-16.825a.62.62 0 0 1 .632-.549h3.038a.626.626 0 0 1 .585.47v2.572h.06c.917-2.3 2.203-3.397 4.467-3.397 1.47 0 2.904.53 3.826 1.982.857 1.346.857 3.609.857 5.236V18.01c-.037.295-.309.53-.632.53h-3.287c-.3-.023-.549-.244-.581-.53V8.874c0-1.839.212-4.531-2.051-4.531-.797 0-1.53.535-1.895 1.346-.461 1.028-.521 2.051-.521 3.185v9.058a.63.63 0 0 1-.641.608zM52.687 10.507v-.71c-2.369 0-4.872.507-4.872 3.3 0 1.415.733 2.374 1.991 2.374.922 0 1.747-.567 2.268-1.489.645-1.134.613-2.199.613-3.476zm3.305 7.988a.683.683 0 0 1-.774.078c-1.088-.903-1.281-1.323-1.881-2.185-1.798 1.835-3.07 2.383-5.402 2.383-2.757 0-4.905-1.701-4.905-5.107 0-2.66 1.443-4.471 3.494-5.356 1.779-.784 4.264-.922 6.163-1.139v-.424c0-.779.06-1.701-.396-2.374-.401-.604-1.166-.853-1.839-.853-1.249 0-2.365.641-2.637 1.968-.055.295-.272.585-.567.599l-3.181-.341c-.267-.06-.562-.277-.489-.687.733-3.854 4.213-5.015 7.329-5.015 1.595 0 3.678.424 4.937 1.632 1.595 1.489 1.443 3.476 1.443 5.638v5.107c0 1.535.636 2.208 1.235 3.038.212.295.258.65-.009.871a138.67 138.67 0 0 0-2.512 2.176l-.009-.009zM9.721 10.507v-.71c-2.369 0-4.872.507-4.872 3.3 0 1.415.733 2.374 1.991 2.374.922 0 1.747-.567 2.268-1.489.645-1.134.613-2.199.613-3.476zm3.305 7.988a.683.683 0 0 1-.774.078c-1.088-.903-1.281-1.323-1.881-2.185-1.798 1.835-3.07 2.383-5.402 2.383-2.756 0-4.905-1.701-4.905-5.107 0-2.66 1.443-4.471 3.494-5.356 1.779-.784 4.264-.922 6.163-1.139v-.424c0-.779.06-1.701-.396-2.374-.401-.604-1.166-.853-1.839-.853-1.249 0-2.365.641-2.637 1.968-.055.295-.272.585-.567.599l-3.181-.341c-.267-.06-.562-.277-.489-.687C1.345 1.203 4.825.042 7.941.042c1.595 0 3.678.424 4.937 1.632 1.595 1.489 1.443 3.476 1.443 5.638v5.107c0 1.535.636 2.208 1.235 3.038.212.295.258.65-.009.871a138.67 138.67 0 0 0-2.512 2.176l-.009-.009z"/></symbol><symbol id="icon-books-cl" viewBox="0 0 32 32"><path d="M29.717 11.056c-.129-.973-.148-2.648.756-3.211.016-.01.028-.025.042-.038.739-.236 1.25-.568.849-1.014L20.467 3.51 2.823 5.963S.802 6.252.983 9.391c.098 1.709.634 2.548 1.102 2.96l-1.448.436c-.402.446.109.778.848 1.014.014.013.026.028.042.038.903.563.886 2.238.756 3.211-3.244.921-2.079 1.221-2.079 1.221l.712.172c-.5.452-.998 1.31-.904 2.937.181 3.139 1.84 3.355 1.84 3.355l11.546 3.753 17.428-4.221s1.165-.301-2.08-1.222c-.13-.971-.149-2.646.756-3.211.017-.01.029-.025.042-.038.739-.236 1.25-.568.848-1.014l-.758-.229c.505-.305 1.264-1.101 1.383-3.169.082-1.423-.289-2.256-.719-2.746l1.497-.362c0 .001 1.165-.3-2.079-1.221zm-14.577-.04 14.31-2.941c-.471.863-.452 2.044-.374 2.803.017.172.037.329.056.448l-14.116 3.511.123-3.821zM2.551 14.071l14.31 2.941.123 3.821-14.115-3.511c.019-.119.038-.276.056-.448.078-.758.098-1.94-.374-2.803zM1.978 9.24c-.018-.835.131-1.439.432-1.746a.783.783 0 0 1 .572-.237c.082 0 .141.011.145.011l11.395 3.715-.124 3.848-11.202-3.14a.34.34 0 0 0-.07-.011c-.044-.003-1.096-.1-1.147-2.44zm11.447 17.583L2.223 23.682a.33.33 0 0 0-.07-.011c-.045-.003-1.097-.1-1.148-2.439-.018-.836.131-1.439.432-1.747a.786.786 0 0 1 .572-.237c.082 0 .141.011.145.011l11.395 3.716-.124 3.848zm14.679-3.955c.018.172.037.329.056.448l-14.116 3.512.123-3.821 3.018-.62.446.108 1.67-.543 9.176-1.886c-.472.863-.452 2.044-.374 2.803zm.778-5.193a.28.28 0 0 0-.076.012l-11.202 3.14-.124-3.848 11.379-3.711c.001 0 .424-.094.734.221.3.307.449.911.432 1.746-.053 2.34-1.105 2.437-1.143 2.44z"/></symbol><symbol id="icon-book-opened" viewBox="0 0 32 32"><path d="M30.372 7.482h-2.114C25.192 6.113 22.59 5.41 20.515 5.41c-2.687 0-3.945 1.171-4.514 2.064-.569-.893-1.826-2.064-4.514-2.064-2.075 0-4.678.704-7.744 2.072H1.629C.73 7.482.001 8.211.001 9.11v15.851c0 .9.729 1.628 1.628 1.628h28.743c.899 0 1.628-.729 1.628-1.628V9.11c0-.899-.729-1.628-1.628-1.628zm-14.813.989a.39.39 0 0 0-.007.076v14.95c-.712-.822-1.905-1.451-3.901-1.451-3.563 0-8.034 1.953-9.631 2.709V9.202a39.617 39.617 0 0 1 3.836-1.719c2.186-.831 4.074-1.258 5.63-1.258 1.909 0 2.952.639 3.517 1.258.326.357.494.707.573.924l-.016.064zm14.42 16.283c-1.597-.756-6.069-2.709-9.631-2.709-1.996 0-3.189.629-3.901 1.451-.026.03-.056.058-.081.089V8.592a1.51 1.51 0 0 1 .059-.183c.08-.216.251-.568.581-.927.568-.619 1.611-1.258 3.508-1.258 1.556 0 3.443.426 5.63 1.258a38.915 38.915 0 0 1 3.835 1.719v15.552z"/></symbol><symbol id="icon-blocks1" viewBox="0 0 32 32"><path fill="#4f2ee8" style="fill:var(--color1,#4f2ee8)" d="M32 16c0 8.837-7.163 16-16 16S0 24.837 0 16 7.163 0 16 0s16 7.163 16 16z"/><path fill="none" stroke="#fff" style="stroke:var(--color2,#fff)" stroke-linejoin="round" stroke-linecap="round" stroke-width="1.143" d="M13.714 9.143h4.571m-9.142 2.286h13.714m-1.524 0-.534 8.015c-.08 1.202-.12 1.804-.38 2.26a2.29 2.29 0 0 1-.989.925c-.472.229-1.075.229-2.28.229h-2.3c-1.205 0-1.808 0-2.28-.229a2.278 2.278 0 0 1-.989-.925c-.26-.456-.3-1.057-.38-2.26l-.534-8.015m3.809 3.428v3.809m3.048-3.809v3.809"/></symbol></defs></svg>