<svg xmlns="http://www.w3.org/2000/svg" aria-hidden="true" style="width: 0; height: 0; position: absolute; overflow: hidden">
  <defs>
    <symbol id="password-icon" viewBox="0 0 32 32">
      <path stroke-linecap="round" stroke-linejoin="round" stroke-width="2.667" d="M23.778 14.444V9.777c0-4.296-3.482-7.778-7.778-7.778S8.222 5.481 8.222 9.777v4.667M9.467 30h13.067c2.614 0 3.92 0 4.919-.509a4.662 4.662 0 0 0 2.039-2.039c.509-.998.509-2.305.509-4.919v-.622c0-2.614 0-3.92-.509-4.919a4.662 4.662 0 0 0-2.039-2.039c-.998-.509-2.305-.509-4.919-.509H9.467c-2.614 0-3.92 0-4.919.509a4.662 4.662 0 0 0-2.039 2.039C2 17.99 2 19.297 2 21.911v.622c0 2.614 0 3.92.509 4.919a4.662 4.662 0 0 0 2.039 2.039C5.546 30 6.853 30 9.467 30z"></path>
    </symbol>
    <symbol id="email-icon" viewBox="0 0 38 32">
      <path stroke-linecap="round" stroke-linejoin="round" stroke-width="2.909" d="M35.031 26.182 23.758 16m-9.697 0L2.788 26.182M1.94 7.515l13.856 9.699c1.122.785 1.683 1.178 2.293 1.33a3.404 3.404 0 0 0 1.642 0c.61-.152 1.171-.545 2.293-1.33L35.88 7.515M10.085 29.576h17.648c2.851 0 4.277 0 5.366-.555a5.09 5.09 0 0 0 2.225-2.225c.555-1.089.555-2.515.555-5.366V10.569c0-2.851 0-4.277-.555-5.366a5.09 5.09 0 0 0-2.225-2.225c-1.089-.555-2.515-.555-5.366-.555H10.085c-2.851 0-4.277 0-5.366.555a5.09 5.09 0 0 0-2.225 2.225c-.555 1.089-.555 2.515-.555 5.366V21.43c0 2.851 0 4.277.555 5.366a5.09 5.09 0 0 0 2.225 2.225c1.089.555 2.515.555 5.366.555z"></path>
    </symbol>
    <symbol id="close-icon" viewBox="0 0 32 32">
      <path stroke-linecap="round" stroke-linejoin="round" stroke-width="5.333" d="M28.444 3.556 3.555 28.445m.001-24.889 24.889 24.889"></path>
    </symbol>


     <symbol id="icon-eye" viewBox="0 0 48 48">
      <path d="M17.995 24c0 3.311 2.689 6 6 6s6-2.689 6-6v-.05a3.49 3.49 0 0 1-2.5 1.05c-1.931 0-3.5-1.57-3.5-3.5 0-1.39.819-2.6 1.99-3.16a6.005 6.005 0 0 0-7.99 5.66zm28.66-3.41C42.935 15.86 33.875 8 24.005 8c-9.88 0-18.949 7.86-22.67 12.59-.84 1.08-1.3 2.25-1.33 3.41.03 1.16.49 2.33 1.33 3.41C5.056 32.141 14.115 40 23.995 40s18.939-7.859 22.66-12.59c.85-1.08 1.31-2.25 1.34-3.41-.03-1.16-.49-2.33-1.34-3.41zM23.995 34c-5.52 0-10-4.48-10-10s4.48-10 10-10 10 4.48 10 10-4.48 10-10 10z"></path>
    </symbol>
 
  </defs>
</svg>
