<svg xmlns="http://www.w3.org/2000/svg" aria-hidden="true" style="width:0;height:0;position:absolute;overflow:hidden"><defs><symbol id="scroll-up" viewBox="0 0 24 24"><path fill="#fff" style="fill:var(--color1,#fff)" d="m3.375 14.7 8.4-8.425c.1-.1.208-.171.325-.212a1.126 1.126 0 0 1 .75 0 .865.865 0 0 1 .325.212L21.6 14.7c.233.233.35.525.35.875s-.125.65-.375.9-.542.375-.875.375-.625-.125-.875-.375l-7.35-7.35-7.35 7.35c-.233.233-.521.35-.862.35s-.638-.125-.888-.375S3 15.908 3 15.575a1.2 1.2 0 0 1 .375-.875z"/></symbol><symbol id="tryzub" viewBox="0 0 20 32"><path fill="#fff" style="fill:var(--color1,#fff)" d="M9.005 30.888a8.64 8.64 0 0 1-3.414-5.351H0V2.42c2.991 1.443 5.153 4.599 5.388 7.876l.846 6.493-.407-.045c-.893 0-1.676.812-1.676 1.608 0 .752.595 1.383 1.378 1.548l1.018.226c1.676-3.051 2.631-6.042 2.631-8.973 0-2.645-.36-5.291-.423-7.996 0-1.202.486-2.3 1.253-3.156.783.857 1.253 1.954 1.253 3.156 0 2.705-.423 5.351-.423 7.996 0 2.931.955 5.922 2.631 8.973l1.018-.226c.783-.165 1.378-.812 1.378-1.548 0-.812-.783-1.608-1.676-1.608l-.423.06.846-6.493c.423-3.277 2.396-6.448 5.388-7.876v23.117h-5.576c-.423 2.179-1.613 4.148-3.414 5.351-.423.286-.783.631-1.018 1.097-.219-.466-.579-.812-.987-1.112zM2.647 17.556c.235-.857.893-1.608 1.738-2.074l-.658-5.351a8.288 8.288 0 0 0-2.036-4.374v11.784h.955v.015zm2.819 6.373c0-.812.125-1.548.298-2.3l-.783-.18c-1.143-.346-2.036-1.203-2.334-2.3h-.955v4.78h3.774zm3.712 0c0-.977-.783-1.834-1.801-1.954-.172.631-.298 1.263-.298 1.954h2.099zm0 1.623H7.314c.298 1.263.955 2.42 1.864 3.397v-3.397zm2.631-5.005c-.72-1.262-1.378-2.585-1.801-3.968-.423 1.383-1.081 2.706-1.801 3.968.72.165 1.316.631 1.801 1.157.486-.526 1.081-.992 1.801-1.157zm1.143 3.382c0-.691-.125-1.323-.297-1.954-1.018.12-1.801.977-1.801 1.954h2.099zm-.235 1.623h-1.864v3.397c.908-.992 1.566-2.134 1.864-3.397zm5.623-1.623v-4.78h-.955c-.298 1.097-1.206 1.954-2.334 2.3l-.783.18c.172.752.298 1.488.298 2.3h3.774zm0-6.373V5.757c-1.081 1.202-1.864 2.706-2.036 4.374l-.658 5.351c.846.466 1.504 1.203 1.739 2.074h.955z"/></symbol><symbol id="icon-image1" viewBox="0 0 149 32" fill="#fff"><path d="M40.712 17.783c-1.445-.642-2.305-.89-3.151-.89-.89 0-1.459.321-1.459.817 0 1.503 5.063 1.08 5.063 4.552 0 1.912-1.605 3.02-3.822 3.02-1.736 0-2.597-.452-3.589-.963v-2.145c1.43.949 2.305 1.284 3.4 1.284.948 0 1.459-.335 1.459-.919 0-1.635-5.063-1.036-5.063-4.611 0-1.722 1.489-2.859 3.794-2.859 1.109 0 2.115.233 3.37.774zm7.672 6.084c-.219 0-.351-.132-.351-.467v-3.064c0-1.474-1.153-2.042-2.845-2.042a5.461 5.461 0 0 0-2.917.817v1.722c.671-.686 1.633-1.123 2.48-1.123.919 0 1.211.496 1.167 1.123-2.815.875-3.997 1.197-3.997 2.801 0 .846.803 1.649 1.882 1.649.729 0 1.4-.204 2.218-.759.146.541.481.759 1.182.759.569 0 1.401-.263 1.984-.613v-1.182c-.496.351-.656.38-.802.38zm-2.467-.35c-.35.321-.773.51-1.167.51-.38 0-.685-.321-.685-.714 0-.671.598-.964 1.852-1.416zm3.003-5.092h2.261l1.429 3.706 1.445-3.706h2.247l-3.093 6.858h-1.182zm9.845 3.706h4.829c.102-2.451-1.518-3.837-3.472-3.837-2.072 0-3.545 1.458-3.545 3.516 0 2.101 1.532 3.473 3.896 3.473.525 0 1.794 0 3.006-.89v-1.328c-.993.716-1.649.963-2.495.963-1.328 0-2.145-.7-2.218-1.897zm1.503-2.583c.817 0 1.371.555 1.459 1.474h-2.919c.088-.933.627-1.474 1.459-1.474zm12.994.322h-2.451v2.772c0 .657.38 1.079 1.036 1.079.438 0 .845-.102 1.415-.393v1.532c-.744.306-1.299.423-1.955.423-1.4 0-2.612-.642-2.612-2.524v-2.888h-.963v-.409l2.816-3.152h.262v2.116h2.451zm2.944-.452h.029c.613-.774 1.299-1.123 2.13-1.123 1.225 0 2.465.744 2.465 2.568v4.289h-2.116v-3.838c0-1.006-.438-1.473-1.094-1.473-.496 0-.919.306-1.415 1.021v4.289h-2.116v-9.95h2.116zm7.919 2.713h4.829c.102-2.451-1.517-3.837-3.472-3.837-2.072 0-3.545 1.458-3.545 3.516 0 2.101 1.532 3.473 3.895 3.473.526 0 1.795 0 3.006-.89v-1.328c-.992.716-1.648.963-2.495.963-1.328 0-2.145-.7-2.218-1.897zm1.502-2.583c.817 0 1.372.555 1.459 1.474h-2.918c.087-.933.628-1.474 1.458-1.474zm17.678 4.742c-1.386.714-2.437.992-3.91.992-3.866 0-5.792-2.51-5.792-5.078 0-2.655 2.174-5.135 5.981-5.135 1.386 0 2.626.291 3.604.875v2.218c-1.094-.613-2.203-1.022-3.429-1.022-2.116 0-3.604 1.255-3.604 3.02 0 1.78 1.474 3.049 3.546 3.049 1.299 0 2.174-.409 3.603-1.094zm3.589-4.872h.029c.613-.774 1.299-1.123 2.13-1.123 1.225 0 2.466.744 2.466 2.568v4.289h-2.116v-3.838c0-1.006-.438-1.473-1.094-1.473-.496 0-.919.306-1.415 1.021v4.289h-2.116v-9.95h2.116zm6.11 5.733h2.115v-6.726h-2.115zm2.217-8.915c0 .642-.525 1.168-1.167 1.168s-1.167-.526-1.167-1.168.525-1.167 1.167-1.167 1.167.525 1.167 1.167zm1.445 8.915h2.115v-9.95h-2.115zm8.273-9.95v3.516a3.91 3.91 0 0 0-1.751-.423c-1.926 0-3.268 1.429-3.268 3.487 0 2.013 1.342 3.502 3.151 3.502.715 0 1.269-.19 1.868-.671v.539h2.116v-9.95zm0 8.112c-.438.393-.803.554-1.255.554-.992 0-1.619-.817-1.619-2.042 0-1.342.628-2.116 1.692-2.116.38 0 .875.175 1.182.394zm5.731-2.962h.029c.627-1.4 1.328-2.057 2.144-2.057.423 0 .788.16 1.401.612l-.584 1.868c-.554-.351-.919-.496-1.255-.496-.773 0-1.269.729-1.736 1.969v2.903h-2.116v-6.727h2.116zm5.923 1.78h4.829c.102-2.451-1.518-3.837-3.472-3.837-2.072 0-3.545 1.458-3.545 3.516 0 2.101 1.532 3.473 3.896 3.473.525 0 1.794 0 3.005-.89v-1.328c-.992.716-1.648.963-2.494.963-1.328 0-2.145-.7-2.218-1.897zm1.503-2.583c.817 0 1.371.555 1.458 1.474h-2.917c.088-.933.627-1.474 1.459-1.474zm6.518-.161c.671-.773 1.328-1.093 2.188-1.093 1.051 0 2.451.598 2.451 2.583v4.275h-2.116v-4.101c0-.948-.452-1.342-1.05-1.342-.526 0-.92.277-1.474 1.109v4.333h-2.116v-6.726h2.116zM28.012 8.571c1.341-1.38 1.937-2.018 1.843-2.396-.071-.283-.343-.547-.766-.742-.455-.21-1.09-.335-1.425-.168-.113.055-.3.239-.752.686l-.423.415-.001-.001c-.243-.285-.48-.542-.726-.79l.001.001a13.359 13.359 0 0 0-6.51-3.581C18.319.853 17.037.266 15.728.38c-1.1.095-2.1.679-2.827 1.644a14.99 14.99 0 0 0-6.963 3.769v-.001c-.4-.15-1.305-.053-1.886.215-.334.154-.531.347-.587.573-.044.172.009.449.651 1.291v.002c-1.987 2.731-2.996 6.056-2.835 9.365.166 3.393 1.554 6.558 3.909 8.914a13.35 13.35 0 0 0 2.716 2.096l.063.034a16.316 16.316 0 0 0 4.864 1.83c3.713.758 7.388.208 10.473-1.319l.009-.004c.393-.183.561-.634.401-1.073l-.048-.133c-.651-1.779-2.634-7.195-1-11.9.685-1.969 2.406-3.997 3.882-5.58h.001c1.293 2.349 1.85 5.076 1.562 7.697-.273 2.484-1.252 4.745-2.847 6.59v.001a.278.278 0 0 0-.077.194v.001c0 .032.009.062.015.091l.125.356a.285.285 0 0 0 .473.094l.009.001c4.183-4.616 5.102-11.302 2.211-16.555v-.001zM10.228 18.74c-.43 1.782-1.019 4.219-.897 7.97v-.001a13.685 13.685 0 0 1-2.645-2.054c-2.16-2.16-3.526-4.992-3.846-7.971-.307-2.864.361-5.714 1.883-8.055v-.001h.001l-.001.001c.478.573 1.06 1.236 1.668 1.928 1.49 1.694 3.179 3.614 3.972 4.953.46.774.236 1.699-.134 3.232zM24.941 7.806c-3.148 2.759-6.036 4.173-8.575 4.19-1.954.014-3.974-.707-6.001-2.143-1.676-1.187-2.94-2.554-3.694-3.37L6.594 6.4a11.996 11.996 0 0 1 5.463-2.916l.081-.016.001-.001v.002a6.059 6.059 0 0 0-.294 2.502c.136 1.552.834 2.961 1.914 3.868.845.709 1.869 1.05 2.882.963 1.013-.089 1.962-.603 2.672-1.449.906-1.08 1.348-2.589 1.212-4.141a6.226 6.226 0 0 0-.14-.888l.008.042v.001a13.485 13.485 0 0 1 3.872 2.709c.229.23.45.467.663.713l.015.017z"/></symbol><symbol id="icon-image2" viewBox="0 0 65 32" fill="#fff"><path d="M17.019 1.529c-.06.067-.082.337-.067.734l.022.622h1.499l.022-.622c.015-.397-.008-.667-.067-.734-.06-.075-.262-.105-.704-.105s-.645.03-.704.105zM31.363 1.963c-.022.052-.045.435-.052.847l-.022.749-.824.075v1.424l.869.045-.008 1.829c-.008 1.012.015 1.866.037 1.911.067.105 1.334.097 1.446-.015.067-.067.09-.592.09-1.904V5.103l.787-.045V3.634l-.787-.045v-.772c0-.495-.03-.794-.09-.854-.127-.127-1.401-.12-1.446 0zM3.747 3.597c-.187.09-.412.225-.495.307l-.157.15-.045-.232-.045-.225h-.704c-.442 0-.727.03-.787.09-.12.12-.127 6.962-.015 7.187.067.127.165.142.779.142.57 0 .712-.022.749-.12.022-.067.045-.637.045-1.274V8.468l.345.225c.967.615 2.196.412 3.02-.495 1.252-1.364.839-3.747-.779-4.519-.54-.262-1.446-.3-1.911-.082zm1.079 1.454c.757.315 1.012 1.356.487 2.031-.232.292-.562.427-1.019.42-.502 0-.824-.187-1.057-.592-.277-.495-.187-1.274.18-1.604.405-.36.937-.457 1.409-.255zM12.688 3.552c-.772.247-1.349.787-1.724 1.596-.277.592-.292 1.491-.022 2.158.24.622.922 1.296 1.536 1.536.622.24 1.484.24 2.083.008.607-.24 1.244-.847 1.521-1.446.195-.42.217-.555.217-1.184 0-.652-.022-.757-.24-1.207-.48-.974-1.319-1.506-2.421-1.544-.397-.015-.757.015-.952.082zm1.378 1.589a1.2 1.2 0 0 1 .3 1.956c-.772.742-2.031.202-2.031-.877 0-.877.922-1.454 1.731-1.079zM20.931 3.582c-1.401.487-2.136 2.046-1.671 3.552.262.847.772 1.386 1.641 1.716.592.232 1.596.225 2.196 0 .667-.255 1.364-1.049 1.229-1.394-.03-.09-.172-.112-.66-.112-.525.008-.667.03-.922.187-.39.247-1.064.262-1.424.037-.247-.15-.487-.45-.487-.6 0-.045.607-.075 1.791-.075 2.158 0 2.076.03 2.008-.794-.06-.652-.277-1.266-.607-1.701-.255-.337-.884-.757-1.319-.877-.42-.12-1.341-.082-1.776.06zm1.649 1.424c.112.075.255.202.315.285.232.307.172.33-.974.33-.749 0-1.087-.022-1.087-.082 0-.045.127-.217.292-.375.277-.277.315-.292.764-.292.337 0 .54.045.689.135zM26.777 3.59c-.794.27-1.371.839-1.679 1.641-.127.36-.15.547-.127 1.139.03.615.06.772.27 1.169.487.959 1.364 1.484 2.488 1.484.787 0 1.334-.195 1.851-.667.412-.36.794-1.004.757-1.259-.022-.157-.06-.165-.757-.187l-.742-.022-.285.262c-.63.57-1.619.345-1.919-.442-.315-.839.24-1.686 1.109-1.686.412 0 .577.067.944.382.225.202.292.217.862.217.337 0 .66-.03.719-.067.255-.165-.202-1.079-.757-1.514-.719-.57-1.851-.757-2.735-.45zM9.967 3.657a1.516 1.516 0 0 0-.427.39l-.172.247v-.262c0-.135-.037-.292-.09-.345-.12-.12-1.349-.12-1.469 0s-.127 4.871-.015 5.089c.067.127.165.142.734.142.412 0 .689-.03.749-.09s.09-.502.09-1.476c0-1.229.015-1.416.142-1.604.195-.3.412-.435.817-.495l.352-.045V3.559l-.225-.022a1.138 1.138 0 0 0-.487.12zM16.989 3.642c-.03.03-.052 1.274-.052 2.758 0 2.031-.022 2.75-.097 2.893-.06.112-.21.225-.39.285-.165.052-.322.135-.352.187-.097.157-.067 1.139.037 1.289.09.112.18.127.585.097.862-.067 1.461-.525 1.679-1.281.097-.33.112-.869.097-3.312l-.022-2.923-.712-.022c-.397-.007-.742 0-.772.03zM23.981 12.028c-2.241.412-4.392 1.746-5.778 3.575-.577.764-1.282 2.218-1.521 3.11-.899 3.402.052 6.857 2.555 9.248 1.769 1.686 3.957 2.555 6.43 2.555 2.99 0 5.673-1.334 7.464-3.717.532-.697 1.274-2.181 1.491-2.968.63-2.271.442-4.541-.525-6.58-.525-1.094-.982-1.739-1.836-2.608-1.394-1.401-3.08-2.286-4.976-2.615-.779-.142-2.541-.135-3.305 0zm-.277 3.223c1.229.262 2.046 1.094 2.413 2.473.135.48.24 2.361.157 2.69-.12.487-.712.66-1.057.307-.172-.165-.187-.232-.187-.937 0-.749-.008-.764-.225-.989-.195-.187-.27-.217-.472-.18a.847.847 0 0 0-.39.202c-.142.135-.15.255-.165 2.181-.022 1.769-.037 2.053-.15 2.173-.157.18-.51.172-.697-.015-.142-.142-.15-.247-.15-1.799 0-.997-.03-1.649-.075-1.649-.037 0-.075.817-.09 2.053-.022 1.896-.03 2.068-.165 2.211-.18.202-.525.202-.719.008-.142-.142-.15-.247-.15-2.211 0-1.326-.03-2.061-.075-2.061s-.075.622-.075 1.724c0 1.866-.03 2.031-.39 2.181-.187.075-.247.067-.42-.06l-.202-.15-.022-1.851c-.008-1.057-.045-1.844-.09-1.844-.037 0-.075.585-.09 1.319-.022 1.282-.03 1.319-.202 1.461-.225.187-.39.18-.637-.015l-.202-.165.022-2.368c.03-2.196.045-2.398.187-2.795.3-.809.824-1.386 1.521-1.686.734-.315 1.904-.405 2.795-.21zm5.898 3.26c.142.142.15.247.15 2.173 0 1.746.015 2.023.112 2.023s.112-.255.112-1.814c0-1.581.015-1.829.127-1.948.15-.165.525-.172.712-.008.12.112.135.27.135 1.948 0 1.431.022 1.829.097 1.806.067-.022.105-.397.135-1.379.022-.734.045-1.349.052-1.349.008-.008.12-.052.247-.105.202-.082.247-.082.427.052l.202.15.022 2.203c.022 2.406-.015 2.728-.367 3.432-.525 1.049-1.566 1.581-3.103 1.581-2.113 0-3.282-1.109-3.56-3.372-.165-1.341-.067-2.151.262-2.278.262-.097.57-.045.749.142.172.165.187.24.187.854 0 .749.075.997.352 1.124.27.127.442.097.674-.097l.21-.18.022-2.053c.015-1.971.022-2.053.172-2.181.21-.172.48-.165.667.022.142.142.15.247.15 1.799 0 1.416.015 1.649.112 1.649s.112-.277.112-2.053c0-2.046 0-2.061.165-2.173.232-.165.48-.15.66.03zM1.679 12.395l-.217.18v17.267l.21.18c.21.18.225.18 1.844.18 1.544 0 1.649-.008 1.836-.157l.195-.15v-6.962h5.171v6.962l.195.15c.187.15.292.157 1.866.157 1.641 0 1.664 0 1.821-.172l.165-.172V12.524l-.202-.157c-.195-.15-.262-.157-1.881-.135-1.656.022-1.679.022-1.821.202-.135.165-.142.337-.142 3.35v3.178H5.548v-3.178c0-3.013-.008-3.185-.142-3.35-.142-.18-.165-.18-1.829-.202l-1.686-.022-.21.187zM37.276 12.275a.578.578 0 0 0-.3.18c-.135.142-.142.48-.142 8.768v8.618l.217.18.21.187 1.679-.022c1.491-.022 1.686-.037 1.806-.157s.135-.36.157-2.78l.022-2.653 1.889-.037c2.173-.037 2.443-.09 3.612-.652 1.297-.63 2.151-1.476 2.78-2.735.487-.982.645-1.679.645-2.773 0-1.109-.165-1.799-.667-2.803-.577-1.154-1.716-2.241-2.9-2.78-1.049-.48-1.012-.472-5.103-.517-2.061-.022-3.822-.037-3.904-.022zm7.209 4.017c.457.217.862.615 1.087 1.079.247.51.247 1.476.008 2.001a2.582 2.582 0 0 1-1.027 1.109c-.277.15-.427.165-1.963.187l-1.671.022v-4.579h1.596c1.514 0 1.604.008 1.971.18zM51.103 12.433l-.217.225.015 8.626.022 8.633.18.142c.165.135.36.142 5.193.142h5.014l.18-.187c.187-.18.187-.18.187-1.799s0-1.619-.187-1.799l-.18-.187h-6.303v-3.222h2.765c2.608 0 2.773-.008 2.938-.142.18-.142.18-.15.18-1.769s0-1.626-.18-1.769c-.165-.135-.33-.142-2.938-.142h-2.765v-2.998h3.065c2.983 0 3.065-.008 3.26-.157l.195-.15v-1.641c0-1.499-.015-1.649-.142-1.806l-.142-.18-9.915-.037-.225.217zM62.419 12.463c-.457.307-.577.847-.292 1.311.3.487.959.577 1.416.195.51-.427.42-1.281-.172-1.559-.352-.165-.652-.15-.952.052zm.892.127c.674.412.39 1.386-.412 1.386-.277 0-.367-.037-.517-.21-.24-.277-.292-.532-.172-.809.097-.255.465-.517.704-.517.082 0 .262.067.397.15z"/><path d="M62.501 13.227c0 .435.015.487.15.487.082 0 .15-.052.15-.112s.037-.112.075-.112c.045 0 .097.052.12.112.03.06.127.112.225.112.195 0 .225-.075.097-.202-.06-.06-.06-.127.008-.247a.339.339 0 0 0 .008-.345c-.067-.157-.135-.18-.457-.18h-.375v.487zm.525-.112c0 .037-.03.075-.075.075-.037 0-.075-.037-.075-.075 0-.045.037-.075.075-.075.045 0 .075.03.075.075z"/></symbol><symbol id="icon-image3" viewBox="0 0 338 32" fill="#fff"><path d="M99.662 4.917h16.922v26.091H99.662V4.917zM29.816 15.949c0 3.727-2.055 5.481-6.447 5.481s-6.449-1.752-6.449-5.481V4.916H0v11.667c0 10.921 6.111 14.796 23.369 14.796s23.369-3.882 23.369-14.796V4.916H29.816v11.033zm88.557-1.34h14.158v16.399h16.922V14.609h14.159V4.917h-45.24v9.692zm-37.569 3.839L67.572 4.917H48.907v26.091h16.696V17.477l13.22 13.531h18.674V4.917H80.803v13.531zm213.899-8.012C294.703 3.318 288.405 0 275.137 0c-14.312 0-20.35 3.802-20.35 12.896h13.305c0-3.131 2.199-4.25 6.562-4.25 4.247 0 5.59.747 5.59 1.902 0 1.528-.485 1.528-11.19 4.024-11.85 2.795-15.529 8.313-15.529 13.643v2.795h40.215v-8.47h-23.522c1.418-1.343 5.442-1.715 14.35-3.426 5.924-1.114 10.135-3.165 10.135-8.678zM165.41 31.008h38.501v-7.783H181.59v-2.199h15.878v-6.12H181.59v-2.199h22.326v-7.79H165.41v26.091zM337.6 17.144v8.721h-6.038v5.143h-13.75v-5.143h-22.698v-8.806l16.287-16.027h20.162v16.102l6.036.009zm-19.79-8.573-8.678 8.573h8.678V8.571zm-63.732 9.402c0 8.758-5.517 13.044-16.886 13.044h-31.119v-26.1h31.119c11.369 0 16.886 4.287 16.886 13.056zm-16.511 0c0-2.946-1.642-4.325-5.07-4.325h-9.914v8.648h9.914c3.428-.009 5.07-1.388 5.07-4.323z"/></symbol><symbol id="icon-image4" viewBox="0 0 123 32" fill="#fff"><path d="M20.1 3.19a4.9 4.9 0 0 0-.061.818c0 .491.031.593.204.644.112.031.337.266.511.511l.307.45v1.666c0 .92-.041 1.718-.082 1.769-.041.061-.368.174-.726.245a7.17 7.17 0 0 0-1.319.429c-.368.164-.705.296-.757.296-.112 0-.9-.644-1.738-1.421l-.593-.552v-.757c0-.409-.031-.746-.072-.746-.051 0-1.902 0-4.12-.01H7.616l-.031.828c-.02.685 0 .818.133.818.266 0 .961.399 1.114.644.174.266.072.644-2.464 9.017-.818 2.699-1.574 5.224-1.677 5.623-.47 1.707-.818 2.546-1.237 2.944l-.399.399.031.726.031.736 4.171.031 4.161.02v-1.585l-.573-.245c-.889-.389-.91-.501-.44-2.208 2.321-8.271 2.914-10.275 3.016-10.275.031 0 .194.092.348.204.256.184.296.296.327.746l.031.532.746.02c.808.02.736.072.879-.767l.061-.327h-.818c-.48 0-.818-.041-.818-.102s.337-.102.818-.102h.818l.235-.542.235-.532-.746-.031c-1.012-.041-.951-.225.072-.225h.808l.419-.542c.225-.307.409-.583.409-.613 0-.041-.307-.072-.675-.072-.419 0-.644-.041-.603-.102.031-.061.409-.102.838-.102h.777l1.084-1.022h-.358c-.194 0-.348-.051-.348-.102 0-.061.276-.102.624-.102.521 0 .695-.051 1.084-.307.879-.593 1.176-.675 3.609-.9l.767-.072-.675-.48c-.849-.603-.93-.716-.951-1.206 0-.296.061-.47.225-.634.307-.307.47-.143.317.307-.184.521-.051.787.613 1.237.327.225.736.583.91.797.256.307.348.358.419.245.092-.143.767-.133 2.208.041.317.031.337.031.102-.031l-.307-.072-.031-1.758c-.031-2.106.051-2.403.695-2.658l.409-.164V2.962h-7.852l-.061.225zm4.171.347c.184.174.215.511.061.603-.061.041-.102.767-.102 1.83 0 .981-.031 1.912-.061 2.086-.061.276-.092.307-.256.215-.184-.092-.194-.245-.194-2.004 0-1.258-.041-2.024-.123-2.259-.112-.307-.112-.358.072-.491.245-.184.409-.184.603.02zm-1.033.225c.368.378.286.583-.235.583-.358 0-.389-.01-.245-.164.327-.368.123-.399-.47-.082-.337.174-.613.358-.613.399 0 .123.419.204 1.104.204.562 0 .644.02.613.174-.02.112-.133.194-.286.204-.143 0-.358.041-.48.082-.174.061-.235.031-.235-.092 0-.184-.153-.225-.256-.061s-.389.123-.327-.041c.041-.112-.031-.164-.256-.184-.399-.041-.491-.256-.164-.378.133-.051.511-.286.849-.511.337-.235.644-.419.675-.419s.174.133.327.286zm2.791.133c.225.174.521.378.685.46.286.153.368.348.143.348-.072 0-.235.123-.368.266-.143.164-.286.235-.389.204a.287.287 0 0 0-.286.041c-.082.072-.235.051-.501-.051-.419-.174-.511-.419-.123-.317.133.031.378-.01.532-.092.164-.082.378-.153.48-.153.245 0 .215-.123-.112-.44-.307-.296-.48-.358-.399-.133.031.072-.041.215-.153.307-.184.164-.225.164-.44.02-.337-.225-.389-.204-.317.082.041.164.01.266-.092.307-.123.041-.153-.031-.153-.307s.051-.368.235-.44a.98.98 0 0 0 .368-.256c.204-.245.45-.204.889.153zm-.582 2.709c.123.153.215.358.215.47 0 .225-1.084 1.411-1.298 1.411s-.153-.143.215-.501c.48-.46.634-.859.48-1.196-.215-.481.061-.603.389-.184z"/><path d="M23.923 3.885c0 .112.051.204.102.204.061 0 .102-.092.102-.204s-.041-.204-.102-.204c-.051 0-.102.092-.102.204zM88.322 6.318c-.266.245-.327.368-.327.736s.061.491.327.736c.358.317.695.358 1.135.133.603-.317.705-1.094.215-1.595-.409-.399-.91-.409-1.35-.01zM110.773 6.196l-.613.143.031 3.916c.041 4.355.051 4.427.736 4.795.276.153.521.184 1.043.164.378-.02.705-.061.736-.092s-.01-.256-.082-.501c-.092-.307-.194-.47-.327-.491-.44-.082-.45-.194-.45-4.069 0-2.034-.031-3.773-.061-3.865-.072-.194-.194-.194-1.012 0zM32.726 6.543c-.051.031-.112.419-.153.869s-.133.879-.194.961c-.061.072-.634.501-1.268.951s-1.135.859-1.104.91c.041.051-.061.092-.225.092a2.64 2.64 0 0 0-.511.061c-.204.051-.174.102.286.511.501.45.511.45 1.268.45.409 0 .787.041.818.102.061.102-.092.123-.838.143-.184.01-.348.041-.358.082-.02.041.133.296.337.562l.368.501.787-.031c.429-.02.777.01.777.061 0 .123-.368.215-.9.215h-.429l.511 1.022h.716c.409 0 .716.041.716.102s-.276.102-.613.102c-.337 0-.613.031-.613.061 0 .041.082.286.174.562l.184.501h.583c.583 0 .593 0 .593-.296 0-.235.102-.358.552-.654.46-.307.573-.348.675-.225.225.276 3.098 11.543 3.016 11.819-.082.256-.685.705-.941.705-.348 0-.45.235-.419.941l.031.644h8.281l.031-.654c.031-.573 0-.685-.215-.92a2.593 2.593 0 0 1-.378-.511c-.194-.378-2.086-6.942-3.312-11.461-.317-1.155-.726-2.668-.92-3.374-.409-1.452-.521-2.034-.429-2.331.041-.123.276-.307.521-.429l.46-.225v-.91c0-.501-.031-.91-.072-.91-2.208-.041-7.739-.041-7.79 0zM47.458 10.806l.031 4.273 1.789.061V6.542h-1.84l.02 4.263zM58.203 7.075l-.746.204v1.513h-.307c-.297 0-.307.01-.307.511s.01.511.307.511h.307v2.167c0 1.983.02 2.208.204 2.505.368.613 1.247.859 2.29.644l.593-.123-.061-.368a6.607 6.607 0 0 1-.061-.501c0-.092-.133-.112-.46-.061-.368.041-.511.02-.665-.123-.194-.174-.204-.317-.204-2.157V9.824l.521-.031c.521-.031.521-.031.705-.521l.184-.48h-1.411v-.971c0-.532-.031-.971-.072-.961-.051 0-.419.102-.818.215zM85.01 7.136l-.613.174-.031.746-.031.736h-.296c-.296 0-.307.01-.307.501 0 .48.02.511.286.542l.276.031.051 2.249c.061 2.515.072 2.576.777 2.914.46.225 1.288.266 1.912.092.399-.102.419-.164.286-.757-.061-.286-.082-.296-.532-.266-.797.041-.808 0-.808-2.29V9.825l.521-.031c.521-.031.532-.041.705-.491l.184-.46-1.442-.102.02-.9c.031-1.022.072-.992-.961-.705zM79.898 8.7c-.47.082-1.421.44-1.769.665l-.235.153.276.48c.153.266.307.511.337.562.041.041.368-.072.726-.245 1.165-.583 1.942-.389 1.942.48 0 .327-.02.348-.378.358-.859.02-1.789.235-2.259.521-.501.307-.736.859-.736 1.697 0 .767.194 1.186.716 1.564.603.45 1.983.46 2.617.031.194-.133.368-.245.388-.245s.184.133.368.307c.409.378.511.378.828.02.532-.583.532-.583.245-.992-.256-.378-.256-.419-.256-2.29 0-2.137-.082-2.443-.716-2.812-.378-.225-1.493-.358-2.096-.256zm1.196 4.284c-.031.552-.072.705-.286.889-.573.521-1.268.164-1.268-.634 0-.654.46-.981 1.329-.93.245.01.256.031.225.675zM51.323 8.884c-.399.123-.552.225-.511.327.031.082.061 1.442.082 3.026l.031 2.893h1.626v-2.229c0-2.495-.02-2.403.746-2.73.48-.194.542-.194.787.051.194.194.204.337.204 2.556v2.351h1.646l-.031-2.689c-.041-3.098-.061-3.21-.869-3.568-.644-.286-1.411-.204-2.096.215-.593.368-.593.368-.593.123 0-.562-.153-.613-1.022-.327zM62.415 8.874c-.48.225-1.094.879-1.35 1.421-.133.296-.174.675-.174 1.615-.01 1.37.143 1.84.777 2.495.971.992 2.74 1.104 4.079.266l.388-.256-.317-.511c-.286-.46-.337-.501-.481-.368-.491.45-1.595.603-2.147.317-.337-.174-.654-.767-.603-1.135l.031-.266 1.769.01c1.493.02 1.769-.01 1.82-.133.031-.092.01-.562-.061-1.053-.143-1.104-.481-1.789-1.104-2.219-.378-.276-.532-.307-1.329-.337-.705-.031-.971 0-1.298.153zm1.738 1.176c.204.174.286.358.327.716l.061.48h-.992c-1.104 0-1.135-.041-.838-.757.276-.665.951-.869 1.442-.44zM67.548 8.864c-.593.153-.603.164-.542.48.041.174.092 1.554.133 3.057l.061 2.74 1.554-.061.031-2.28.02-2.28.337-.204c.215-.123.47-.194.726-.174l.388.02.194-.603c.102-.337.174-.675.143-.746-.061-.153-.797-.164-1.104-.01-.123.061-.368.256-.542.419l-.317.296-.123-.419c-.133-.45-.123-.45-.961-.235zM71.974 8.884c-.399.123-.552.225-.511.327.031.082.061 1.442.082 3.026l.031 2.893h1.626v-2.229c0-2.495-.02-2.403.746-2.73.481-.194.542-.194.787.051.194.194.204.337.204 2.556v2.351h1.534v-2.72c0-3.077-.02-3.149-.767-3.517-.685-.327-1.513-.235-2.239.256-.204.143-.388.256-.409.256s-.072-.164-.102-.358c-.082-.419-.164-.429-.981-.164zM88.721 8.813l-.593.102v6.216h1.636V8.69l-.225.01c-.133.01-.501.061-.818.112zM92.534 8.854c-.562.215-1.196.838-1.472 1.462-.286.644-.358 2.116-.133 2.893.215.736.654 1.329 1.257 1.687.44.256.583.286 1.411.286.818 0 .971-.031 1.401-.286.491-.286.951-.849 1.217-1.503.092-.235.143-.746.143-1.482 0-.93-.041-1.206-.215-1.585-.266-.573-.808-1.135-1.329-1.38-.542-.256-1.697-.296-2.28-.092zm1.667 1.308c.481.47.603 2.351.225 3.272-.348.828-1.268.889-1.646.102-.225-.48-.307-1.799-.153-2.535.153-.746.45-1.084.971-1.084a.81.81 0 0 1 .603.245zM97.861 8.874c-.511.143-.542.174-.481.419.041.143.092 1.523.123 3.057l.051 2.791 1.564-.061.02-2.249c.02-2.208.02-2.239.256-2.423.44-.337.879-.429 1.155-.245l.256.164.02 2.382.031 2.372 1.585.061v-2.617c0-2.873-.041-3.118-.593-3.517-.624-.44-1.697-.368-2.464.153l-.368.245-.112-.327c-.133-.399-.286-.429-1.043-.204zM104.997 8.925c-.726.266-1.125.48-1.125.613 0 .061.378.787.562 1.073.01.01.337-.123.716-.296 1.227-.583 1.891-.429 1.891.419v.368l-.951.112c-1.36.164-1.932.48-2.27 1.288-.378.9-.041 2.075.705 2.484.767.429 1.973.399 2.638-.072l.286-.215.368.317c.194.174.409.317.481.317.072-.01.296-.215.511-.46l.399-.46-.266-.317c-.143-.174-.266-.44-.276-.583 0-.153-.01-1.063-.02-2.034-.02-1.595-.041-1.779-.235-2.034-.44-.603-.695-.705-1.758-.736-.828-.02-1.104.01-1.656.215zm2.045 4.049c0 .665-.02.726-.296.92-.634.45-1.339.102-1.339-.654 0-.593.47-.93 1.36-.961.276-.01.276-.01.276.695z"/><path d="M27.788 9.375c.072.031.102.123.082.215-.092.286.593.552 1.319.511l.613-.031-.767-.317c-.419-.184-.9-.348-1.073-.368-.164-.031-.245-.031-.174-.01zM22.063 9.723c-.337.256-.368.399-.072.399.225 0 .491-.256.501-.491 0-.174-.112-.153-.429.092zM20.488 9.712c-.123.051-.256.133-.296.194-.031.061-.153.112-.266.112-.102 0-.194.041-.194.102 0 .194.521.102.92-.164.225-.153.409-.286.409-.307 0-.072-.348-.031-.573.061zM21.194 9.815c-.245.102-.44.245-.44.307 0 .204.48.092.818-.204.419-.348.256-.399-.378-.102zM23.923 9.845c0 .184.051.276.153.276.133 0 .143-.041.041-.235-.174-.337-.194-.337-.194-.041zM20.243 10.449c-.235.082-.225.368.01.296.082-.02.266-.061.429-.092.153-.02.297-.082.327-.123.072-.112-.501-.184-.767-.082zM18.433 10.909l-.593.491.429.031c.368.031.501-.02.992-.409.307-.245.562-.47.562-.521.01-.041-.174-.072-.389-.072-.327 0-.511.092-1.002.48zM21.255 10.612c-.092.092-.266.256-.389.358s-.194.225-.164.286c.041.061.174-.01.307-.153.153-.164.307-.235.399-.204.123.051.164 0 .164-.204 0-.307-.082-.327-.317-.082zM22.196 10.571c-.072.082-.153.307-.184.511-.061.368-.051.368.307.368.368 0 .48-.123.48-.521 0-.102-.072-.194-.153-.194s-.153-.072-.153-.153c0-.194-.143-.194-.297-.01zM23.065 10.837c-.235.583-.215.634.225.593.378-.031.378-.031.378-.491 0-.389-.041-.46-.215-.491-.174-.02-.256.061-.389.389zM23.995 10.643c.041.133.092.174.153.112.112-.112.031-.327-.123-.327-.041 0-.061.092-.031.215zM24.639 10.53a.11.11 0 0 0 .102.102.102.102 0 0 0 .102-.102c0-.061-.041-.102-.102-.102a.102.102 0 0 0-.102.102zM28.115 10.571c0 .02.072.092.153.164.123.102.153.102.153-.041 0-.092-.072-.164-.153-.164s-.153.02-.153.041zM28.831 11.052c0 .164.041.194.225.143.174-.061.204-.041.143.102-.061.164-.041.164.112.041.102-.072.204-.153.225-.164.082-.061-.348-.327-.521-.337-.123 0-.184.082-.184.215zM17.615 11.737c-.164.102-.849.971-.849 1.073 0 .041.215.072.48.051.46-.031.511-.061.818-.542.184-.276.337-.542.337-.583 0-.102-.624-.102-.787 0zM21.807 11.767a.285.285 0 0 0-.072.245c.031.072-.082.215-.256.317-.491.296-.409.45.245.45.613 0 .644-.031.818-.797.061-.317.061-.327-.276-.327-.194 0-.399.051-.46.112zM22.717 12.054c-.204.665-.174.726.337.726.256 0 .46-.031.47-.082 0-.041.01-.286.02-.562l.031-.48h-.378c-.337 0-.378.031-.48.399zM29.24 11.737c0 .051.092.174.215.286.123.102.276.317.358.47.133.245.215.286.603.286.256 0 .46-.031.46-.061 0-.041-.164-.286-.368-.562-.337-.47-.399-.501-.818-.501-.245 0-.45.041-.45.082zM24.486 12.371c.031.051.082.102.112.102.02 0 .041-.051.041-.102 0-.061-.051-.102-.112-.102-.051 0-.072.041-.041.102zM18.167 12.534a.263.263 0 0 0-.072.164c0 .133.511.061.542-.072.02-.123-.368-.194-.47-.092zM22.39 13.526c-.051.266-.102.511-.102.532 0 .031.143.051.307.051.215 0 .327-.061.368-.184.031-.092.123-.307.204-.46.204-.409.194-.429-.266-.429-.399 0-.409 0-.511.491zM30.058 13.035c0 .031.041.133.092.235.051.092.143.296.204.45.102.266.153.286.675.286.634 0 .665-.051.337-.624-.215-.389-.235-.399-.767-.399-.296 0-.542.02-.542.051zM16.358 13.495c-.112.215-.204.44-.204.501 0 .051.256.112.562.133l.552.031.164-.48c.082-.266.153-.501.153-.532s-.225-.061-.511-.061c-.491 0-.511.01-.716.409zM17.656 13.567c-.143.491-.143.491.112.521.317.041.389-.041.47-.573.061-.409.051-.429-.194-.429-.215 0-.276.072-.389.48zM20.907 13.158c-.45.112-.491.603-.051.695.164.041.327.112.358.164.072.112.869.123.869.01.01-.041.051-.266.092-.511l.082-.429-.573.01a7.49 7.49 0 0 0-.777.061zM29.546 13.178c0 .051.041.123.092.153.041.031.112.194.143.368.041.174.133.307.215.307.133 0 .133-.061-.031-.429-.164-.399-.419-.644-.419-.399zM26.673 13.505a.68.68 0 0 0-.041.399c.051.164.153.204.521.204.573 0 .593-.184.041-.542-.399-.256-.409-.256-.521-.061zM19.752 13.505c-.143.051-.225.164-.204.256.031.174.767.48.849.348.031-.051-.01-.102-.072-.133-.102-.031-.102-.092-.01-.256.194-.327-.061-.419-.562-.215zM28.34 13.618c-.184.184-.153.286.153.399.368.143.491-.031.204-.296-.184-.174-.266-.194-.358-.102zM29.73 14.293c-.256.02-.389.082-.389.184 0 .082.061.143.143.143s.215.082.286.184c.153.215.808.562.889.47.061-.061-.307-.399-.532-.48-.092-.031-.092-.092 0-.256.153-.256.102-.286-.399-.245zM30.978 14.334c0 .041.123.102.286.143.153.031.337.082.409.102.082.02.123-.031.102-.143-.02-.123-.133-.174-.419-.174-.204 0-.378.031-.378.072zM17.687 14.385c-.235.092-.307.245-.307.675v.389l.675-.031c.654-.031.685-.041.716-.307.02-.194-.031-.296-.153-.337a1.002 1.002 0 0 1-.368-.256c-.194-.204-.296-.235-.562-.133zM20.161 14.497c-.082.235.133.358.378.215.194-.123.256-.102.654.296.573.562.746.562.828-.031.041-.256.041-.511.01-.562-.102-.164-1.799-.092-1.871.082zM22.226 14.558a1.8 1.8 0 0 0-.02.532c.031.296.031.296.746.296.654 0 .716-.02.746-.225.02-.143-.031-.235-.174-.286-.112-.031-.296-.174-.409-.317-.266-.337-.797-.348-.889 0zM26.725 14.538c.031.133.061.358.061.511 0 .276.02.286.573.286h.573l-.072-.44c-.041-.235-.092-.46-.123-.511-.02-.041-.276-.072-.562-.072-.48 0-.511.01-.45.225zM28.279 14.507a.668.668 0 0 0-.143.491c.031.276.061.286.624.317.317.02.583 0 .583-.031s-.051-.266-.112-.521c-.112-.419-.143-.45-.45-.45-.194 0-.399.082-.501.194zM16 14.538c-.02.072-.061.307-.102.511l-.061.389h1.319l.041-.511.031-.511h-.593c-.378 0-.603.041-.634.123zM26.275 14.988c-.082.204-.082.296.02.358.174.112.286.01.286-.266 0-.358-.184-.409-.307-.092zM18.965 15.029c-.102.327.02.409.624.409.419 0 .552-.041.552-.153 0-.184-.235-.307-.736-.399-.317-.061-.378-.041-.44.143zM30.947 15.008c-.286.061-.143.276.215.307.235.02.327-.01.327-.112 0-.164-.256-.256-.542-.194zM29.546 15.182c0 .082.072.153.164.153.143 0 .143-.031.041-.153-.072-.082-.143-.153-.164-.153s-.041.072-.041.153zM23.974 15.223c-.061.112.092.235.194.143.092-.092.072-.235-.031-.235-.061 0-.123.041-.164.092zM26.224 15.652c-.041.061-.092.348-.102.634l-.041.532.256-.307c.276-.348.348-.971.102-.971-.082 0-.184.051-.215.112zM26.755 16.072c-.031.297-.02.583.031.624.041.051.317.072.624.051l.552-.031v-1.125l-1.145-.061-.061.542zM28.217 16.092c0 .624.051.665.695.593l.429-.041V15.54h-1.125v.552zM29.597 15.663c-.092.286-.102 1.002-.01 1.002.133 0 1.186-.92 1.186-1.033 0-.143-1.125-.112-1.176.031zM32.47 15.663c-.204.716-.235.9-.184.941.031.031.297.061.603.061.491 0 .552-.031.644-.266.061-.143.102-.399.102-.562 0-.296-.01-.296-.562-.296-.368 0-.583.041-.603.123zM16.235 15.714c-.215.02-.389.061-.389.092s.051.256.112.511l.112.45h.654c.716 0 .705.01.542-.675-.123-.491-.092-.47-1.033-.378zM17.38 15.755c0 .051.051.307.112.562l.112.45h1.319l-.072-.491c-.031-.266-.082-.511-.112-.562-.072-.112-1.36-.082-1.36.041zM19.067 16.123c.041.266.092.521.123.562.02.051.276.082.552.082.48 0 .501-.01.399-.204a1.135 1.135 0 0 1-.082-.542l.031-.327-1.094-.061.072.491zM21.848 15.847c.031.112.072.204.092.204s.041-.092.041-.204c0-.112-.041-.204-.092-.204s-.072.092-.041.204zM22.206 16.174l.031.542 1.482.061v-1.135h-1.544l.031.532zM23.923 16.204c0 .48.031.562.194.562.215 0 .317-.194.317-.562s-.102-.562-.317-.562c-.164 0-.194.082-.194.562zM14.15 15.898c-.031.082-.02.327.031.532l.092.389 1.687.061-.164-.378c-.082-.204-.153-.46-.153-.562 0-.174-.082-.194-.716-.194-.542 0-.736.041-.777.153zM28.258 16.951c-.061.041-.164.204-.215.378-.061.164-.143.389-.184.491-.072.164-.02.184.46.153l.532-.031.184-.48c.102-.266.153-.501.123-.532-.082-.092-.767-.072-.9.02zM29.393 16.992c-.031.072-.112.327-.194.562l-.153.44h.603c.644 0 .818-.133.818-.603 0-.184-.031-.194-.266-.112-.419.164-.552.123-.552-.153 0-.266-.174-.348-.256-.133zM32.102 17.145a3.944 3.944 0 0 1-.266.562l-.153.286h1.237l.245-.501c.143-.276.225-.521.194-.562-.041-.031-.307-.061-.613-.061-.501 0-.552.02-.644.276zM19.374 17.073c-.02.031.051.256.143.511l.164.46.593.031c.317.02.583-.01.583-.061 0-.184-.297-.808-.44-.93-.143-.112-.971-.123-1.043-.01zM22.288 17.421c0 .573.153.695.838.654l.542-.031.031-.542.031-.532h-1.442v.45zM23.944 17.503l.031.542.491.031c.501.031.644-.123.337-.378-.082-.061-.194-.256-.266-.419-.092-.225-.194-.307-.378-.307-.235 0-.245.031-.215.532zM25.62 17.452c-.204.235-.368.47-.368.532s.194.112.46.112h.45l.164-.532c.082-.286.153-.542.153-.552s-.112-.01-.245 0c-.143 0-.389.184-.613.44zM26.592 17.421c-.061.256-.112.48-.112.511s.256.061.562.061c.552 0 .552 0 .654-.389.174-.613.164-.634-.44-.634h-.552l-.112.45zM14.446 17.574c.133.317.286.532.419.562.276.072 1.697.082 1.697.01 0-.031-.112-.286-.256-.562l-.256-.511h-1.82l.215.501zM16.256 17.155c0 .041.133.297.307.562.296.46.317.48.797.48.276 0 .521-.031.552-.061.041-.031-.041-.276-.153-.552l-.225-.511H16.9c-.358 0-.644.041-.644.082zM17.963 17.605l.286.532.562-.031c.307-.01.573-.041.593-.051.01-.02-.061-.245-.153-.501l-.174-.48h-1.401l.286.532zM31.335 17.329c-.225.184-.327.215-.429.133-.153-.123-.153-.133-.317.245l-.123.286h.491c.48 0 .491-.01.716-.46.256-.521.143-.593-.337-.204zM21.838 17.666c-.194.378-.174.46.112.409.153-.02.174-.092.133-.389l-.061-.358-.184.337zM27.747 18.28c-.112.072-.552.869-.552.992 0 .031.215.051.47.031.44-.031.491-.061.716-.47.133-.235.245-.48.245-.532 0-.123-.716-.133-.879-.02zM28.688 18.668c-.143.266-.266.511-.266.562s.204.092.46.092c.419 0 .48-.031.818-.47.194-.266.358-.521.358-.562 0-.051-.245-.092-.552-.092-.552 0-.552 0-.818.47zM30.006 18.73l-.358.542.378.031c.348.031.429-.01.777-.389.491-.562.491-.716-.031-.716-.378 0-.429.041-.767.532zM31.284 18.648c-.164.256-.307.501-.307.562s.215.112.501.112c.47 0 .532-.031.869-.45.204-.235.368-.491.368-.562s-.204-.112-.562-.112c-.542 0-.562.01-.869.45zM17.513 18.382c-.245.02-.44.051-.44.082s.174.256.378.511c.358.419.419.45.869.45.266 0 .491-.031.491-.072 0-.133-.552-.859-.705-.93-.092-.041-.358-.061-.593-.041zM18.546 18.423c-.031.041.092.286.276.542.327.45.348.46.889.46h.552l-.307-.542-.307-.532h-.521c-.297-.01-.562.031-.583.072zM19.936 18.351c0 .112.327.716.491.889.102.123.307.184.603.184.235 0 .44-.031.44-.061 0-.041-.123-.286-.276-.562-.266-.491-.276-.501-.767-.501-.266 0-.491.02-.491.051zM21.47 18.587c0 .164.072.358.153.429s.153.194.153.266c0 .092.123.143.358.143.348 0 .358-.01.297-.286-.204-.808-.194-.787-.583-.818-.358-.031-.378-.02-.378.266zM22.574 18.863l.164.573.93-.061.031-.542.031-.532h-1.309l.153.562zM23.944 18.832c.031.491.051.542.286.573.378.031.501-.092.603-.624l.082-.48h-1.002l.031.532zM25.109 18.382c-.031.051-.082.276-.123.501-.072.48.031.583.47.491.235-.051.327-.153.45-.532.092-.266.164-.491.164-.511 0-.072-.91-.02-.961.051zM26.183 18.679c-.072.215-.153.45-.174.511-.041.102.082.133.44.133.48 0 .511-.02.726-.399.327-.573.297-.624-.317-.624-.542 0-.552 0-.675.378zM15.356 18.914l.44.511h1.779l-.757-1.022h-1.902l.44.511zM67.067 20.703c0 1.39-.01 1.503-.174 1.421-.307-.133-1.38-.174-1.769-.051-1.36.409-2.167 2.454-1.697 4.304.215.818.552 1.35 1.104 1.707.593.399 1.718.46 2.351.133.378-.194.429-.204.511-.061.072.123.266.164.787.164h.705l-.092-.389c-.051-.204-.092-2.198-.092-4.427v-4.059l-.225-.051a8.115 8.115 0 0 0-.818-.123l-.593-.072v1.503zm-.327 2.709.327.204v3.057l-.266.204c-.511.409-1.36.184-1.564-.409-.123-.358-.153-1.81-.051-2.331.041-.174.194-.46.348-.624.337-.368.716-.399 1.206-.102zM70.553 19.364c-.91.501-.511 1.902.552 1.902.317 0 .828-.44.91-.777.215-.849-.695-1.554-1.462-1.125zM85.388 19.394l-.644.153.031 3.957c.031 4.386.02 4.284.726 4.713.348.215 1.421.286 1.697.112.204-.133-.041-1.033-.286-1.033-.399 0-.419-.133-.419-3.619 0-1.861-.031-3.629-.061-3.926-.082-.603-.051-.593-1.043-.358zM27.082 19.609c-.092.01-.235.194-.327.389s-.245.378-.327.409c-.225.092-.184.245.051.245.225 0 1.125-.767 1.125-.961 0-.112-.194-.153-.521-.082zM27.686 20.018c-.276.256-.491.501-.491.542 0 .051.184.092.409.092.358 0 .491-.072.93-.48.276-.256.48-.491.46-.521-.031-.02-.225-.051-.44-.061-.327-.01-.46.051-.869.429zM28.882 20.1l-.613.552h.399c.327 0 .491-.082.951-.47.307-.266.532-.501.501-.532s-.184-.061-.348-.072c-.215-.02-.429.102-.889.521zM30.088 20.028c-.296.266-.542.521-.542.552 0 .041.143.072.317.072.327 0 1.728-.838 1.728-1.033 0-.051-.215-.092-.48-.092-.44.01-.552.061-1.022.501zM94.671 19.68c-1.626.45-2.658 1.902-2.811 3.967-.164 2.065.613 3.721 2.075 4.437 1.084.532 2.965.419 3.742-.204l.307-.245-.388-.521-.378-.532-.276.204c-.613.44-1.677.45-2.259.02-.716-.532-.971-1.401-.91-3.128.031-.869.092-1.247.256-1.605.511-1.135 1.615-1.503 2.679-.9.184.112.348.194.368.174.521-.716.685-1.053.593-1.196-.286-.46-2.034-.736-2.996-.47zM19.691 19.721c-.041.051.174.307.46.562.368.327.613.47.818.47.164 0 .297-.031.297-.082 0-.041-.184-.286-.419-.562-.337-.399-.47-.48-.757-.48-.194 0-.368.041-.399.092zM20.907 19.732c-.041.072.112.307.368.573.675.685.92.573.47-.215-.235-.419-.685-.603-.838-.358zM21.838 19.711c-.031.051.051.297.184.542.194.368.307.46.562.48.368.041.378-.01.112-.634-.174-.409-.235-.47-.501-.47-.164 0-.327.041-.358.082zM22.881 19.691c-.072.072.051.532.225.849.072.153.194.215.337.194.194-.031.225-.102.256-.573l.031-.532h-.399c-.215 0-.419.031-.45.061zM23.923 20.141c0 .429.031.511.194.511.184 0 .307-.215.47-.797.061-.204.031-.225-.296-.225h-.368v.511zM24.741 19.885a5.216 5.216 0 0 0-.164.521c-.061.235-.041.256.225.225.215-.02.348-.133.521-.44.133-.225.235-.44.235-.491 0-.041-.164-.072-.358-.072-.296 0-.378.051-.46.256zM25.539 20.141c-.307.552-.245.705.225.511.245-.102.92-.808.92-.961 0-.031-.194-.061-.429-.061-.419 0-.45.031-.716.511zM16.818 20.243l.695.511h.818c.46 0 .787-.041.736-.082l-.624-.511-.532-.429h-1.789l.695.511zM18.464 19.946c.399.45 1.043.808 1.431.808h.389l-.501-.511c-.47-.48-.542-.511-1.012-.511h-.501l.194.215zM47.898 19.854c-.02.072-.092.726-.153 1.462-.061.726-.225 2.525-.358 3.987a115.8 115.8 0 0 0-.256 2.842c0 .164.092.174.849.153l.838-.031.174-2.454c.092-1.35.174-2.658.184-2.914.01-.368.143.041.675 1.994.358 1.35.705 2.679.777 2.944l.123.491 1.523-.061.767-2.709a175.4 175.4 0 0 1 .818-2.863c.061-.153.245 1.963.378 4.325l.072 1.298h1.707l-.061-.542c-.02-.286-.194-2.208-.378-4.263l-.327-3.732-2.239-.061-.634 2.382c-.358 1.309-.675 2.535-.705 2.709-.041.184-.092.337-.133.337-.031 0-.358-1.217-.736-2.689l-.665-2.679-1.094-.031c-.828-.02-1.104.01-1.145.102z"/><path d="M25.61 21.265c-.215.225-.44.409-.501.409-.051 0 .02-.133.174-.286.337-.348.348-.429.041-.429-.143 0-.327.123-.47.317-.276.368-.409.327-.164-.051.174-.266.174-.266-.082-.266-.204 0-.276.061-.327.307-.102.46-.297.521-.215.061.041-.235.031-.368-.041-.368-.051 0-.102.112-.102.245 0 .143-.041.286-.102.317-.061.041-.102-.072-.102-.245 0-.245-.041-.317-.204-.317-.225 0-.256.123-.102.419.061.112.072.194.01.194-.051 0-.143-.143-.204-.307-.072-.235-.164-.307-.368-.307-.245 0-.256.02-.143.225.072.133.174.266.235.307s.072.112.02.153c-.041.041-.215-.092-.389-.307-.164-.204-.378-.378-.47-.378-.112 0-.061.102.184.358.184.194.317.378.276.419-.031.031-.235-.123-.46-.358-.296-.307-.48-.419-.695-.409h-.297l.245.174c.491.337.675.511.603.583-.041.041-.286-.092-.552-.297-.521-.399-.808-.511-1.176-.45-.204.031-.133.102.419.378.368.194.613.368.552.389s-.46-.153-.9-.378c-.726-.389-.849-.419-1.493-.389-.389.01-.695.031-.685.041.092.092 1.574.593 2.065.695l.613.133.082.705c.051.389.072 1.36.041 2.167-.051 1.605-.112 1.789-.726 1.942l-.317.082v1.523h7.974l.031-.746c.031-.716.02-.736-.204-.736-.286 0-.654-.235-.808-.532-.072-.133-.112-.951-.102-2.351.01-1.38-.02-2.198-.092-2.28-.082-.092-.031-.153.194-.256.164-.061.378-.204.48-.317.164-.184.164-.194-.164-.194-.317 0-.736.245-1.176.675-.092.092-.194.133-.235.092s.082-.194.266-.348c.368-.317.409-.419.143-.419-.102 0-.368.184-.583.409zm-1.482.726c0 .184-.02.194-.153.092-.082-.072-.153-.164-.153-.215s.072-.092.153-.092c.092 0 .153.092.153.215zm.409-.123c0 .051-.072.143-.153.215-.123.102-.153.102-.153-.02 0-.082.031-.184.072-.215.092-.102.235-.092.235.02zm-.491.481c.603.644.726.951.562 1.431-.143.429-.46.654-.337.235.225-.716.215-.777-.389-1.401-.317-.327-.573-.634-.573-.665 0-.204.358-.01.736.399zm-.48.46c.041.051 0 .184-.092.286-.204.225-.215.818 0 1.114.266.389.348.256.348-.603 0-.613.031-.818.133-.777.082.02.123.327.133.971.02.777.051.981.235 1.206.296.378.184.44-.164.102-.164-.153-.46-.419-.675-.603-.307-.256-.399-.419-.45-.746-.082-.603.317-1.309.532-.951zm.511 2.699c0 .307-.051.511-.123.532-.102.041-.133-.112-.133-.532s.031-.573.133-.542c.072.031.123.235.123.542zm-.542-.235c-.072.072-.123.082-.123.02 0-.143.123-.266.194-.194.02.031-.01.112-.072.174z"/><path d="M27.553 21.122c-.573.378-.665.491-.358.399.501-.143 1.227-.491 1.227-.573 0-.184-.47-.082-.869.174zM28.708 21.02c-.245.123-.389.348-.235.348s.869-.348.869-.419c0-.143-.327-.102-.634.072zM74.878 21.96c-.705.245-1.012.46-1.37.961-.481.654-.644 1.37-.593 2.525.061 1.513.47 2.259 1.462 2.73.951.45 2.382.266 3.088-.389l.225-.204-.327-.45c-.184-.245-.358-.44-.399-.45-.041 0-.245.112-.45.256-.399.266-.93.337-1.278.153-.409-.225-.552-.695-.552-1.891 0-.91.041-1.196.194-1.482.368-.675.808-.787 1.513-.389.348.194.419.204.491.082a6.25 6.25 0 0 1 .358-.511l.266-.358-.266-.225c-.276-.245-1.155-.542-1.574-.542-.143.01-.501.092-.787.184zM80.593 21.889c-.634.102-1.973.685-1.973.849 0 .174.613 1.104.695 1.063.828-.429 1.36-.624 1.738-.634.532-.01.736.194.736.757v.368l-.961.112c-1.452.174-2.075.573-2.321 1.503-.143.521-.051 1.309.194 1.728.511.879 2.27 1.135 3.21.47l.286-.215.368.317c.194.174.409.317.481.317s.307-.204.521-.46l.378-.46-.256-.317c-.266-.307-.266-.327-.266-2.116 0-.992-.051-1.973-.102-2.178-.112-.399-.521-.849-.92-.992-.429-.164-1.247-.215-1.81-.112zm1.196 4.273c0 .644-.02.726-.266.92-.603.47-1.37.102-1.37-.654 0-.603.45-.91 1.411-.961.215-.01.225.031.225.695zM117.603 21.879c-1.421.297-2.137 1.574-1.574 2.822.245.542.685.808 1.697 1.012.981.204 1.155.297 1.278.624.133.337-.123.838-.47.92-.419.102-1.135-.041-1.799-.348l-.603-.296-.296.583-.296.593.603.256c1.554.675 3.088.573 3.977-.266.971-.92.797-2.484-.348-3.026-.245-.112-.501-.215-.552-.215-.337 0-1.452-.45-1.544-.624-.296-.552.388-1.002 1.247-.818.276.061.634.184.787.266l.296.143.215-.511c.123-.276.194-.552.164-.603-.102-.164-1.125-.491-1.738-.542-.337-.031-.808-.02-1.043.031zM58.704 22.001c-.45.153-1.217.838-1.452 1.319-.112.215-.256.716-.307 1.125-.194 1.37.123 2.566.869 3.251.634.583 1.084.757 2.045.757.675.01.92-.041 1.38-.256.307-.143.654-.327.757-.419.194-.143.194-.153-.102-.624-.164-.256-.317-.46-.348-.44-1.135.675-1.943.736-2.474.194-.286-.276-.552-1.053-.409-1.196.031-.031.849-.051 1.83-.051h1.769v-.562c0-2.035-.849-3.108-2.505-3.18-.389-.02-.869.02-1.053.082zm1.646 1.432c.112.143.204.44.215.665l.01.389-1.922.061.051-.47c.112-.992 1.104-1.37 1.646-.644zM71.31 21.93c-.051.02-.317.061-.583.102l-.491.061v6.226h1.636v-6.441l-.225.01c-.133 0-.276.02-.337.041zM100.396 21.971c-.828.266-1.298.705-1.697 1.595-.245.521-.286.757-.286 1.534-.01 1.564.511 2.566 1.626 3.077.583.276 1.452.327 2.116.123.624-.184 1.36-.9 1.626-1.595.337-.838.337-2.403.01-3.139-.286-.613-.746-1.114-1.298-1.401-.44-.235-1.646-.348-2.096-.194zm1.35 1.278c.337.256.491.828.491 1.861 0 1.605-.348 2.28-1.114 2.147-.695-.112-.93-.654-.93-2.127 0-.981.112-1.452.429-1.789.245-.266.838-.317 1.125-.092zM105.477 22.052c-.593.164-.603.164-.532.48.041.174.092 1.544.123 3.047l.051 2.74h1.615v-4.601l.337-.204c.215-.143.47-.204.726-.184l.409.031.184-.613c.102-.337.164-.675.133-.746-.061-.153-.797-.164-1.104-.01-.123.061-.368.256-.542.419l-.317.296-.123-.419c-.133-.45-.123-.45-.961-.235zM109.986 22.001l-.593.102v4.437c0 5.05-.112 4.55.971 4.253l.613-.174.02-1.206c0-.654.051-1.196.102-1.196.041 0 .235.051.429.112.562.184 1.585.061 2.065-.256.46-.307.961-1.033 1.125-1.636.061-.225.092-.91.072-1.544-.031-1.033-.061-1.196-.337-1.738-.44-.869-1.043-1.227-2.034-1.227-.573 0-.808.051-1.114.225-.481.286-.481.286-.481-.02 0-.143-.051-.245-.123-.245-.072.01-.399.061-.716.112zm2.648 1.36c.307.215.44.757.44 1.738 0 1.002-.123 1.472-.47 1.799-.317.297-.9.327-1.298.061l-.276-.174v-3.169l.337-.204c.388-.245.961-.266 1.268-.051z"/></symbol><symbol id="icon-image5" viewBox="0 0 91 32" fill="#fff"><path d="M17.464 2.261c-1.02.545-1.423 1.06-1.756 2.201-.232.828-.212 1.242.131 1.837.414.717.737 1.009 1.07.949.141-.03.283-.01.313.03.141.222.495.04 1.1-.596 1.282-1.312 1.544-2.544.808-3.806-.474-.828-.949-.999-1.666-.616zM26.498 5.603c-1.837.404-7.238 2.191-9.842 3.24-4.331 1.767-9.428 4.3-10.216 5.098l-.303.303.262.202c.172.141.262.303.262.495 0 .353.162.474.384.283.091-.081.394-.273.666-.424.394-.232.535-.262.717-.182.192.091.384.03 1.11-.333 1.908-.959 6.965-2.968 9.943-3.957 1.565-.515 6.461-1.918 8.035-2.291l.727-.182.05-.414c.03-.252 0-.545-.071-.727-.081-.162-.192-.464-.273-.656-.242-.676-.343-.707-1.454-.454zM29.83 8.631c-.05.02-1.555.495-3.331 1.06-3.18 1.009-6.582 2.201-7.157 2.493l-.283.151.485.333c.273.182.565.414.656.515.091.111.384.404.656.656s.767.747 1.09 1.09l.596.636 2.332-1.11a247.037 247.037 0 0 1 4.432-2.039c2.009-.898 2.09-.949 2.09-1.221 0-.424-.353-1.292-.808-1.999-.373-.575-.485-.656-.757-.565zM31.849 13.577c-1.272.293-2.867.676-3.533.848-1.272.343-5.219 1.514-5.29 1.585-.02.02.151.252.394.515.232.262.545.727.686 1.03l.273.545 2.251-.061 2.261-.071 1.524-.485a89.053 89.053 0 0 1 3.15-.929c.888-.232 1.676-.485 1.746-.555.232-.212.172-1.504-.101-2.271-.232-.656-.232-.656-.636-.676-.222-.01-1.444.222-2.726.525zM12.114 15.172c-5.269 2.554-9.237 4.694-9.338 5.027-.151.464.404 2.211.697 2.211.091 0 .626-.182 1.191-.414 1.161-.454 3.614-1.312 3.614-1.252 0 .02-1.151.636-2.544 1.373-3.21 1.676-3.735 1.999-3.846 2.312-.182.525.474 1.999 1.05 2.352.131.081.777-.182 2.826-1.161a177.948 177.948 0 0 1 4.613-2.1c1.06-.474 1.938-.888 1.938-.939 0-.091.485-1.433.929-2.594.121-.303.555-1.373.969-2.372.424-.999.838-2.059.939-2.352s.222-.585.262-.656c.111-.172.333-.797.333-.959 0-.061-.061-.121-.121-.121-.071.01-1.656.747-3.513 1.645zM18.362 18.241c-.172.373-.464 1.02-.656 1.423-.192.414-.343.767-.343.787s-.101.212-.232.424c-.131.202-.525.919-.878 1.585s-.787 1.474-.949 1.787c-.252.464-.353.575-.565.565-.141 0-.404.03-.596.071-.212.04-.313.03-.273-.03.081-.131-.474-.323-.737-.252-.121.03-.212.01-.212-.05s-.162-.162-.353-.232c-.232-.091-.384-.222-.414-.363-.04-.131-.081-.232-.091-.232-.061 0-1.524.838-1.787 1.03-.232.162-.283.273-.283.626 0 .868.575 2.079.979 2.079.091 0 1.413-.626 2.948-1.403a218.978 218.978 0 0 1 5.128-2.483l2.342-1.09-.05-.313c-.242-1.383-.959-2.958-1.746-3.806-.858-.929-.868-.929-1.232-.121zM24.732 18.897c0 .02-.202.787-.444 1.716l-.444 1.696h.394c.363 0 .394-.02.485-.384.061-.202.192-.717.303-1.131l.192-.757.01 1.131.01 1.141h.767l.545-1.11c.303-.606.555-1.09.575-1.08.01.02-.101.515-.262 1.11l-.293 1.08h.394c.434 0 .343.222.888-1.989.172-.676.313-1.282.313-1.332 0-.071-.232-.111-.555-.111h-.555l-.545 1.08-.555 1.09v-1.09l-.01-1.08h-.606c-.333 0-.606.01-.606.02zM28.77 18.897c0 .02-.202.787-.444 1.716l-.444 1.696h1.201c.888 0 1.201-.03 1.201-.131 0-.061.03-.222.061-.353.061-.212.04-.222-.666-.222-.626 0-.717-.02-.666-.162.03-.091.061-.222.061-.303 0-.101.151-.141.606-.141.596 0 .606 0 .686-.333l.081-.323-.535-.03c-.545-.03-.616-.101-.474-.464.05-.121.212-.162.747-.162.676 0 .686 0 .797-.313.061-.182.111-.363.111-.404 0-.05-.525-.091-1.161-.091s-1.161.01-1.161.02zM31.546 18.998c-.02.071-.222.848-.444 1.716l-.394 1.595h.979c.888 0 1.02-.02 1.393-.273.565-.363.949-1.08 1.009-1.888.05-.565.03-.656-.202-.929-.242-.283-.293-.293-1.272-.323-.787-.03-1.03-.01-1.07.101zm1.564.838c.081.101.101.303.061.606-.091.596-.606 1.161-1.06 1.161-.172 0-.313-.03-.313-.081 0-.04.101-.464.222-.959l.232-.878h.363c.202 0 .424.071.495.151zM34.766 19.15c-.04.162-.242.929-.444 1.716l-.363 1.444h1.191c.888 0 1.191-.03 1.191-.131 0-.061.03-.222.061-.353.061-.212.04-.222-.656-.222-.394 0-.717-.02-.717-.04 0-.03.04-.162.101-.303.091-.242.151-.262.646-.262.596 0 .606-.01.707-.434.061-.273.061-.273-.495-.273-.565 0-.636-.061-.495-.444.05-.121.212-.162.747-.162.757 0 .747 0 .858-.485l.071-.323h-2.342l-.061.273zM38.208 19.069c-.767.343-1.282 1.181-1.292 2.1-.01.424.03.575.222.777.333.353.828.495 1.474.414.495-.061.535-.081.596-.373.03-.172.061-.333.061-.373 0-.03-.262-.04-.575-.02-.666.04-.838-.101-.838-.686 0-.797.686-1.393 1.474-1.282.424.05.444.05.525-.273.05-.172.071-.353.05-.404-.081-.151-1.292-.071-1.696.121zM40.449 18.948c-.03.05-.212.737-.414 1.544-.212.808-.394 1.544-.424 1.635-.05.151.02.182.404.182.444 0 .464-.01.555-.384.303-1.131.717-2.847.717-2.938 0-.121-.767-.151-.838-.04zM41.893 18.897c0 .02-.202.797-.444 1.726l-.444 1.696.828-.061.262-1.06.262-1.05.283 1.08.293 1.08h1.05l.414-1.605c.232-.878.424-1.656.424-1.716 0-.081-.131-.111-.373-.091l-.384.03-.273 1.009c-.141.555-.273 1.03-.283 1.06s-.141-.424-.293-1.009l-.262-1.06-.525-.03c-.293-.02-.535-.02-.535 0zM45.83 18.948c-.373.141-.707.575-.707.929 0 .343.081.505.545 1.161.151.222.161.293.05.424-.101.131-.252.151-.656.111l-.525-.05-.061.363c-.03.202-.04.373-.02.394.01.02.303.061.636.091 1.413.151 1.979-.828 1.151-1.979-.161-.232-.273-.485-.242-.565.071-.182.454-.283.747-.192.353.121.586-.555.232-.697-.192-.071-.939-.071-1.151.01zM49.968 18.948c-.081.03-.273.172-.424.313-.404.373-.384.838.081 1.504.313.454.343.555.232.697-.091.111-.262.151-.636.121-.485-.03-.505-.02-.575.273-.111.384-.03.454.636.525 1.322.131 1.938-.818 1.201-1.847-.505-.697-.343-1.06.394-.898.262.061.313.03.414-.212.081-.242.071-.313-.071-.414-.182-.131-.959-.162-1.252-.061z"/><path d="m51.715 20.593-1.131 1.716h.495c.485 0 .505-.01.767-.454s.273-.454.797-.454h.545l.03.424.03.434.485.03c.262.02.474-.01.474-.05s-.071-.717-.151-1.494c-.081-.777-.151-1.514-.151-1.645 0-.202-.05-.222-.535-.222h-.535l-1.12 1.716zm1.453-.03c-.03.02-.172.03-.313.01l-.262-.03.283-.454.273-.454.03.444c.02.232.01.454-.01.485zM55.127 19.25c-.303 1.171-.717 2.857-.717 2.958 0 .071.151.101.373.081l.373-.03.242-.989c.141-.545.283-.959.323-.909.04.04.172.505.303 1.009l.222.939h.545c.535 0 .535 0 .636-.384.303-1.161.717-2.847.717-2.948 0-.071-.141-.101-.373-.081l-.363.03-.242.909c-.131.495-.273.979-.303 1.06s-.182-.323-.323-.909l-.262-1.06-1.05-.061-.101.384zM59.155 18.948c-.081.03-.273.172-.424.313-.404.373-.384.838.081 1.504.313.454.343.555.232.697-.091.111-.262.151-.636.121-.474-.03-.505-.02-.575.262-.05.162-.061.333-.03.373.071.121.909.222 1.292.151.858-.162 1.141-1.07.565-1.837-.515-.676-.353-.999.444-.929.242.03.303-.02.373-.252.061-.212.03-.293-.111-.373-.202-.101-.949-.121-1.211-.03zM62.738 18.998c-.02.071-.222.848-.444 1.716l-.394 1.595h.878l.161-.525c.081-.283.151-.585.151-.656 0-.091.161-.131.545-.131.596 0 .606-.01.707-.434.061-.273.061-.273-.444-.273s-.515-.01-.485-.283c.03-.262.05-.273.697-.303.596-.03.686-.05.737-.252.151-.575.141-.575-.999-.575-.767 0-1.08.04-1.11.121zM65.373 18.958c-.03.04-.212.737-.414 1.544-.202.797-.384 1.534-.414 1.625-.05.151.01.182.394.182h.444l.182-.808c.101-.434.212-.777.252-.757.04.03.101.283.141.575.131.999.131.989.666.989h.474l-.131-.585c-.192-.787-.182-.878.111-1.009.485-.222.828-1.11.575-1.504-.04-.061-.202-.172-.353-.222-.333-.131-1.847-.151-1.928-.03zm1.292.686c.202.081.212.384 0 .585-.192.192-.868.222-.797.03.212-.596.262-.676.444-.676.111 0 .262.03.353.061zM68.997 19.069c-.545.242-1.02.808-1.211 1.444-.192.656-.192.828.01 1.242.384.808 1.777.878 2.625.131.979-.868 1.121-2.403.242-2.857-.394-.202-1.171-.192-1.666.04zm1.04.595c.071.05.172.232.222.424.182.646-.424 1.534-1.06 1.534-.384 0-.555-.202-.555-.646 0-.878.828-1.666 1.393-1.312zM71.864 19.301c-.061.242-.262 1.02-.444 1.726l-.343 1.292.838-.061.525-2.12.182.707c.404 1.625.303 1.464.909 1.464h.535l.424-1.645c.232-.898.414-1.676.414-1.716 0-.05-.172-.071-.374-.05l-.384.03-.273 1.009c-.141.555-.273 1.03-.283 1.06s-.141-.424-.293-1.009l-.273-1.06-1.04-.061-.121.434zM75.205 19.139c-.182.464-.131.545.293.545h.394l-.293 1.131a48.416 48.416 0 0 1-.353 1.312c-.05.151.01.182.404.182.515 0 .404.202.898-1.666l.242-.909.404-.03c.343-.02.424-.071.474-.273.03-.131.091-.303.121-.394.05-.141-.091-.162-1.211-.162h-1.272l-.101.262zM78.072 19.15c-.04.162-.242.929-.444 1.726l-.363 1.444.919-.061.363-1.413c.202-.777.394-1.534.434-1.696.061-.262.05-.273-.394-.273-.404 0-.454.03-.515.273zM79.152 20.543c-.222.909-.414 1.686-.414 1.716s.515.05 1.151.05c1.1 0 1.151-.01 1.211-.232.121-.454.091-.474-.596-.474-.676 0-.747-.05-.596-.444.05-.121.202-.162.596-.162.585 0 .596-.01.697-.434.061-.273.061-.273-.495-.273-.575 0-.596-.01-.495-.384.061-.202.121-.222.757-.222.656 0 .707-.02.797-.262.212-.535.192-.545-1.05-.545h-1.151l-.414 1.666zM82.281 19.25c-.303 1.141-.717 2.857-.717 2.948 0 .061.182.111.404.111.384 0 .404-.01.505-.434.061-.232.172-.626.242-.878l.121-.454.141.878.131.888h.495c.262 0 .485-.02.485-.04 0-.03-.071-.353-.162-.737-.131-.555-.131-.686-.02-.727.071-.02.283-.192.464-.373.303-.303.333-.384.303-.818-.04-.626-.242-.737-1.413-.737h-.878l-.101.373zm1.343.394c.192.071.212.454.04.626-.071.071-.273.121-.464.121-.333 0-.333-.01-.273-.333.04-.172.091-.353.121-.404.05-.091.353-.091.575-.01zM85.37 18.948c-.05.081-.878 3.22-.878 3.321 0 .02.525.04 1.161.04h1.151l.091-.333.081-.323-.686-.03c-.697-.03-.777-.081-.626-.464.05-.121.202-.162.646-.162.515 0 .585-.02.646-.232.111-.434.081-.474-.424-.474-.575 0-.616-.02-.545-.353.04-.242.081-.252.737-.252.737 0 .898-.111.898-.596 0-.202-.061-.212-1.1-.212-.616 0-1.131.03-1.151.071zM88.409 19.038c-.363.192-.626.686-.535 1.03.03.141.202.444.374.686.444.616.363.797-.343.787-.555-.01-.565 0-.626.293-.03.162-.061.333-.061.384 0 .141 1.08.222 1.454.091.828-.273.979-.979.404-1.827-.454-.656-.394-.858.273-.838.242.01.474-.04.515-.101.131-.192.091-.545-.081-.606-.293-.111-1.1-.05-1.373.101zM39.904 23.288c9.085.02 23.965.02 33.06 0 9.085-.01 1.645-.02-16.535-.02s-25.62.01-16.525.02zM24.227 24.086c-.141.141-.474.373-.737.515-.414.202-.474.262-.363.394.121.151.242.151.626-.01.131-.061.162-.03.111.091-.04.111-.192.162-.505.162-.404 0-.444.02-.444.252 0 .222.04.252.394.252s.384.02.333.252c-.04.212-.101.252-.424.252-.293 0-.394.04-.434.202-.05.202 0 .202 2.554.202 2.281 0 2.614-.02 2.665-.162.091-.242.091-.242-.303-.242-.293 0-.353-.03-.303-.162.03-.091.061-.202.061-.252s.202-.091.454-.091c.414 0 .454-.02.454-.252 0-.222-.04-.252-.363-.252-.313 0-.353-.03-.323-.232.02-.172.111-.232.363-.252.242-.02.323-.081.323-.232 0-.182-.091-.192-1.787-.192-1.767 0-1.777 0-1.595-.202.182-.192.172-.202-.03-.202-.111 0-.273-.02-.343-.05-.081-.03-.252.061-.384.212zm.767.807c-.03.091-.061.202-.061.252s-.111.091-.252.091c-.141 0-.252-.04-.252-.091 0-.252.151-.414.373-.414.192 0 .242.04.192.162zm1.05-.07c0 .242-.141.414-.353.414-.182 0-.212-.04-.172-.252.03-.182.111-.252.283-.252.131 0 .242.04.242.091zm1.03.161c-.05.313-.525.373-.525.071 0-.242.091-.323.353-.323.182 0 .212.04.172.252zm-2.362.979c-.04.303-.485.394-.485.101 0-.242.081-.323.323-.323.141 0 .192.061.162.222zm1.09-.06c-.03.091-.061.202-.061.252s-.111.091-.252.091c-.141 0-.252-.04-.252-.091 0-.252.151-.414.373-.414.192 0 .242.04.192.162zm1.03.06c-.02.172-.111.242-.323.262-.232.03-.283 0-.222-.131.03-.091.061-.212.061-.262s.121-.091.262-.091c.212 0 .252.04.222.222zM64.363 24.146c-.03.071-.071.252-.101.404-.061.262-.101.283-.515.283-.474 0-.565-.091-.303-.303.202-.172.101-.303-.232-.303-.202 0-.333.081-.454.293-.172.303-.818.919-1.141 1.1-.192.111-.182.111.01.262.273.212.262.212.787-.242.424-.373.495-.404 1.07-.404h.616l-.061.273c-.04.162-.091.313-.131.353-.03.04-.424.081-.868.101-.676.03-.808.061-.838.202-.03.162.061.182.777.182.454 0 .818.03.818.071 0 .05-.05.252-.111.464l-.101.384-1.171-.02c-1.12-.01-1.181 0-1.262.202l-.071.212h2.715c2.655 0 2.726 0 2.726-.202 0-.192-.071-.202-1.11-.202-.606 0-1.11-.03-1.11-.081 0-.04.05-.242.111-.454l.101-.373h.888c.808 0 .898-.02.949-.202.05-.192 0-.202-.848-.202h-.898l.061-.283c.04-.151.091-.303.131-.343.03-.04.515-.091 1.07-.101.868-.03 1.009-.05 1.04-.212.03-.151-.071-.172-.989-.172h-1.03l.061-.242c.03-.131.091-.313.121-.404.05-.131-.01-.162-.303-.162-.212 0-.384.05-.404.121zM52.23 24.934l-.202.808h1.292c.797 0 1.292-.04 1.292-.101s-.05-.101-.111-.101c-.05 0-.081-.04-.04-.091.03-.061-.03-.141-.121-.202-.161-.091-.141-.101.101-.111.151 0 .273-.05.273-.101 0-.061-.131-.101-.303-.101-.161 0-.303-.05-.303-.111s.121-.091.273-.071c.141.02.283-.02.303-.091.03-.081-.131-.131-.495-.162l-.535-.03.636-.02c.485-.02.626-.05.626-.172 0-.131-.202-.151-1.242-.151h-1.232l-.212.808zm.868-.303c-.172.141-.202.202-.101.212.101 0 .111.02.03.061-.212.081-.151.232.101.242.202.01.192.02-.061.111-.151.05-.252.141-.212.192.03.05 0 .091-.05.091-.141 0-.141-.252 0-.737.081-.283.151-.373.323-.373.222 0 .222.01-.03.202zm.505.202c0 .05-.071.101-.161.101-.081 0-.121-.05-.091-.101a.19.19 0 0 1 .161-.101c.05 0 .091.04.091.101zm.363.555c.182.131.161.141-.262.141s-.444-.01-.262-.141c.111-.081.232-.151.262-.151s.151.071.262.151z"/><path d="M55.208 24.419c-.384.384-.444.646-.161.767.293.131.252.293-.081.333-.212.03-.252.071-.192.242.061.192.03.202-1.464.162-1.393-.03-1.524-.02-1.524.141s.121.182.939.202c.898.02.898.02.202.05l-.727.04-.111.424c-.061.232-.151.555-.202.717a2.584 2.584 0 0 0-.101.323c0 .091.596.03.656-.061.04-.061.707-.101 1.676-.101.999 0 1.605.04 1.605.101 0 .05.131.101.283.101.273 0 .303-.04.495-.757l.202-.747-.767-.04c-.686-.03-.656-.03.273-.05 1.02-.02 1.04-.03 1.02-.252a.65.65 0 0 1 .04-.353c.061-.091-.01-.121-.273-.121-.464 0-.525-.121-.151-.293.172-.071.283-.182.262-.252-.02-.061.091-.162.252-.232.151-.071.283-.172.283-.232 0-.151-.333-.262-.384-.121-.02.071-.131.121-.242.121-.151 0-.192-.05-.151-.202.05-.192 0-.202-.666-.192-.636.01-.757.05-.989.283zm1.15.212c.05.182 0 .202-.454.202h-.505l.232-.202c.313-.262.656-.262.727 0zm-.03.545c0 .091-.394.131-.515.05-.101-.061-.04-.091.192-.091.172 0 .323.02.323.04zm.353.676c.121.05-.192.081-.797.081-1.06.01-1.161-.03-.505-.182.394-.091.929-.05 1.302.101zm-2.14.465a.536.536 0 0 1-.252 0c-.071-.03-.02-.05.121-.05s.192.02.131.05zm-1.292.333c-.03.05-.151.101-.273.101-.172 0-.182.02-.081.151.101.121.101.151-.04.151-.161 0-.222-.303-.091-.434.101-.111.555-.081.485.03zm1.292.101c.04.172.131.202.545.202.575 0 .878-.141.636-.303-.131-.081-.121-.101.03-.101.131 0 .182.061.151.222-.03.222-.071.232-1.292.262l-1.262.02.404-.252c.495-.303.717-.313.787-.05zm.879-.101c0 .05-.071.101-.151.101s-.151-.05-.151-.101c0-.061.071-.101.151-.101s.151.04.151.101zm-.374.676c-.464.02-1.211.02-1.666 0-.464-.01-.091-.03.828-.03s1.292.02.838.03zM32.596 25.963l-.444 1.746h5.209l.091-.353c.05-.192.242-.979.434-1.746l.353-1.383H33.04l-.444 1.736zm3.876-1.231c.04.151 0 .202-.151.202-.141 0-.182-.05-.141-.151.04-.111-.02-.151-.242-.151-.202 0-.303.05-.303.151 0 .121-.172.151-.949.151-.747 0-.959.03-1.009.151-.04.131.091.151.898.151h.959v.596c0 .384-.05.636-.141.707-.091.081-.151.081-.182.02-.02-.071-.373-.091-1.009-.04-.888.05-.989.081-.989.252 0 .182.05.192.656.131.565-.061.697-.05.868.111.182.172.212.172.555.01.323-.162.373-.162.575-.02.303.212.575.192.848-.071.232-.212.293-.151.172.162-.05.141-.333.162-2.029.162-1.817 0-1.958-.01-1.908-.182.03-.091.172-.646.313-1.232s.283-1.12.303-1.191c.03-.091.414-.121 1.454-.121 1.312 0 1.403.01 1.454.202zm.979-.131c0 .04-.101.515-.222 1.06-.202.898-.232.969-.414.878-.131-.071-.232-.071-.323.01-.081.071-.192.091-.252.05s.061-.252.313-.535c.394-.454.404-.474.192-.565-.182-.081-.262-.05-.464.202l-.242.293.02-.353c.03-.353.03-.353.555-.384.333-.02.535-.081.575-.172.03-.081 0-.151-.071-.151s-.131-.091-.141-.202c-.01-.151.04-.202.232-.202.131 0 .242.03.242.071z"/><path d="M33.777 25.519c-.02.04-.071.242-.111.454l-.071.373h.757c.737 0 .757-.01.818-.283.04-.151.091-.353.121-.454.05-.151-.03-.172-.707-.172-.414 0-.777.03-.808.081zm.949.374c0 .091-.091.151-.252.151s-.252-.061-.252-.151c0-.091.091-.151.252-.151s.252.061.252.151zM42.842 25.035l-.202.808h.555c.485.01.535.02.363.121-.111.071-.535.222-.929.333-.697.202-.727.222-.596.404.141.192.151.192.828-.02.373-.131.707-.212.727-.192.02.03-.04.162-.131.293-.161.252-.808.575-1.151.575-.252 0-.323.101-.212.313.101.172.131.172.636.02.888-.262 1.333-.616 1.524-1.221.061-.172.03-.222-.111-.222-.131 0-.111-.05.121-.202.384-.252.878-.262 1.1-.01.101.101.131.212.081.222-.05.02-.192.373-.303.777l-.192.737.353-.03c.353-.03.363-.04.495-.656l.141-.616.596.212.606.222.212-.222.212-.212-.535-.162a4.817 4.817 0 0 1-.797-.313c-.242-.141-.232-.141.323-.151.626 0 .575.05.787-.808.061-.252.131-.535.161-.636.05-.162-.101-.172-2.201-.172h-2.251l-.212.808zm1.978-.354c0 .121-.131.151-.606.151s-.606-.03-.606-.151.131-.151.606-.151.606.03.606.151zm1.918 0c0 .121-.141.151-.656.151-.606 0-.757-.061-.586-.232.03-.04.333-.071.656-.071.454 0 .586.03.586.151zm-2.079.707c-.05.111-.222.151-.656.151-.464 0-.596-.03-.596-.151s.141-.151.656-.151c.535 0 .636.03.596.151zm1.958-.03c-.03.081-.283.141-.666.162-.515.02-.626 0-.626-.131 0-.121.131-.151.666-.151.485 0 .656.03.626.121zM22.895 27.144l-.464.384.232.131c.222.121.283.101.707-.242.434-.353.565-.565.363-.565-.05 0-.151-.02-.232-.04-.071-.03-.343.121-.606.333zM25.701 26.832c-.273.03-.283.05-.222.454.081.505.081.495.404.414.202-.05.262-.121.252-.333-.01-.434-.111-.565-.434-.535zM26.862 26.842c-.111.071-.101.141.081.394.111.172.212.353.212.424s.081.091.232.04c.474-.141.485-.182.222-.575-.252-.373-.474-.454-.747-.283zM24.227 26.993c0 .071-.03.283-.061.454-.061.293-.05.313.242.313.323 0 .424-.141.424-.616 0-.262-.04-.293-.303-.293-.192 0-.303.05-.303.141z"/></symbol><symbol id="icon-image6" viewBox="0 0 96 32" fill="#fff"><path d="M9.227-.053H31.84v22.72H9.227v-9.28h4.053v5.227H27.787V4.107H13.28v5.12a19.334 19.334 0 0 1-4.053 0v-9.28zm4.053 13.44h5.227v5.227-5.227H13.28z"/><path d="M-.053 9.227h9.28c1.351.142 2.702.142 4.053 0h9.28v9.387h-4.053v-5.227H4v14.507h14.507v-5.013h4.053v9.067H-.053V9.228zm13.333 4.16h5.227v5.227-5.227H13.28zM73.333 11.147c-2.478.595-3.794 2.178-3.947 4.747.322 3.007 1.993 4.554 5.013 4.64 1.959.026 3.435-.792 4.427-2.453.724-1.729.617-3.4-.32-5.013-1.365-1.575-3.089-2.215-5.173-1.92zm.427 2.346c1.758-.17 2.789.612 3.093 2.347-.505 2.155-1.785 2.812-3.84 1.973-1.422-1.316-1.422-2.631 0-3.947l.747-.373zM36.533 11.467v8.96h2.453c-.018-1.067 0-2.134.053-3.2l1.973 3.093c.996.142 1.991.142 2.987 0a128.422 128.422 0 0 0-2.667-3.573c.261-.077.51-.184.747-.32.95-.75 1.287-1.728 1.013-2.933-.177-.906-.692-1.528-1.547-1.867a41.905 41.905 0 0 0-5.013-.16zm2.454 1.813c.604-.065 1.12.112 1.547.533.261.515.172.959-.267 1.333a3.74 3.74 0 0 1-1.28.267V13.28zM49.653 11.467a454.161 454.161 0 0 1-3.307 8.853c.851.124 1.704.142 2.56.053.188-.474.366-.954.533-1.44a12.072 12.072 0 0 1 3.2 0c.199.454.377.916.533 1.387.85.106 1.704.142 2.56.107l-3.307-8.96h-2.773zm1.28 2.986c.133.008.222.079.267.213.235.759.502 1.505.8 2.24a5.811 5.811 0 0 1-1.92.053c.359-.81.643-1.645.853-2.507zM59.04 11.467c2.454-.036 4.908 0 7.36.107a211.632 211.632 0 0 1-4.053 6.667c1.208.053 2.417.071 3.627.053v2.133c-2.561.036-5.121 0-7.68-.107l4.053-6.72c-1.1-.107-2.202-.142-3.307-.107v-2.027zM84.107 11.467c.845-.034 1.68.002 2.507.107a62.059 62.059 0 0 0 1.653 4.267c.58-1.409 1.131-2.832 1.653-4.267a9.215 9.215 0 0 1 2.4-.053c.572 2.954 1.07 5.922 1.493 8.907h-2.347a60.04 60.04 0 0 0-.8-4.8l-1.92 4.693a1.39 1.39 0 0 1-1.067 0 360.64 360.64 0 0 0-1.867-4.693 77.692 77.692 0 0 0-.747 4.8c-.821.035-1.639 0-2.453-.107a230.207 230.207 0 0 0 1.493-8.853z"/><path d="M18.507 22.667h4.053v.213h-4.053v-.213z"/></symbol><symbol id="icon-image7" viewBox="0 0 32 32" fill="#fff"><path d="M33.085 18.454c0 .55-.167.957-.461 1.198-.373.299-.815.417-1.271.417-.55 0-1.104-.191-1.561-.506l.496-.933c.373.324.697.461 1.021.461.329 0 .569-.172.569-.447 0-.329-.447-.432-.702-.506-.589-.186-1.207-.294-1.207-1.256 0-.908.643-1.492 1.531-1.492.442 0 .982.137 1.399.363l-.461.898a1.224 1.224 0 0 0-.771-.294c-.26 0-.496.152-.496.373 0 .201.177.329.609.452.226.064.432.123.609.211.432.206.697.515.697 1.06zm-20.241 2.645h1.232v4.726h-1.232v-1.939h-1.777v1.939H9.835v-4.726h1.232v1.826h1.777v-1.826zm-.442-10.306h.015l.55 1.644h-1.124l.559-1.644zm-.927 2.67h1.855l.339.898h1.438l-1.953-5.168h-1.472l-1.993 5.168h1.428l.358-.898zm.073 4.829.481-1.413h.01l.471 1.413h-.962zm-.142-2.788-1.713 4.447h1.227l.309-.771h1.595l.29.771h1.237l-1.679-4.447h-1.266zm6.071 5.595h1.232v2.714c0 .545-.049.908-.206 1.222-.275.55-.923.918-1.86.918-.496 0-1.139-.108-1.571-.525-.378-.368-.496-.815-.496-1.61v-2.714h1.227v2.532c0 .609.069 1.242.834 1.242.756 0 .834-.613.834-1.237v-2.542h.005zm-2.36-7.965a2.66 2.66 0 0 1-.339-1.35c0-1.61 1.335-2.729 2.734-2.729.432 0 .825.098 1.232.26v1.61c-.27-.363-.717-.569-1.183-.569-.795 0-1.379.604-1.379 1.433 0 .844.589 1.404 1.404 1.404.432 0 .864-.196 1.163-.55v1.61c-.692.211-.874.241-1.188.241-.986.005-1.963-.535-2.444-1.36zm13.212 2.37h1.158v4.447h-1.158l-2.12-2.724h-.01v2.724h-1.158v-4.447h1.158l2.12 2.719h.01v-2.719zm-1.458 7.681h2.444c-.005.584-.074 1.021-.186 1.315-.353.908-1.124 1.477-2.253 1.477-1.477 0-2.528-.991-2.528-2.493 0-1.556 1.055-2.547 2.572-2.547.977 0 1.728.437 2.135 1.325l-1.168.491c-.182-.476-.555-.751-1.026-.751-.869 0-1.232.854-1.232 1.492 0 .628.363 1.477 1.252 1.477.579 0 .942-.314.991-.82h-1.006c.005 0 .005-.967.005-.967zm-4.162-2.086h1.232v4.726h-1.232l-2.258-2.896h-.015v2.896h-1.232v-4.726h1.232l2.258 2.891h.015v-2.891zm7.014 0h2.694v1.041h-1.463v.79h1.389v1.041h-1.389v.815h1.463v1.041h-2.694v-4.726zm-6.513-6.738h1.345V9.193H23.21v5.168zm4.618-4.035c.79 0 1.472.638 1.472 1.364 0 .864-.638 1.541-1.463 1.541-.81 0-1.463-.658-1.463-1.541-.005-.741.697-1.364 1.453-1.364zm.049 4.207c1.458 0 2.822-1.04 2.822-2.852 0-1.585-1.394-2.66-2.866-2.66-.452 0-1.094.098-1.723.535a2.559 2.559 0 0 0-1.139 2.184c0 1.418 1.031 2.793 2.906 2.793zm4.589-.172h-1.345V9.193h1.345l2.469 3.161h.015V9.193h1.345v5.168H34.95l-2.469-3.166h-.015v3.166zm1.743 5.59v-3.465h-.957v-.977h3.072v.977h-.957v3.465h-1.158zm-10.764 0h1.158v-4.447h-1.158v4.447zm-6.944-2.483h2.297c-.005.55-.069.962-.177 1.237-.329.854-1.06 1.389-2.115 1.389-1.389 0-2.375-.933-2.375-2.346 0-1.463.991-2.395 2.42-2.395.918 0 1.625.412 2.007 1.247l-1.099.461c-.172-.447-.52-.707-.962-.707-.815 0-1.158.8-1.158 1.404 0 .589.344 1.389 1.178 1.389.545 0 .888-.294.933-.771h-.947v-.908zm3.823-7.137H19.21V9.192h3.573v1.139h-1.114v4.029h-1.345v-4.029zm13.899 12.884h-.108v-1.178h.108c.609 0 .869.186.869.589s-.265.594-.869.589zm1.114.672c.643-.113 1.036-.653 1.036-1.335 0-.977-.677-1.453-1.629-1.453h-1.86v4.726h1.232v-1.816h.015l1.163 1.816h1.531l-1.487-1.939zm-14.905-5.595.481-1.413h.01l.471 1.413h-.962zm-.142-2.788-1.713 4.447h1.227l.309-.771h1.595l.29.771h1.237l-1.679-4.447H20.29zM1.566 25.826c-1.615 0-3.004-1.31-2.92-2.994.108-2.233 2.091-2.557 2.773-3.553a.171.171 0 0 1 .24-.054c.025.015.039.034.054.054.682 1.001 2.665 1.32 2.773 3.553.083 1.679-1.306 2.994-2.92 2.994zm0-8.535c-3.023 0-5.472 2.444-5.472 5.458s2.449 5.458 5.472 5.458c3.018 0 5.472-2.444 5.472-5.458s-2.449-5.458-5.472-5.458zM7.858 7.647l-.005-.079-.079.01a6.77 6.77 0 0 0-3.691 1.629c.005-.108.01-.216.01-.319 0-2.052-.903-3.941-2.479-5.183l-.049-.039-.049.039C-.059 4.952-.963 6.836-.963 8.888c0 .103.005.211.01.319a6.76 6.76 0 0 0-3.691-1.629l-.079-.01-.005.079c0 .069-.005.137-.005.211 0 2.209 1.124 4.162 2.871 5.409.407.29.844.594 1.276.874.829.535 1.61 1.04 1.929 1.6a.246.246 0 0 0 .334.108.261.261 0 0 0 .108-.108c.314-.559 1.099-1.065 1.929-1.6.432-.28.859-.574 1.276-.874 1.747-1.247 2.871-3.205 2.871-5.409 0-.069 0-.142-.005-.211z"/></symbol><symbol id="icon-image8" viewBox="0 0 79 32" fill="#fff"><path d="M23.331.397c-.052 0-.091-.038-.091-.084s.04-.084.091-.084h55.382v31.246C66.007 14.8 46.149 3.188 23.331.398z"/><path d="M69.943 18.743c.454-5.925.491-9.043 1.519-9.884.781-.64 2.493-.965 5.853-1.184-3.677-.239-4.889-.429-5.928-1.27-1.004-.812-1.199-1.926-1.443-5.126-.241 3.139-.368 4.155-1.375 5.074-1.072.978-2.124 1.07-5.996 1.322 3.552.232 4.897.438 5.853 1.221 1.116.913 1.061 3.866 1.519 9.847zM15.125 18.494v5.26h1.289v-4.28c.433-.421.743-.28 1.599.516l.521-1.314a2.323 2.323 0 0 0-1.078-.266c-.485 0-.844.266-1.018.503l-.062.085-.012-.014.012-.489h-1.252zm5.219-2.784h-1.289v8.044h1.289V15.71zM9.063 21.125c0 1.469.966 2.685 2.529 2.685 1.561 0 2.529-1.216 2.529-2.685s-.968-2.687-2.529-2.687c-1.563 0-2.529 1.218-2.529 2.687zm26.999-2.631h-1.289v5.26h1.289v-5.26zm5.529 0v2.953c0 1.51.571 2.476 3.273 2.476 3.161 0 4.277-1.372 4.277-2.883 0-1.482-1.054-2.644-2.505-2.644-1.587 0-2.491 1.191-2.491 2.394 0 .867.471 1.748 1.487 2.223l.309-.406a2.8 2.8 0 0 1-.569-1.721c0-1.05.569-1.944 1.238-1.944.844 0 1.227 1.063 1.227 2.167 0 1.106-.346 2.351-2.641 2.351-1.821 0-2.318-.419-2.318-1.665v-3.302h-1.289zm.67-2.379c-.385 0-.682.336-.682.77 0 .433.297.768.682.768.383 0 .681-.336.681-.768 0-.434-.297-.77-.681-.77zm-6.682 0c-.385 0-.682.336-.682.77 0 .433.297.768.682.768s.682-.336.682-.768c0-.434-.297-.77-.682-.77zm1.525 3.82c-.124 2 2.479 1.525 2.405 2.742-.038.489-.409.658-.806.644-.645-.055-1.042-.476-1.389-.937l-.383.964c.521.336 1.09.504 1.587.545 1.116.085 2.058-.462 2.12-1.678.112-1.888-2.579-1.651-2.529-2.615.024-.421.445-.63.88-.602.445.042.793.322 1.178.712l.347-.867a3.995 3.995 0 0 0-1.351-.392c-1.203-.084-2.008.631-2.058 1.484zm-13.427 3.931c.608 0 1.104-.239 1.551-.63l.024.015v.503h1.191V15.71h-1.289v3.203c-.361-.307-.906-.503-1.463-.503-.707 0-2.393.489-2.393 2.798 0 1.721 1.339 2.658 2.379 2.658zm7.575-.112h.547l2.727-7.064h-.707l-1.896 4.967-1.872-4.967h-1.563l2.764 7.064zm23.666 0v-2.895c0-1.959-1.327-2.449-2.108-2.449-.559 0-1.03.237-1.501.602l-.024-.014v-.504h-1.19v5.26h1.289v-4.239c.383-.376.756-.532 1.078-.532.682 0 1.153.743 1.153 1.554v3.217h1.301zM5.704 17.361h-.732l-1.463 4.266-1.561-4.911H.447l2.319 7.023h.707l1.499-4.336 1.487 4.336h.708l2.317-7.008h-.707l-1.625 4.895-1.449-4.266zm7.053 3.764c0 1.217-.359 2.183-1.166 2.183s-1.166-.966-1.166-2.183c0-1.218.359-2.183 1.166-2.183s1.166.964 1.166 2.183zm12.397-1.581v3.176c-.335.322-.645.559-1.116.559-.571 0-1.315-.545-1.315-2.126 0-1.707 1.178-2.938 2.431-1.609z"/></symbol><symbol id="icon-image9" viewBox="0 0 206 32" fill="#fff"><path d="M46.916 6.608a3.932 3.932 0 0 1-1.942.483c-2.019 0-3.159-1.342-3.159-3.207S43.129.571 45.118.571c.686 0 1.265.145 1.633.319v.947a3.33 3.33 0 0 0-1.613-.405c-1.43 0-2.241 1.101-2.241 2.425 0 1.4.841 2.376 2.193 2.376.618 0 1.101-.174 1.545-.425l.28.802.001-.001zM48.472.628h1.015v2.687h3.188V.628h1.015v6.366h-1.015v-2.82h-3.188v2.82h-1.015V.628zM57.458.6h.782l2.521 6.395H59.67l-.628-1.633h-2.357l-.608 1.633h-1.062L57.459.6h-.001zm1.275 3.931-.522-1.449a94.46 94.46 0 0 1-.338-1.025h-.019a10.66 10.66 0 0 1-.348 1.024l-.522 1.449h1.75zM62.086.628h1.594c.618 0 1.052.107 1.381.291.628.319.88.878.88 1.497 0 .86-.493 1.42-1.256 1.662v.019c.193.107.444.454.782 1.024l1.091 1.874h-1.169l-.976-1.691c-.309-.55-.541-.821-.715-.859h-.599v2.55h-1.015V.629l.001-.001zm1.555 2.975c.319 0 .551-.057.763-.174.29-.174.483-.483.483-.909 0-.358-.135-.667-.415-.841-.174-.135-.425-.221-.821-.221H63.1v2.144h.541v.001zM68.048.628h1.015v6.366h-1.015V.628zM72.28 1.488h-1.845v-.86h4.879l-.29.86h-1.729v5.507H72.28V1.488h-.001zM78 4.464 75.855.629h1.111l1.555 2.918h.019L80.057.629h1.101l-2.135 3.855v2.511h-1.025V4.464h.001zM85.024.628h3.391l-.29.86h-2.087v1.836h2.048v.859h-2.048v2.812h-1.015V.628zM89.691 3.835c0-1.932 1.324-3.264 3.178-3.264s3.168 1.353 3.168 3.264c0 1.911-1.353 3.256-3.168 3.256s-3.178-1.295-3.178-3.256zm5.275 0c0-1.439-.792-2.405-2.096-2.405s-2.096.917-2.096 2.405c0 1.488.841 2.396 2.096 2.396s2.096-.908 2.096-2.396zM97.933 5.816c-.145-.319-.213-.715-.213-1.16V.627h1.015v3.952c0 .329.049.628.155.86.223.512.686.792 1.381.792s1.15-.28 1.371-.792c.116-.232.164-.532.164-.88V.627h1.015v4.029c0 .454-.078.851-.223 1.179-.367.831-1.179 1.256-2.328 1.256s-1.981-.425-2.337-1.275zM109.42 6.995l-2.859-3.768c-.319-.405-.561-.753-.782-1.054h-.019c.019.28.029.608.029 1.025v3.796h-1.015V.628h.995l2.753 3.623c.329.425.579.773.782 1.082h.019c-.01-.338-.019-.696-.019-1.091V.628h1.014v6.366h-.898v.001zM112.33.628h1.826c2.261 0 3.448 1.285 3.448 3.14s-1.285 3.227-3.526 3.227h-1.748V.628zm1.758 5.507c1.787 0 2.435-1.082 2.435-2.357 0-1.372-.802-2.29-2.454-2.29h-.724v4.647h.743zM121.083.6h.782l2.521 6.395h-1.091l-.628-1.633h-2.357l-.608 1.633h-1.062L121.084.6h-.001zm1.275 3.931-.522-1.449a94.46 94.46 0 0 1-.338-1.025h-.019c-.057.223-.155.512-.348 1.024l-.521 1.449h1.748zM126.92 1.488h-1.846v-.86h4.878l-.29.86h-1.729v5.507h-1.014V1.488zM131.19.628h1.014v6.366h-1.014V.628zM133.925 3.835c0-1.932 1.324-3.264 3.178-3.264s3.168 1.353 3.168 3.264c0 1.911-1.353 3.256-3.168 3.256s-3.178-1.295-3.178-3.256zm5.275 0c0-1.439-.792-2.405-2.096-2.405s-2.096.917-2.096 2.405c0 1.488.841 2.396 2.096 2.396s2.096-.908 2.096-2.396zM146.649 6.995l-2.859-3.768c-.319-.405-.561-.753-.782-1.054h-.019c.019.28.029.608.029 1.025v3.796h-1.015V.628h.995l2.753 3.623c.329.425.579.773.782 1.082h.019c-.01-.338-.019-.696-.019-1.091V.628h1.014v6.366h-.898v.001zM42.217 29.03c.751.507 1.855.994 3.181.994 1.458 0 2.783-.574 2.783-2.143 0-3.291-6.361-2.893-6.361-7.268 0-2.099 1.612-3.821 4.417-3.821 1.37 0 2.584.354 3.291.707v1.79a6.924 6.924 0 0 0-3.224-.818c-1.214 0-2.43.509-2.43 1.944 0 3.092 6.383 2.761 6.383 7.31 0 2.474-2.01 3.976-4.837 3.976-1.679 0-3.07-.509-4.02-1.149l.818-1.523v-.001zM53.809 16.926h7.355l-.596 1.679h-4.793v4.616h4.749v1.678h-4.749v4.903h5.478v1.679h-7.444V16.925zM64.64 16.926h3.291c1.48 0 2.474.265 3.224.707 1.303.729 1.856 1.988 1.856 3.313 0 2.01-1.105 3.269-2.915 3.821v.045c.442.243.994 1.038 1.767 2.341l2.584 4.329H72.15l-2.385-4.042c-.685-1.214-1.237-1.877-1.657-1.988h-1.501v6.03h-1.966V16.926zm3.269 6.913c.773 0 1.348-.155 1.877-.464.729-.398 1.192-1.171 1.192-2.231 0-.84-.309-1.546-.927-2.01-.442-.332-1.105-.596-2.121-.596h-1.325v5.301h1.303zM77.366 16.926h1.966v6.272h7.642v-6.272h1.943v14.556h-1.943v-6.604h-7.642v6.604h-1.966V16.926zM93.688 16.926h1.966v14.556h-1.966V16.926zM119.474 16.926h2.982c1.414 0 2.408.221 3.202.663 1.37.751 2.186 2.121 2.186 3.998 0 1.679-.729 3.291-2.562 4.108-.751.331-1.701.53-3.004.53h-.84v5.256h-1.966V16.925h.001zm2.938 7.686c.883 0 1.525-.155 1.988-.397.95-.487 1.392-1.392 1.392-2.628 0-1.149-.442-2.076-1.303-2.584-.487-.287-1.127-.464-2.054-.464h-.994v6.074h.972l-.001-.001zM131.014 16.926h3.291c1.48 0 2.474.265 3.224.707 1.303.729 1.856 1.988 1.856 3.313 0 2.01-1.104 3.269-2.915 3.821v.045c.442.243.994 1.038 1.767 2.341l2.584 4.329h-2.297l-2.386-4.042c-.684-1.214-1.236-1.877-1.656-1.988h-1.503v6.03h-1.966V16.926h.001zm3.269 6.913c.774 0 1.347-.155 1.877-.464.729-.398 1.192-1.171 1.192-2.231 0-.84-.309-1.546-.928-2.01-.442-.332-1.104-.596-2.121-.596h-1.325v5.301h1.304zM146.354 25.672l-4.86-8.747h2.165l3.666 6.913h.045l3.6-6.913h2.143l-4.815 8.791v5.765h-1.944v-5.809zM103.634 25.672l-4.86-8.747h2.165l3.666 6.913h.045l3.6-6.913h2.143l-4.815 8.791v5.765h-1.944v-5.809zM159.377 18.604h-4.196v-1.679h10.779l-.596 1.679h-4.02v12.877h-1.966V18.604zM168.954 28.698c-.265-.707-.398-1.546-.398-2.495v-9.276h1.966v9.122c0 .751.089 1.436.332 1.988.507 1.281 1.612 1.988 3.313 1.988s2.828-.707 3.335-1.988c.22-.552.309-1.237.309-2.054v-9.056h1.966v9.276c0 .972-.133 1.834-.442 2.541-.774 1.943-2.562 2.96-5.169 2.96s-4.44-1.038-5.212-3.004l-.001-.001zM184.049 16.926h1.966v12.877h5.323v1.679h-7.289V16.926zM198.989 16.881h1.458l5.654 14.6h-2.121l-1.414-3.821h-5.654l-1.392 3.821h-2.076l5.545-14.6zm2.96 9.167-1.369-3.799c-.42-1.237-.641-1.899-.818-2.43h-.044c-.155.529-.398 1.214-.84 2.452l-1.37 3.777h4.44zM14.288.038v26.907h4.98V5.016h7.651v9.298h4.979V.038h-17.61z"/><path d="M26.919 26.945v4.979h4.979V19.293h-4.979v7.652zM26.919 14.314h-7.651v4.979h12.63v-4.979h-4.979zM4.991 26.945v-7.652h9.297v-4.979H.012v17.61h26.907v-4.979H4.991z"/></symbol><symbol id="scroll-icon-2" viewBox="0 0 32 32"><path fill="#4f2ee8" d="M15.053 17.867a1.334 1.334 0 0 0 1.894 0l6.107-6.12a1.334 1.334 0 1 1 1.894 1.88l-6.12 6.12a4.001 4.001 0 0 1-5.654 0l-6.12-6.12a1.337 1.337 0 0 1 .434-2.172 1.331 1.331 0 0 1 1.46.292l6.107 6.12z"/></symbol></defs></svg>