<svg xmlns="http://www.w3.org/2000/svg" aria-hidden="true" style="position:absolute;width:0;height:0;overflow:hidden">
  <defs>
    <symbol id="password-icon" viewBox="0 0 32 32">
      <path stroke-linecap="round" stroke-linejoin="round" stroke-width="2.667" d="M23.778 14.444V9.777c0-4.296-3.482-7.778-7.778-7.778S8.222 5.481 8.222 9.777v4.667M9.467 30h13.067c2.614 0 3.92 0 4.919-.509a4.662 4.662 0 0 0 2.039-2.039c.509-.998.509-2.305.509-4.919v-.622c0-2.614 0-3.92-.509-4.919a4.662 4.662 0 0 0-2.039-2.039c-.998-.509-2.305-.509-4.919-.509H9.467c-2.614 0-3.92 0-4.919.509a4.662 4.662 0 0 0-2.039 2.039C2 17.99 2 19.297 2 21.911v.622c0 2.614 0 3.92.509 4.919a4.662 4.662 0 0 0 2.039 2.039C5.546 30 6.853 30 9.467 30z"/>
    </symbol>
    <symbol id="email-icon" viewBox="0 0 38 32">
      <path stroke-linecap="round" stroke-linejoin="round" stroke-width="2.909" d="M35.031 26.182 23.758 16m-9.697 0L2.788 26.182M1.94 7.515l13.856 9.699c1.122.785 1.683 1.178 2.293 1.33a3.404 3.404 0 0 0 1.642 0c.61-.152 1.171-.545 2.293-1.33L35.88 7.515M10.085 29.576h17.648c2.851 0 4.277 0 5.366-.555a5.09 5.09 0 0 0 2.225-2.225c.555-1.089.555-2.515.555-5.366V10.569c0-2.851 0-4.277-.555-5.366a5.09 5.09 0 0 0-2.225-2.225c-1.089-.555-2.515-.555-5.366-.555H10.085c-2.851 0-4.277 0-5.366.555a5.09 5.09 0 0 0-2.225 2.225c-.555 1.089-.555 2.515-.555 5.366V21.43c0 2.851 0 4.277.555 5.366a5.09 5.09 0 0 0 2.225 2.225c1.089.555 2.515.555 5.366.555z"/>
    </symbol>
    <symbol id="close-icon" viewBox="0 0 32 32">
      <path stroke-linecap="round" stroke-linejoin="round" stroke-width="5.333" d="M28.444 3.556 3.555 28.445m.001-24.889 24.889 24.889"/>
    </symbol>
  </defs>
</svg>
