<svg width="20" height="20" viewBox="0 0 20 20" fill="none" xmlns="http://www.w3.org/2000/svg">
<path d="M15.8333 5.83335H13.3333V5.00002C13.3333 4.11596 12.9821 3.26812 12.357 2.643C11.7319 2.01788 10.884 1.66669 9.99999 1.66669C9.11594 1.66669 8.26809 2.01788 7.64297 2.643C7.01785 3.26812 6.66666 4.11596 6.66666 5.00002V5.83335H4.16666C3.94565 5.83335 3.73369 5.92115 3.57741 6.07743C3.42113 6.23371 3.33333 6.44567 3.33333 6.66669V15.8334C3.33333 16.4964 3.59672 17.1323 4.06556 17.6011C4.5344 18.07 5.17029 18.3334 5.83333 18.3334H14.1667C14.8297 18.3334 15.4656 18.07 15.9344 17.6011C16.4033 17.1323 16.6667 16.4964 16.6667 15.8334V6.66669C16.6667 6.44567 16.5789 6.23371 16.4226 6.07743C16.2663 5.92115 16.0543 5.83335 15.8333 5.83335ZM8.33333 5.00002C8.33333 4.55799 8.50892 4.13407 8.82148 3.82151C9.13404 3.50895 9.55796 3.33335 9.99999 3.33335C10.442 3.33335 10.8659 3.50895 11.1785 3.82151C11.4911 4.13407 11.6667 4.55799 11.6667 5.00002V5.83335H8.33333V5.00002ZM15 15.8334C15 16.0544 14.9122 16.2663 14.7559 16.4226C14.5996 16.5789 14.3877 16.6667 14.1667 16.6667H5.83333C5.61231 16.6667 5.40035 16.5789 5.24407 16.4226C5.08779 16.2663 4.99999 16.0544 4.99999 15.8334V7.50002H6.66666V8.33335C6.66666 8.55437 6.75446 8.76633 6.91074 8.92261C7.06702 9.07889 7.27898 9.16669 7.49999 9.16669C7.72101 9.16669 7.93297 9.07889 8.08925 8.92261C8.24553 8.76633 8.33333 8.55437 8.33333 8.33335V7.50002H11.6667V8.33335C11.6667 8.55437 11.7545 8.76633 11.9107 8.92261C12.067 9.07889 12.279 9.16669 12.5 9.16669C12.721 9.16669 12.933 9.07889 13.0892 8.92261C13.2455 8.76633 13.3333 8.55437 13.3333 8.33335V7.50002H15V15.8334Z" fill="#111111"/>
</svg>
