 <svg xmlns="http://www.w3.org/2000/svg" aria-hidden="true" style="position:absolute;width:0;height:0;overflow:hidden">
    <defs>
    <symbol id="scroll-up" viewBox="0 0 24 24">
<path fill="#fff" style="fill: var(--color1, #fff)" d="M3.375 14.7l8.4-8.425c0.1-0.1 0.208-0.171 0.325-0.212s0.242-0.063 0.375-0.063 0.258 0.021 0.375 0.063c0.117 0.041 0.225 0.112 0.325 0.212l8.425 8.425c0.233 0.233 0.35 0.525 0.35 0.875s-0.125 0.65-0.375 0.9c-0.25 0.25-0.542 0.375-0.875 0.375s-0.625-0.125-0.875-0.375l-7.35-7.35-7.35 7.35c-0.233 0.233-0.521 0.35-0.862 0.35s-0.638-0.125-0.888-0.375-0.375-0.542-0.375-0.875c0-0.333 0.125-0.625 0.375-0.875z"></path>
</symbol>
        <symbol id="tryzub" viewBox="0 0 20 32">
<path fill="#fff" style="fill: var(--color1, #fff)" d="M9.005 30.888c-1.738-1.262-2.991-3.156-3.414-5.351h-5.591v-23.117c2.991 1.443 5.153 4.599 5.388 7.876l0.846 6.493-0.407-0.045c-0.893 0-1.676 0.812-1.676 1.608 0 0.752 0.595 1.383 1.378 1.548l1.018 0.226c1.676-3.051 2.631-6.042 2.631-8.973 0-2.645-0.36-5.291-0.423-7.996 0-1.202 0.486-2.3 1.253-3.156 0.783 0.857 1.253 1.954 1.253 3.156 0 2.705-0.423 5.351-0.423 7.996 0 2.931 0.955 5.922 2.631 8.973l1.018-0.226c0.783-0.165 1.378-0.812 1.378-1.548 0-0.812-0.783-1.608-1.676-1.608l-0.423 0.060 0.846-6.493c0.423-3.277 2.396-6.448 5.388-7.876v23.117h-5.576c-0.423 2.179-1.613 4.148-3.414 5.351-0.423 0.286-0.783 0.631-1.018 1.097-0.219-0.466-0.579-0.812-0.987-1.112zM2.647 17.556c0.235-0.857 0.893-1.608 1.738-2.074l-0.658-5.351c-0.235-1.668-0.955-3.156-2.036-4.374v11.784h0.955v0.015zM5.466 23.929c0-0.812 0.125-1.548 0.298-2.3l-0.783-0.18c-1.143-0.346-2.036-1.203-2.334-2.3h-0.955v4.78h3.774zM9.178 23.929c0-0.977-0.783-1.834-1.801-1.954-0.172 0.631-0.298 1.263-0.298 1.954h2.099zM9.178 25.552h-1.864c0.298 1.263 0.955 2.42 1.864 3.397v-3.397zM11.809 20.547c-0.72-1.262-1.378-2.585-1.801-3.968-0.423 1.383-1.081 2.706-1.801 3.968 0.72 0.165 1.316 0.631 1.801 1.157 0.486-0.526 1.081-0.992 1.801-1.157zM12.952 23.929c0-0.691-0.125-1.323-0.297-1.954-1.018 0.12-1.801 0.977-1.801 1.954h2.099zM12.717 25.552h-1.864v3.397c0.908-0.992 1.566-2.134 1.864-3.397zM18.34 23.929v-4.78h-0.955c-0.298 1.097-1.206 1.954-2.334 2.3l-0.783 0.18c0.172 0.752 0.298 1.488 0.298 2.3h3.774zM18.34 17.556v-11.799c-1.081 1.202-1.864 2.706-2.036 4.374l-0.658 5.351c0.846 0.466 1.504 1.203 1.739 2.074h0.955z"></path>
</symbol>
        <symbol width="129px" height="32px" id="icon-image1" viewBox="0 0 149 32" fill="white">
            <path d="M40.712 17.783c-1.445-0.642-2.305-0.89-3.151-0.89-0.89 0-1.459 0.321-1.459 0.817 0 1.503 5.063 1.080 5.063 4.552 0 1.912-1.605 3.020-3.822 3.020-1.736 0-2.597-0.452-3.589-0.963v-2.145c1.43 0.949 2.305 1.284 3.4 1.284 0.948 0 1.459-0.335 1.459-0.919 0-1.635-5.063-1.036-5.063-4.611 0-1.722 1.489-2.859 3.794-2.859 1.109 0 2.115 0.233 3.37 0.774zM48.384 23.867c-0.219 0-0.351-0.132-0.351-0.467v-3.064c0-1.474-1.153-2.042-2.845-2.042-1.065 0-2.042 0.277-2.917 0.817v1.722c0.671-0.686 1.633-1.123 2.48-1.123 0.919 0 1.211 0.496 1.167 1.123-2.815 0.875-3.997 1.197-3.997 2.801 0 0.846 0.803 1.649 1.882 1.649 0.729 0 1.4-0.204 2.218-0.759 0.146 0.541 0.481 0.759 1.182 0.759 0.569 0 1.401-0.263 1.984-0.613v-1.182c-0.496 0.351-0.656 0.38-0.802 0.38zM45.917 23.517c-0.35 0.321-0.773 0.51-1.167 0.51-0.38 0-0.685-0.321-0.685-0.714 0-0.671 0.598-0.964 1.852-1.416zM48.92 18.425h2.261l1.429 3.706 1.445-3.706h2.247l-3.093 6.858h-1.182zM58.765 22.131h4.829c0.102-2.451-1.518-3.837-3.472-3.837-2.072 0-3.545 1.458-3.545 3.516 0 2.101 1.532 3.473 3.896 3.473 0.525 0 1.794 0 3.006-0.89v-1.328c-0.993 0.716-1.649 0.963-2.495 0.963-1.328 0-2.145-0.7-2.218-1.897zM60.268 19.548c0.817 0 1.371 0.555 1.459 1.474h-2.919c0.088-0.933 0.627-1.474 1.459-1.474zM73.262 19.87h-2.451v2.772c0 0.657 0.38 1.079 1.036 1.079 0.438 0 0.845-0.102 1.415-0.393v1.532c-0.744 0.306-1.299 0.423-1.955 0.423-1.4 0-2.612-0.642-2.612-2.524v-2.888h-0.963v-0.409l2.816-3.152h0.262v2.116h2.451zM76.206 19.418h0.029c0.613-0.774 1.299-1.123 2.13-1.123 1.225 0 2.465 0.744 2.465 2.568v4.289h-2.116v-3.838c0-1.006-0.438-1.473-1.094-1.473-0.496 0-0.919 0.306-1.415 1.021v4.289h-2.116v-9.95h2.116zM84.125 22.131h4.829c0.102-2.451-1.517-3.837-3.472-3.837-2.072 0-3.545 1.458-3.545 3.516 0 2.101 1.532 3.473 3.895 3.473 0.526 0 1.795 0 3.006-0.89v-1.328c-0.992 0.716-1.648 0.963-2.495 0.963-1.328 0-2.145-0.7-2.218-1.897zM85.627 19.548c0.817 0 1.372 0.555 1.459 1.474h-2.918c0.087-0.933 0.628-1.474 1.458-1.474zM103.305 24.29c-1.386 0.714-2.437 0.992-3.91 0.992-3.866 0-5.792-2.51-5.792-5.078 0-2.655 2.174-5.135 5.981-5.135 1.386 0 2.626 0.291 3.604 0.875v2.218c-1.094-0.613-2.203-1.022-3.429-1.022-2.116 0-3.604 1.255-3.604 3.020 0 1.78 1.474 3.049 3.546 3.049 1.299 0 2.174-0.409 3.603-1.094zM106.894 19.418h0.029c0.613-0.774 1.299-1.123 2.13-1.123 1.225 0 2.466 0.744 2.466 2.568v4.289h-2.116v-3.838c0-1.006-0.438-1.473-1.094-1.473-0.496 0-0.919 0.306-1.415 1.021v4.289h-2.116v-9.95h2.116zM113.004 25.151h2.115v-6.726h-2.115zM115.221 16.236c0 0.642-0.525 1.168-1.167 1.168s-1.167-0.526-1.167-1.168 0.525-1.167 1.167-1.167 1.167 0.525 1.167 1.167zM116.666 25.151h2.115v-9.95h-2.115zM124.939 15.201v3.516c-0.57-0.278-1.138-0.423-1.751-0.423-1.926 0-3.268 1.429-3.268 3.487 0 2.013 1.342 3.502 3.151 3.502 0.715 0 1.269-0.19 1.868-0.671v0.539h2.116v-9.95zM124.939 23.313c-0.438 0.393-0.803 0.554-1.255 0.554-0.992 0-1.619-0.817-1.619-2.042 0-1.342 0.628-2.116 1.692-2.116 0.38 0 0.875 0.175 1.182 0.394zM130.67 20.351h0.029c0.627-1.4 1.328-2.057 2.144-2.057 0.423 0 0.788 0.16 1.401 0.612l-0.584 1.868c-0.554-0.351-0.919-0.496-1.255-0.496-0.773 0-1.269 0.729-1.736 1.969v2.903h-2.116v-6.727h2.116zM136.593 22.131h4.829c0.102-2.451-1.518-3.837-3.472-3.837-2.072 0-3.545 1.458-3.545 3.516 0 2.101 1.532 3.473 3.896 3.473 0.525 0 1.794 0 3.005-0.89v-1.328c-0.992 0.716-1.648 0.963-2.494 0.963-1.328 0-2.145-0.7-2.218-1.897zM138.096 19.548c0.817 0 1.371 0.555 1.458 1.474h-2.917c0.088-0.933 0.627-1.474 1.459-1.474zM144.614 19.387c0.671-0.773 1.328-1.093 2.188-1.093 1.051 0 2.451 0.598 2.451 2.583v4.275h-2.116v-4.101c0-0.948-0.452-1.342-1.050-1.342-0.526 0-0.92 0.277-1.474 1.109v4.333h-2.116v-6.726h2.116z"></path>
            <path d="M28.012 8.571c1.341-1.38 1.937-2.018 1.843-2.396-0.071-0.283-0.343-0.547-0.766-0.742-0.455-0.21-1.090-0.335-1.425-0.168-0.113 0.055-0.3 0.239-0.752 0.686l-0.423 0.415-0.001-0.001c-0.243-0.285-0.48-0.542-0.726-0.79l0.001 0.001c-1.783-1.783-4.033-3.020-6.51-3.581-0.934-1.142-2.216-1.729-3.525-1.615-1.1 0.095-2.1 0.679-2.827 1.644-2.597 0.599-5.001 1.9-6.963 3.769v-0.001c-0.4-0.15-1.305-0.053-1.886 0.215-0.334 0.154-0.531 0.347-0.587 0.573-0.044 0.172 0.009 0.449 0.651 1.291v0.002c-1.987 2.731-2.996 6.056-2.835 9.365 0.166 3.393 1.554 6.558 3.909 8.914 0.809 0.81 1.722 1.516 2.716 2.096l0.063 0.034c1.461 0.84 3.097 1.468 4.864 1.83 3.713 0.758 7.388 0.208 10.473-1.319l0.009-0.004c0.393-0.183 0.561-0.634 0.401-1.073l-0.048-0.133c-0.651-1.779-2.634-7.195-1-11.9 0.685-1.969 2.406-3.997 3.882-5.58h0.001c1.293 2.349 1.85 5.076 1.562 7.697-0.273 2.484-1.252 4.745-2.847 6.59v0.001c-0.048 0.050-0.077 0.118-0.077 0.194 0 0 0 0.001 0 0.001v-0c0 0.032 0.009 0.062 0.015 0.091l0.125 0.356c0.042 0.108 0.145 0.183 0.266 0.183 0.082 0 0.155-0.034 0.207-0.089l0-0 0.009 0.001c4.183-4.616 5.102-11.302 2.211-16.555v-0.001zM10.228 18.74c-0.43 1.782-1.019 4.219-0.897 7.97v-0.001c-1.003-0.602-1.87-1.282-2.645-2.054l0 0c-2.16-2.16-3.526-4.992-3.846-7.971-0.307-2.864 0.361-5.714 1.883-8.055v-0.001h0.001l-0.001 0.001c0.478 0.573 1.060 1.236 1.668 1.928 1.49 1.694 3.179 3.614 3.972 4.953 0.46 0.774 0.236 1.699-0.134 3.232zM24.941 7.806c-3.148 2.759-6.036 4.173-8.575 4.19-1.954 0.014-3.974-0.707-6.001-2.143-1.676-1.187-2.94-2.554-3.694-3.37l-0.077-0.083c1.505-1.405 3.38-2.431 5.463-2.916l0.081-0.016 0.001-0.001v0.001c-0.001 0.001 0 0.001 0 0.001-0.271 0.785-0.369 1.637-0.294 2.502 0.136 1.552 0.834 2.961 1.914 3.868 0.845 0.709 1.869 1.050 2.882 0.963 1.013-0.089 1.962-0.603 2.672-1.449 0.906-1.080 1.348-2.589 1.212-4.141-0.028-0.318-0.074-0.607-0.14-0.888l0.008 0.042v0.001c1.499 0.703 2.78 1.612 3.872 2.709l0 0c0.229 0.23 0.45 0.467 0.663 0.713l0.015 0.017z"></path>
        </symbol>
        <symbol width="62px" height="32px" id="icon-image2" viewBox="0 0 65 32" fill="white">
            <path d="M17.019 1.529c-0.060 0.067-0.082 0.337-0.067 0.734l0.022 0.622h1.499l0.022-0.622c0.015-0.397-0.008-0.667-0.067-0.734-0.060-0.075-0.262-0.105-0.704-0.105s-0.645 0.030-0.704 0.105z"></path>
            <path d="M31.363 1.963c-0.022 0.052-0.045 0.435-0.052 0.847l-0.022 0.749-0.824 0.075v1.424l0.869 0.045-0.008 1.829c-0.008 1.012 0.015 1.866 0.037 1.911 0.067 0.105 1.334 0.097 1.446-0.015 0.067-0.067 0.090-0.592 0.090-1.904v-1.821l0.787-0.045v-1.424l-0.787-0.045v-0.772c0-0.495-0.030-0.794-0.090-0.854-0.127-0.127-1.401-0.12-1.446 0z"></path>
            <path d="M3.747 3.597c-0.187 0.090-0.412 0.225-0.495 0.307l-0.157 0.15-0.045-0.232-0.045-0.225h-0.704c-0.442 0-0.727 0.030-0.787 0.090-0.12 0.12-0.127 6.962-0.015 7.187 0.067 0.127 0.165 0.142 0.779 0.142 0.57 0 0.712-0.022 0.749-0.12 0.022-0.067 0.045-0.637 0.045-1.274v-1.154l0.345 0.225c0.967 0.615 2.196 0.412 3.020-0.495 1.252-1.364 0.839-3.747-0.779-4.519-0.54-0.262-1.446-0.3-1.911-0.082zM4.826 5.051c0.757 0.315 1.012 1.356 0.487 2.031-0.232 0.292-0.562 0.427-1.019 0.42-0.502 0-0.824-0.187-1.057-0.592-0.277-0.495-0.187-1.274 0.18-1.604 0.405-0.36 0.937-0.457 1.409-0.255z"></path>
            <path d="M12.688 3.552c-0.772 0.247-1.349 0.787-1.724 1.596-0.277 0.592-0.292 1.491-0.022 2.158 0.24 0.622 0.922 1.296 1.536 1.536 0.622 0.24 1.484 0.24 2.083 0.008 0.607-0.24 1.244-0.847 1.521-1.446 0.195-0.42 0.217-0.555 0.217-1.184 0-0.652-0.022-0.757-0.24-1.207-0.48-0.974-1.319-1.506-2.421-1.544-0.397-0.015-0.757 0.015-0.952 0.082zM14.066 5.141c0.757 0.367 0.914 1.371 0.3 1.956-0.772 0.742-2.031 0.202-2.031-0.877 0-0.877 0.922-1.454 1.731-1.079z"></path>
            <path d="M20.931 3.582c-1.401 0.487-2.136 2.046-1.671 3.552 0.262 0.847 0.772 1.386 1.641 1.716 0.592 0.232 1.596 0.225 2.196 0 0.667-0.255 1.364-1.049 1.229-1.394-0.030-0.090-0.172-0.112-0.66-0.112-0.525 0.008-0.667 0.030-0.922 0.187-0.39 0.247-1.064 0.262-1.424 0.037-0.247-0.15-0.487-0.45-0.487-0.6 0-0.045 0.607-0.075 1.791-0.075 2.158 0 2.076 0.030 2.008-0.794-0.060-0.652-0.277-1.266-0.607-1.701-0.255-0.337-0.884-0.757-1.319-0.877-0.42-0.12-1.341-0.082-1.776 0.060zM22.58 5.006c0.112 0.075 0.255 0.202 0.315 0.285 0.232 0.307 0.172 0.33-0.974 0.33-0.749 0-1.087-0.022-1.087-0.082 0-0.045 0.127-0.217 0.292-0.375 0.277-0.277 0.315-0.292 0.764-0.292 0.337 0 0.54 0.045 0.689 0.135z"></path>
            <path d="M26.777 3.59c-0.794 0.27-1.371 0.839-1.679 1.641-0.127 0.36-0.15 0.547-0.127 1.139 0.030 0.615 0.060 0.772 0.27 1.169 0.487 0.959 1.364 1.484 2.488 1.484 0.787 0 1.334-0.195 1.851-0.667 0.412-0.36 0.794-1.004 0.757-1.259-0.022-0.157-0.060-0.165-0.757-0.187l-0.742-0.022-0.285 0.262c-0.63 0.57-1.619 0.345-1.919-0.442-0.315-0.839 0.24-1.686 1.109-1.686 0.412 0 0.577 0.067 0.944 0.382 0.225 0.202 0.292 0.217 0.862 0.217 0.337 0 0.66-0.030 0.719-0.067 0.255-0.165-0.202-1.079-0.757-1.514-0.719-0.57-1.851-0.757-2.735-0.45z"></path>
            <path d="M9.967 3.657c-0.142 0.082-0.337 0.255-0.427 0.39l-0.172 0.247v-0.262c0-0.135-0.037-0.292-0.090-0.345-0.12-0.12-1.349-0.12-1.469 0s-0.127 4.871-0.015 5.089c0.067 0.127 0.165 0.142 0.734 0.142 0.412 0 0.689-0.030 0.749-0.090s0.090-0.502 0.090-1.476c0-1.229 0.015-1.416 0.142-1.604 0.195-0.3 0.412-0.435 0.817-0.495l0.352-0.045v-1.649l-0.225-0.022c-0.12-0.007-0.345 0.045-0.487 0.12z"></path>
            <path d="M16.989 3.642c-0.030 0.030-0.052 1.274-0.052 2.758 0 2.031-0.022 2.75-0.097 2.893-0.060 0.112-0.21 0.225-0.39 0.285-0.165 0.052-0.322 0.135-0.352 0.187-0.097 0.157-0.067 1.139 0.037 1.289 0.090 0.112 0.18 0.127 0.585 0.097 0.862-0.067 1.461-0.525 1.679-1.281 0.097-0.33 0.112-0.869 0.097-3.312l-0.022-2.923-0.712-0.022c-0.397-0.007-0.742 0-0.772 0.030z"></path>
            <path d="M23.981 12.028c-2.241 0.412-4.392 1.746-5.778 3.575-0.577 0.764-1.282 2.218-1.521 3.11-0.899 3.402 0.052 6.857 2.555 9.248 1.769 1.686 3.957 2.555 6.43 2.555 2.99 0 5.673-1.334 7.464-3.717 0.532-0.697 1.274-2.181 1.491-2.968 0.63-2.271 0.442-4.541-0.525-6.58-0.525-1.094-0.982-1.739-1.836-2.608-1.394-1.401-3.080-2.286-4.976-2.615-0.779-0.142-2.541-0.135-3.305 0zM23.704 15.251c1.229 0.262 2.046 1.094 2.413 2.473 0.135 0.48 0.24 2.361 0.157 2.69-0.12 0.487-0.712 0.66-1.057 0.307-0.172-0.165-0.187-0.232-0.187-0.937 0-0.749-0.008-0.764-0.225-0.989-0.195-0.187-0.27-0.217-0.472-0.18-0.135 0.030-0.307 0.112-0.39 0.202-0.142 0.135-0.15 0.255-0.165 2.181-0.022 1.769-0.037 2.053-0.15 2.173-0.157 0.18-0.51 0.172-0.697-0.015-0.142-0.142-0.15-0.247-0.15-1.799 0-0.997-0.030-1.649-0.075-1.649-0.037 0-0.075 0.817-0.090 2.053-0.022 1.896-0.030 2.068-0.165 2.211-0.18 0.202-0.525 0.202-0.719 0.008-0.142-0.142-0.15-0.247-0.15-2.211 0-1.326-0.030-2.061-0.075-2.061s-0.075 0.622-0.075 1.724c0 1.866-0.030 2.031-0.39 2.181-0.187 0.075-0.247 0.067-0.42-0.060l-0.202-0.15-0.022-1.851c-0.008-1.057-0.045-1.844-0.090-1.844-0.037 0-0.075 0.585-0.090 1.319-0.022 1.282-0.030 1.319-0.202 1.461-0.225 0.187-0.39 0.18-0.637-0.015l-0.202-0.165 0.022-2.368c0.030-2.196 0.045-2.398 0.187-2.795 0.3-0.809 0.824-1.386 1.521-1.686 0.734-0.315 1.904-0.405 2.795-0.21zM29.602 18.511c0.142 0.142 0.15 0.247 0.15 2.173 0 1.746 0.015 2.023 0.112 2.023s0.112-0.255 0.112-1.814c0-1.581 0.015-1.829 0.127-1.948 0.15-0.165 0.525-0.172 0.712-0.008 0.12 0.112 0.135 0.27 0.135 1.948 0 1.431 0.022 1.829 0.097 1.806 0.067-0.022 0.105-0.397 0.135-1.379 0.022-0.734 0.045-1.349 0.052-1.349 0.008-0.008 0.12-0.052 0.247-0.105 0.202-0.082 0.247-0.082 0.427 0.052l0.202 0.15 0.022 2.203c0.022 2.406-0.015 2.728-0.367 3.432-0.525 1.049-1.566 1.581-3.103 1.581-2.113 0-3.282-1.109-3.56-3.372-0.165-1.341-0.067-2.151 0.262-2.278 0.262-0.097 0.57-0.045 0.749 0.142 0.172 0.165 0.187 0.24 0.187 0.854 0 0.749 0.075 0.997 0.352 1.124 0.27 0.127 0.442 0.097 0.674-0.097l0.21-0.18 0.022-2.053c0.015-1.971 0.022-2.053 0.172-2.181 0.21-0.172 0.48-0.165 0.667 0.022 0.142 0.142 0.15 0.247 0.15 1.799 0 1.416 0.015 1.649 0.112 1.649s0.112-0.277 0.112-2.053c0-2.046 0-2.061 0.165-2.173 0.232-0.165 0.48-0.15 0.66 0.030z"></path>
            <path d="M1.679 12.395l-0.217 0.18v17.267l0.21 0.18c0.21 0.18 0.225 0.18 1.844 0.18 1.544 0 1.649-0.008 1.836-0.157l0.195-0.15v-6.962h5.171v6.962l0.195 0.15c0.187 0.15 0.292 0.157 1.866 0.157 1.641 0 1.664 0 1.821-0.172l0.165-0.172v-17.334l-0.202-0.157c-0.195-0.15-0.262-0.157-1.881-0.135-1.656 0.022-1.679 0.022-1.821 0.202-0.135 0.165-0.142 0.337-0.142 3.35v3.178h-5.171v-3.178c0-3.013-0.008-3.185-0.142-3.35-0.142-0.18-0.165-0.18-1.829-0.202l-1.686-0.022-0.21 0.187z"></path>
            <path d="M37.276 12.275c-0.090 0.015-0.225 0.090-0.3 0.18-0.135 0.142-0.142 0.48-0.142 8.768v8.618l0.217 0.18 0.21 0.187 1.679-0.022c1.491-0.022 1.686-0.037 1.806-0.157s0.135-0.36 0.157-2.78l0.022-2.653 1.889-0.037c2.173-0.037 2.443-0.090 3.612-0.652 1.297-0.63 2.151-1.476 2.78-2.735 0.487-0.982 0.645-1.679 0.645-2.773 0-1.109-0.165-1.799-0.667-2.803-0.577-1.154-1.716-2.241-2.9-2.78-1.049-0.48-1.012-0.472-5.103-0.517-2.061-0.022-3.822-0.037-3.904-0.022zM44.485 16.292c0.457 0.217 0.862 0.615 1.087 1.079 0.247 0.51 0.247 1.476 0.008 2.001-0.202 0.442-0.615 0.884-1.027 1.109-0.277 0.15-0.427 0.165-1.963 0.187l-1.671 0.022v-4.579h1.596c1.514 0 1.604 0.008 1.971 0.18z"></path>
            <path d="M51.103 12.433l-0.217 0.225 0.015 8.626 0.022 8.633 0.18 0.142c0.165 0.135 0.36 0.142 5.193 0.142h5.014l0.18-0.187c0.187-0.18 0.187-0.18 0.187-1.799s0-1.619-0.187-1.799l-0.18-0.187h-6.303v-3.222h2.765c2.608 0 2.773-0.008 2.938-0.142 0.18-0.142 0.18-0.15 0.18-1.769s0-1.626-0.18-1.769c-0.165-0.135-0.33-0.142-2.938-0.142h-2.765v-2.998h3.065c2.983 0 3.065-0.008 3.26-0.157l0.195-0.15v-1.641c0-1.499-0.015-1.649-0.142-1.806l-0.142-0.18-9.915-0.037-0.225 0.217z"></path>
            <path d="M62.419 12.463c-0.457 0.307-0.577 0.847-0.292 1.311 0.3 0.487 0.959 0.577 1.416 0.195 0.51-0.427 0.42-1.281-0.172-1.559-0.352-0.165-0.652-0.15-0.952 0.052zM63.311 12.59c0.674 0.412 0.39 1.386-0.412 1.386-0.277 0-0.367-0.037-0.517-0.21-0.24-0.277-0.292-0.532-0.172-0.809 0.097-0.255 0.465-0.517 0.704-0.517 0.082 0 0.262 0.067 0.397 0.15z"></path>
            <path d="M62.501 13.227c0 0.435 0.015 0.487 0.15 0.487 0.082 0 0.15-0.052 0.15-0.112s0.037-0.112 0.075-0.112c0.045 0 0.097 0.052 0.12 0.112 0.030 0.060 0.127 0.112 0.225 0.112 0.195 0 0.225-0.075 0.097-0.202-0.060-0.060-0.060-0.127 0.008-0.247 0.067-0.127 0.067-0.217 0.008-0.345-0.067-0.157-0.135-0.18-0.457-0.18h-0.375v0.487zM63.026 13.115c0 0.037-0.030 0.075-0.075 0.075-0.037 0-0.075-0.037-0.075-0.075 0-0.045 0.037-0.075 0.075-0.075 0.045 0 0.075 0.030 0.075 0.075z"></path>
        </symbol>
        <symbol width="103px" height="32px" id="icon-image3" viewBox="0 0 338 32" fill="white">
            <path d="M99.662 4.917h16.922v26.091h-16.922v-26.091zM29.816 15.949c0 3.727-2.055 5.481-6.447 5.481s-6.449-1.752-6.449-5.481v-11.033h-16.92v11.667c0 10.921 6.111 14.796 23.369 14.796s23.369-3.882 23.369-14.796v-11.667h-16.922v11.033zM118.373 14.609h14.158v16.399h16.922v-16.399h14.159v-9.692h-45.24v9.692zM80.804 18.448l-13.232-13.531h-18.665v26.091h16.696v-13.531l13.22 13.531h18.674v-26.091h-16.694v13.531zM294.703 10.436c0-7.118-6.298-10.436-19.566-10.436-14.312 0-20.35 3.802-20.35 12.896h13.305c0-3.131 2.199-4.25 6.562-4.25 4.247 0 5.59 0.747 5.59 1.902 0 1.528-0.485 1.528-11.19 4.024-11.85 2.795-15.529 8.313-15.529 13.643v2.795h40.215v-8.47h-23.522c1.418-1.343 5.442-1.715 14.35-3.426 5.924-1.114 10.135-3.165 10.135-8.678zM165.41 31.008h38.501v-7.783h-22.321v-2.199h15.878v-6.12h-15.878v-2.199h22.326v-7.79h-38.506v26.091zM337.6 17.144v8.721h-6.038v5.143h-13.75v-5.143h-22.698v-8.806l16.287-16.027h20.162v16.102l6.036 0.009zM317.81 8.571l-8.678 8.573h8.678v-8.573zM254.078 17.973c0 8.758-5.517 13.044-16.886 13.044h-31.119v-26.1h31.119c11.369 0 16.886 4.287 16.886 13.056zM237.567 17.973c0-2.946-1.642-4.325-5.070-4.325h-9.914v8.648h9.914c3.428-0.009 5.070-1.388 5.070-4.323z"></path>
        </symbol>
        <symbol width="82px" height="32px" id="icon-image4" viewBox="0 0 123 32" fill="white">
            <path d="M20.1 3.19c-0.031 0.133-0.061 0.501-0.061 0.818 0 0.491 0.031 0.593 0.204 0.644 0.112 0.031 0.337 0.266 0.511 0.511l0.307 0.45v1.666c0 0.92-0.041 1.718-0.082 1.769-0.041 0.061-0.368 0.174-0.726 0.245-0.368 0.072-0.961 0.266-1.319 0.429-0.368 0.164-0.705 0.296-0.757 0.296-0.112 0-0.9-0.644-1.738-1.421l-0.593-0.552v-0.757c0-0.409-0.031-0.746-0.072-0.746-0.051 0-1.902 0-4.12-0.010h-4.038l-0.031 0.828c-0.020 0.685 0 0.818 0.133 0.818 0.266 0 0.961 0.399 1.114 0.644 0.174 0.266 0.072 0.644-2.464 9.017-0.818 2.699-1.574 5.224-1.677 5.623-0.47 1.707-0.818 2.546-1.237 2.944l-0.399 0.399 0.031 0.726 0.031 0.736 4.171 0.031 4.161 0.020v-1.585l-0.573-0.245c-0.889-0.389-0.91-0.501-0.44-2.208 2.321-8.271 2.914-10.275 3.016-10.275 0.031 0 0.194 0.092 0.348 0.204 0.256 0.184 0.296 0.296 0.327 0.746l0.031 0.532 0.746 0.020c0.808 0.020 0.736 0.072 0.879-0.767l0.061-0.327h-0.818c-0.48 0-0.818-0.041-0.818-0.102s0.337-0.102 0.818-0.102h0.818l0.235-0.542 0.235-0.532-0.746-0.031c-1.012-0.041-0.951-0.225 0.072-0.225h0.808l0.419-0.542c0.225-0.307 0.409-0.583 0.409-0.613 0-0.041-0.307-0.072-0.675-0.072-0.419 0-0.644-0.041-0.603-0.102 0.031-0.061 0.409-0.102 0.838-0.102h0.777l1.084-1.022h-0.358c-0.194 0-0.348-0.051-0.348-0.102 0-0.061 0.276-0.102 0.624-0.102 0.521 0 0.695-0.051 1.084-0.307 0.879-0.593 1.176-0.675 3.609-0.9l0.767-0.072-0.675-0.48c-0.849-0.603-0.93-0.716-0.951-1.206 0-0.296 0.061-0.47 0.225-0.634 0.307-0.307 0.47-0.143 0.317 0.307-0.184 0.521-0.051 0.787 0.613 1.237 0.327 0.225 0.736 0.583 0.91 0.797 0.256 0.307 0.348 0.358 0.419 0.245 0.092-0.143 0.767-0.133 2.208 0.041 0.317 0.031 0.337 0.031 0.102-0.031l-0.307-0.072-0.031-1.758c-0.031-2.106 0.051-2.403 0.695-2.658l0.409-0.164v-1.605h-7.852l-0.061 0.225zM24.271 3.537c0.184 0.174 0.215 0.511 0.061 0.603-0.061 0.041-0.102 0.767-0.102 1.83 0 0.981-0.031 1.912-0.061 2.086-0.061 0.276-0.092 0.307-0.256 0.215-0.184-0.092-0.194-0.245-0.194-2.004 0-1.258-0.041-2.024-0.123-2.259-0.112-0.307-0.112-0.358 0.072-0.491 0.245-0.184 0.409-0.184 0.603 0.020zM23.238 3.762c0.368 0.378 0.286 0.583-0.235 0.583-0.358 0-0.389-0.010-0.245-0.164 0.327-0.368 0.123-0.399-0.47-0.082-0.337 0.174-0.613 0.358-0.613 0.399 0 0.123 0.419 0.204 1.104 0.204 0.562 0 0.644 0.020 0.613 0.174-0.020 0.112-0.133 0.194-0.286 0.204-0.143 0-0.358 0.041-0.48 0.082-0.174 0.061-0.235 0.031-0.235-0.092 0-0.184-0.153-0.225-0.256-0.061s-0.389 0.123-0.327-0.041c0.041-0.112-0.031-0.164-0.256-0.184-0.399-0.041-0.491-0.256-0.164-0.378 0.133-0.051 0.511-0.286 0.849-0.511 0.337-0.235 0.644-0.419 0.675-0.419s0.174 0.133 0.327 0.286zM26.029 3.895c0.225 0.174 0.521 0.378 0.685 0.46 0.286 0.153 0.368 0.348 0.143 0.348-0.072 0-0.235 0.123-0.368 0.266-0.143 0.164-0.286 0.235-0.389 0.204-0.092-0.041-0.215-0.020-0.286 0.041-0.082 0.072-0.235 0.051-0.501-0.051-0.419-0.174-0.511-0.419-0.123-0.317 0.133 0.031 0.378-0.010 0.532-0.092 0.164-0.082 0.378-0.153 0.48-0.153 0.245 0 0.215-0.123-0.112-0.44-0.307-0.296-0.48-0.358-0.399-0.133 0.031 0.072-0.041 0.215-0.153 0.307-0.184 0.164-0.225 0.164-0.44 0.020-0.337-0.225-0.389-0.204-0.317 0.082 0.041 0.164 0.010 0.266-0.092 0.307-0.123 0.041-0.153-0.031-0.153-0.307s0.051-0.368 0.235-0.44c0.133-0.051 0.297-0.164 0.368-0.256 0.204-0.245 0.45-0.204 0.889 0.153zM25.447 6.604c0.123 0.153 0.215 0.358 0.215 0.47 0 0.225-1.084 1.411-1.298 1.411s-0.153-0.143 0.215-0.501c0.48-0.46 0.634-0.859 0.48-1.196-0.215-0.481 0.061-0.603 0.389-0.184z"></path>
            <path d="M23.923 3.885c0 0.112 0.051 0.204 0.102 0.204 0.061 0 0.102-0.092 0.102-0.204s-0.041-0.204-0.102-0.204c-0.051 0-0.102 0.092-0.102 0.204z"></path>
            <path d="M88.322 6.318c-0.266 0.245-0.327 0.368-0.327 0.736s0.061 0.491 0.327 0.736c0.358 0.317 0.695 0.358 1.135 0.133 0.603-0.317 0.705-1.094 0.215-1.595-0.409-0.399-0.91-0.409-1.35-0.010z"></path>
            <path d="M110.773 6.196l-0.613 0.143 0.031 3.916c0.041 4.355 0.051 4.427 0.736 4.795 0.276 0.153 0.521 0.184 1.043 0.164 0.378-0.020 0.705-0.061 0.736-0.092s-0.010-0.256-0.082-0.501c-0.092-0.307-0.194-0.47-0.327-0.491-0.44-0.082-0.45-0.194-0.45-4.069 0-2.034-0.031-3.773-0.061-3.865-0.072-0.194-0.194-0.194-1.012 0z"></path>
            <path d="M32.726 6.543c-0.051 0.031-0.112 0.419-0.153 0.869s-0.133 0.879-0.194 0.961c-0.061 0.072-0.634 0.501-1.268 0.951s-1.135 0.859-1.104 0.91c0.041 0.051-0.061 0.092-0.225 0.092-0.153 0-0.389 0.031-0.511 0.061-0.204 0.051-0.174 0.102 0.286 0.511 0.501 0.45 0.511 0.45 1.268 0.45 0.409 0 0.787 0.041 0.818 0.102 0.061 0.102-0.092 0.123-0.838 0.143-0.184 0.010-0.348 0.041-0.358 0.082-0.020 0.041 0.133 0.296 0.337 0.562l0.368 0.501 0.787-0.031c0.429-0.020 0.777 0.010 0.777 0.061 0 0.123-0.368 0.215-0.9 0.215h-0.429l0.511 1.022h0.716c0.409 0 0.716 0.041 0.716 0.102s-0.276 0.102-0.613 0.102c-0.337 0-0.613 0.031-0.613 0.061 0 0.041 0.082 0.286 0.174 0.562l0.184 0.501h0.583c0.583 0 0.593 0 0.593-0.296 0-0.235 0.102-0.358 0.552-0.654 0.46-0.307 0.573-0.348 0.675-0.225 0.225 0.276 3.098 11.543 3.016 11.819-0.082 0.256-0.685 0.705-0.941 0.705-0.348 0-0.45 0.235-0.419 0.941l0.031 0.644h8.281l0.031-0.654c0.031-0.573 0-0.685-0.215-0.92-0.143-0.143-0.307-0.378-0.378-0.511-0.194-0.378-2.086-6.942-3.312-11.461-0.317-1.155-0.726-2.668-0.92-3.374-0.409-1.452-0.521-2.034-0.429-2.331 0.041-0.123 0.276-0.307 0.521-0.429l0.46-0.225v-0.91c0-0.501-0.031-0.91-0.072-0.91-2.208-0.041-7.739-0.041-7.79 0z"></path>
            <path d="M47.458 10.806l0.031 4.273 1.789 0.061v-8.598h-1.84l0.020 4.263z"></path>
            <path d="M58.203 7.075l-0.746 0.204v1.513h-0.307c-0.297 0-0.307 0.010-0.307 0.511s0.010 0.511 0.307 0.511h0.307v2.167c0 1.983 0.020 2.208 0.204 2.505 0.368 0.613 1.247 0.859 2.29 0.644l0.593-0.123-0.061-0.368c-0.031-0.215-0.061-0.44-0.061-0.501 0-0.092-0.133-0.112-0.46-0.061-0.368 0.041-0.511 0.020-0.665-0.123-0.194-0.174-0.204-0.317-0.204-2.157v-1.973l0.521-0.031c0.521-0.031 0.521-0.031 0.705-0.521l0.184-0.48h-1.411v-0.971c0-0.532-0.031-0.971-0.072-0.961-0.051 0-0.419 0.102-0.818 0.215z"></path>
            <path d="M85.010 7.136l-0.613 0.174-0.031 0.746-0.031 0.736h-0.296c-0.296 0-0.307 0.010-0.307 0.501 0 0.48 0.020 0.511 0.286 0.542l0.276 0.031 0.051 2.249c0.061 2.515 0.072 2.576 0.777 2.914 0.46 0.225 1.288 0.266 1.912 0.092 0.399-0.102 0.419-0.164 0.286-0.757-0.061-0.286-0.082-0.296-0.532-0.266-0.797 0.041-0.808 0-0.808-2.29v-1.983l0.521-0.031c0.521-0.031 0.532-0.041 0.705-0.491l0.184-0.46-1.442-0.102 0.020-0.9c0.031-1.022 0.072-0.992-0.961-0.705z"></path>
            <path d="M79.898 8.7c-0.47 0.082-1.421 0.44-1.769 0.665l-0.235 0.153 0.276 0.48c0.153 0.266 0.307 0.511 0.337 0.562 0.041 0.041 0.368-0.072 0.726-0.245 1.165-0.583 1.942-0.389 1.942 0.48 0 0.327-0.020 0.348-0.378 0.358-0.859 0.020-1.789 0.235-2.259 0.521-0.501 0.307-0.736 0.859-0.736 1.697 0 0.767 0.194 1.186 0.716 1.564 0.603 0.45 1.983 0.46 2.617 0.031 0.194-0.133 0.368-0.245 0.388-0.245s0.184 0.133 0.368 0.307c0.409 0.378 0.511 0.378 0.828 0.020 0.532-0.583 0.532-0.583 0.245-0.992-0.256-0.378-0.256-0.419-0.256-2.29 0-2.137-0.082-2.443-0.716-2.812-0.378-0.225-1.493-0.358-2.096-0.256zM81.094 12.984c-0.031 0.552-0.072 0.705-0.286 0.889-0.573 0.521-1.268 0.164-1.268-0.634 0-0.654 0.46-0.981 1.329-0.93 0.245 0.010 0.256 0.031 0.225 0.675z"></path>
            <path d="M51.323 8.884c-0.399 0.123-0.552 0.225-0.511 0.327 0.031 0.082 0.061 1.442 0.082 3.026l0.031 2.893h1.626v-2.229c0-2.495-0.020-2.403 0.746-2.73 0.48-0.194 0.542-0.194 0.787 0.051 0.194 0.194 0.204 0.337 0.204 2.556v2.351h1.646l-0.031-2.689c-0.041-3.098-0.061-3.21-0.869-3.568-0.644-0.286-1.411-0.204-2.096 0.215-0.593 0.368-0.593 0.368-0.593 0.123 0-0.562-0.153-0.613-1.022-0.327z"></path>
            <path d="M62.415 8.874c-0.48 0.225-1.094 0.879-1.35 1.421-0.133 0.296-0.174 0.675-0.174 1.615-0.010 1.37 0.143 1.84 0.777 2.495 0.971 0.992 2.74 1.104 4.079 0.266l0.388-0.256-0.317-0.511c-0.286-0.46-0.337-0.501-0.481-0.368-0.491 0.45-1.595 0.603-2.147 0.317-0.337-0.174-0.654-0.767-0.603-1.135l0.031-0.266 1.769 0.010c1.493 0.020 1.769-0.010 1.82-0.133 0.031-0.092 0.010-0.562-0.061-1.053-0.143-1.104-0.481-1.789-1.104-2.219-0.378-0.276-0.532-0.307-1.329-0.337-0.705-0.031-0.971 0-1.298 0.153zM64.153 10.050c0.204 0.174 0.286 0.358 0.327 0.716l0.061 0.48h-0.992c-1.104 0-1.135-0.041-0.838-0.757 0.276-0.665 0.951-0.869 1.442-0.44z"></path>
            <path d="M67.548 8.864c-0.593 0.153-0.603 0.164-0.542 0.48 0.041 0.174 0.092 1.554 0.133 3.057l0.061 2.74 1.554-0.061 0.031-2.28 0.020-2.28 0.337-0.204c0.215-0.123 0.47-0.194 0.726-0.174l0.388 0.020 0.194-0.603c0.102-0.337 0.174-0.675 0.143-0.746-0.061-0.153-0.797-0.164-1.104-0.010-0.123 0.061-0.368 0.256-0.542 0.419l-0.317 0.296-0.123-0.419c-0.133-0.45-0.123-0.45-0.961-0.235z"></path>
            <path d="M71.974 8.884c-0.399 0.123-0.552 0.225-0.511 0.327 0.031 0.082 0.061 1.442 0.082 3.026l0.031 2.893h1.626v-2.229c0-2.495-0.020-2.403 0.746-2.73 0.481-0.194 0.542-0.194 0.787 0.051 0.194 0.194 0.204 0.337 0.204 2.556v2.351h1.534v-2.72c0-3.077-0.020-3.149-0.767-3.517-0.685-0.327-1.513-0.235-2.239 0.256-0.204 0.143-0.388 0.256-0.409 0.256s-0.072-0.164-0.102-0.358c-0.082-0.419-0.164-0.429-0.981-0.164z"></path>
            <path d="M88.721 8.813l-0.593 0.102v6.216h1.636v-6.441l-0.225 0.010c-0.133 0.010-0.501 0.061-0.818 0.112z"></path>
            <path d="M92.534 8.854c-0.562 0.215-1.196 0.838-1.472 1.462-0.286 0.644-0.358 2.116-0.133 2.893 0.215 0.736 0.654 1.329 1.257 1.687 0.44 0.256 0.583 0.286 1.411 0.286 0.818 0 0.971-0.031 1.401-0.286 0.491-0.286 0.951-0.849 1.217-1.503 0.092-0.235 0.143-0.746 0.143-1.482 0-0.93-0.041-1.206-0.215-1.585-0.266-0.573-0.808-1.135-1.329-1.38-0.542-0.256-1.697-0.296-2.28-0.092zM94.201 10.162c0.481 0.47 0.603 2.351 0.225 3.272-0.348 0.828-1.268 0.889-1.646 0.102-0.225-0.48-0.307-1.799-0.153-2.535 0.153-0.746 0.45-1.084 0.971-1.084 0.245 0 0.44 0.082 0.603 0.245z"></path>
            <path d="M97.861 8.874c-0.511 0.143-0.542 0.174-0.481 0.419 0.041 0.143 0.092 1.523 0.123 3.057l0.051 2.791 1.564-0.061 0.020-2.249c0.020-2.208 0.020-2.239 0.256-2.423 0.44-0.337 0.879-0.429 1.155-0.245l0.256 0.164 0.020 2.382 0.031 2.372 1.585 0.061v-2.617c0-2.873-0.041-3.118-0.593-3.517-0.624-0.44-1.697-0.368-2.464 0.153l-0.368 0.245-0.112-0.327c-0.133-0.399-0.286-0.429-1.043-0.204z"></path>
            <path d="M104.997 8.925c-0.726 0.266-1.125 0.48-1.125 0.613 0 0.061 0.378 0.787 0.562 1.073 0.010 0.010 0.337-0.123 0.716-0.296 1.227-0.583 1.891-0.429 1.891 0.419v0.368l-0.951 0.112c-1.36 0.164-1.932 0.48-2.27 1.288-0.378 0.9-0.041 2.075 0.705 2.484 0.767 0.429 1.973 0.399 2.638-0.072l0.286-0.215 0.368 0.317c0.194 0.174 0.409 0.317 0.481 0.317 0.072-0.010 0.296-0.215 0.511-0.46l0.399-0.46-0.266-0.317c-0.143-0.174-0.266-0.44-0.276-0.583 0-0.153-0.010-1.063-0.020-2.034-0.020-1.595-0.041-1.779-0.235-2.034-0.44-0.603-0.695-0.705-1.758-0.736-0.828-0.020-1.104 0.010-1.656 0.215zM107.042 12.974c0 0.665-0.020 0.726-0.296 0.92-0.634 0.45-1.339 0.102-1.339-0.654 0-0.593 0.47-0.93 1.36-0.961 0.276-0.010 0.276-0.010 0.276 0.695z"></path>
            <path d="M27.788 9.375c0.072 0.031 0.102 0.123 0.082 0.215-0.092 0.286 0.593 0.552 1.319 0.511l0.613-0.031-0.767-0.317c-0.419-0.184-0.9-0.348-1.073-0.368-0.164-0.031-0.245-0.031-0.174-0.010z"></path>
            <path d="M22.063 9.723c-0.337 0.256-0.368 0.399-0.072 0.399 0.225 0 0.491-0.256 0.501-0.491 0-0.174-0.112-0.153-0.429 0.092z"></path>
            <path d="M20.488 9.712c-0.123 0.051-0.256 0.133-0.296 0.194-0.031 0.061-0.153 0.112-0.266 0.112-0.102 0-0.194 0.041-0.194 0.102 0 0.194 0.521 0.102 0.92-0.164 0.225-0.153 0.409-0.286 0.409-0.307 0-0.072-0.348-0.031-0.573 0.061z"></path>
            <path d="M21.194 9.815c-0.245 0.102-0.44 0.245-0.44 0.307 0 0.204 0.48 0.092 0.818-0.204 0.419-0.348 0.256-0.399-0.378-0.102z"></path>
            <path d="M23.923 9.845c0 0.184 0.051 0.276 0.153 0.276 0.133 0 0.143-0.041 0.041-0.235-0.174-0.337-0.194-0.337-0.194-0.041z"></path>
            <path d="M20.243 10.449c-0.235 0.082-0.225 0.368 0.010 0.296 0.082-0.020 0.266-0.061 0.429-0.092 0.153-0.020 0.297-0.082 0.327-0.123 0.072-0.112-0.501-0.184-0.767-0.082z"></path>
            <path d="M18.433 10.909l-0.593 0.491 0.429 0.031c0.368 0.031 0.501-0.020 0.992-0.409 0.307-0.245 0.562-0.47 0.562-0.521 0.010-0.041-0.174-0.072-0.389-0.072-0.327 0-0.511 0.092-1.002 0.48z"></path>
            <path d="M21.255 10.612c-0.092 0.092-0.266 0.256-0.389 0.358s-0.194 0.225-0.164 0.286c0.041 0.061 0.174-0.010 0.307-0.153 0.153-0.164 0.307-0.235 0.399-0.204 0.123 0.051 0.164 0 0.164-0.204 0-0.307-0.082-0.327-0.317-0.082z"></path>
            <path d="M22.196 10.571c-0.072 0.082-0.153 0.307-0.184 0.511-0.061 0.368-0.051 0.368 0.307 0.368 0.368 0 0.48-0.123 0.48-0.521 0-0.102-0.072-0.194-0.153-0.194s-0.153-0.072-0.153-0.153c0-0.194-0.143-0.194-0.297-0.010z"></path>
            <path d="M23.065 10.837c-0.235 0.583-0.215 0.634 0.225 0.593 0.378-0.031 0.378-0.031 0.378-0.491 0-0.389-0.041-0.46-0.215-0.491-0.174-0.020-0.256 0.061-0.389 0.389z"></path>
            <path d="M23.995 10.643c0.041 0.133 0.092 0.174 0.153 0.112 0.112-0.112 0.031-0.327-0.123-0.327-0.041 0-0.061 0.092-0.031 0.215z"></path>
            <path d="M24.639 10.53c0 0.051 0.051 0.102 0.102 0.102 0.061 0 0.102-0.051 0.102-0.102 0-0.061-0.041-0.102-0.102-0.102-0.051 0-0.102 0.041-0.102 0.102z"></path>
            <path d="M28.115 10.571c0 0.020 0.072 0.092 0.153 0.164 0.123 0.102 0.153 0.102 0.153-0.041 0-0.092-0.072-0.164-0.153-0.164s-0.153 0.020-0.153 0.041z"></path>
            <path d="M28.831 11.052c0 0.164 0.041 0.194 0.225 0.143 0.174-0.061 0.204-0.041 0.143 0.102-0.061 0.164-0.041 0.164 0.112 0.041 0.102-0.072 0.204-0.153 0.225-0.164 0.082-0.061-0.348-0.327-0.521-0.337-0.123 0-0.184 0.082-0.184 0.215z"></path>
            <path d="M17.615 11.737c-0.164 0.102-0.849 0.971-0.849 1.073 0 0.041 0.215 0.072 0.48 0.051 0.46-0.031 0.511-0.061 0.818-0.542 0.184-0.276 0.337-0.542 0.337-0.583 0-0.102-0.624-0.102-0.787 0z"></path>
            <path d="M21.807 11.767c-0.061 0.061-0.092 0.174-0.072 0.245 0.031 0.072-0.082 0.215-0.256 0.317-0.491 0.296-0.409 0.45 0.245 0.45 0.613 0 0.644-0.031 0.818-0.797 0.061-0.317 0.061-0.327-0.276-0.327-0.194 0-0.399 0.051-0.46 0.112z"></path>
            <path d="M22.717 12.054c-0.204 0.665-0.174 0.726 0.337 0.726 0.256 0 0.46-0.031 0.47-0.082 0-0.041 0.010-0.286 0.020-0.562l0.031-0.48h-0.378c-0.337 0-0.378 0.031-0.48 0.399z"></path>
            <path d="M29.24 11.737c0 0.051 0.092 0.174 0.215 0.286 0.123 0.102 0.276 0.317 0.358 0.47 0.133 0.245 0.215 0.286 0.603 0.286 0.256 0 0.46-0.031 0.46-0.061 0-0.041-0.164-0.286-0.368-0.562-0.337-0.47-0.399-0.501-0.818-0.501-0.245 0-0.45 0.041-0.45 0.082z"></path>
            <path d="M24.486 12.371c0.031 0.051 0.082 0.102 0.112 0.102 0.020 0 0.041-0.051 0.041-0.102 0-0.061-0.051-0.102-0.112-0.102-0.051 0-0.072 0.041-0.041 0.102z"></path>
            <path d="M18.167 12.534c-0.041 0.041-0.072 0.112-0.072 0.164 0 0.133 0.511 0.061 0.542-0.072 0.020-0.123-0.368-0.194-0.47-0.092z"></path>
            <path d="M22.39 13.526c-0.051 0.266-0.102 0.511-0.102 0.532 0 0.031 0.143 0.051 0.307 0.051 0.215 0 0.327-0.061 0.368-0.184 0.031-0.092 0.123-0.307 0.204-0.46 0.204-0.409 0.194-0.429-0.266-0.429-0.399 0-0.409 0-0.511 0.491z"></path>
            <path d="M30.058 13.035c0 0.031 0.041 0.133 0.092 0.235 0.051 0.092 0.143 0.296 0.204 0.45 0.102 0.266 0.153 0.286 0.675 0.286 0.634 0 0.665-0.051 0.337-0.624-0.215-0.389-0.235-0.399-0.767-0.399-0.296 0-0.542 0.020-0.542 0.051z"></path>
            <path d="M16.358 13.495c-0.112 0.215-0.204 0.44-0.204 0.501 0 0.051 0.256 0.112 0.562 0.133l0.552 0.031 0.164-0.48c0.082-0.266 0.153-0.501 0.153-0.532s-0.225-0.061-0.511-0.061c-0.491 0-0.511 0.010-0.716 0.409z"></path>
            <path d="M17.656 13.567c-0.143 0.491-0.143 0.491 0.112 0.521 0.317 0.041 0.389-0.041 0.47-0.573 0.061-0.409 0.051-0.429-0.194-0.429-0.215 0-0.276 0.072-0.389 0.48z"></path>
            <path d="M20.907 13.158c-0.45 0.112-0.491 0.603-0.051 0.695 0.164 0.041 0.327 0.112 0.358 0.164 0.072 0.112 0.869 0.123 0.869 0.010 0.010-0.041 0.051-0.266 0.092-0.511l0.082-0.429-0.573 0.010c-0.317 0.010-0.665 0.041-0.777 0.061z"></path>
            <path d="M29.546 13.178c0 0.051 0.041 0.123 0.092 0.153 0.041 0.031 0.112 0.194 0.143 0.368 0.041 0.174 0.133 0.307 0.215 0.307 0.133 0 0.133-0.061-0.031-0.429-0.164-0.399-0.419-0.644-0.419-0.399z"></path>
            <path d="M26.673 13.505c-0.051 0.112-0.072 0.296-0.041 0.399 0.051 0.164 0.153 0.204 0.521 0.204 0.573 0 0.593-0.184 0.041-0.542-0.399-0.256-0.409-0.256-0.521-0.061z"></path>
            <path d="M19.752 13.505c-0.143 0.051-0.225 0.164-0.204 0.256 0.031 0.174 0.767 0.48 0.849 0.348 0.031-0.051-0.010-0.102-0.072-0.133-0.102-0.031-0.102-0.092-0.010-0.256 0.194-0.327-0.061-0.419-0.562-0.215z"></path>
            <path d="M28.34 13.618c-0.184 0.184-0.153 0.286 0.153 0.399 0.368 0.143 0.491-0.031 0.204-0.296-0.184-0.174-0.266-0.194-0.358-0.102z"></path>
            <path d="M29.73 14.293c-0.256 0.020-0.389 0.082-0.389 0.184 0 0.082 0.061 0.143 0.143 0.143s0.215 0.082 0.286 0.184c0.153 0.215 0.808 0.562 0.889 0.47 0.061-0.061-0.307-0.399-0.532-0.48-0.092-0.031-0.092-0.092 0-0.256 0.153-0.256 0.102-0.286-0.399-0.245z"></path>
            <path d="M30.978 14.334c0 0.041 0.123 0.102 0.286 0.143 0.153 0.031 0.337 0.082 0.409 0.102 0.082 0.020 0.123-0.031 0.102-0.143-0.020-0.123-0.133-0.174-0.419-0.174-0.204 0-0.378 0.031-0.378 0.072z"></path>
            <path d="M17.687 14.385c-0.235 0.092-0.307 0.245-0.307 0.675v0.389l0.675-0.031c0.654-0.031 0.685-0.041 0.716-0.307 0.020-0.194-0.031-0.296-0.153-0.337-0.102-0.031-0.266-0.143-0.368-0.256-0.194-0.204-0.296-0.235-0.562-0.133z"></path>
            <path d="M20.161 14.497c-0.082 0.235 0.133 0.358 0.378 0.215 0.194-0.123 0.256-0.102 0.654 0.296 0.573 0.562 0.746 0.562 0.828-0.031 0.041-0.256 0.041-0.511 0.010-0.562-0.102-0.164-1.799-0.092-1.871 0.082z"></path>
            <path d="M22.226 14.558c-0.031 0.133-0.041 0.378-0.020 0.532 0.031 0.296 0.031 0.296 0.746 0.296 0.654 0 0.716-0.020 0.746-0.225 0.020-0.143-0.031-0.235-0.174-0.286-0.112-0.031-0.296-0.174-0.409-0.317-0.266-0.337-0.797-0.348-0.889 0z"></path>
            <path d="M26.725 14.538c0.031 0.133 0.061 0.358 0.061 0.511 0 0.276 0.020 0.286 0.573 0.286h0.573l-0.072-0.44c-0.041-0.235-0.092-0.46-0.123-0.511-0.020-0.041-0.276-0.072-0.562-0.072-0.48 0-0.511 0.010-0.45 0.225z"></path>
            <path d="M28.279 14.507c-0.102 0.112-0.164 0.317-0.143 0.491 0.031 0.276 0.061 0.286 0.624 0.317 0.317 0.020 0.583 0 0.583-0.031s-0.051-0.266-0.112-0.521c-0.112-0.419-0.143-0.45-0.45-0.45-0.194 0-0.399 0.082-0.501 0.194z"></path>
            <path d="M16 14.538c-0.020 0.072-0.061 0.307-0.102 0.511l-0.061 0.389h1.319l0.041-0.511 0.031-0.511h-0.593c-0.378 0-0.603 0.041-0.634 0.123z"></path>
            <path d="M26.275 14.988c-0.082 0.204-0.082 0.296 0.020 0.358 0.174 0.112 0.286 0.010 0.286-0.266 0-0.358-0.184-0.409-0.307-0.092z"></path>
            <path d="M18.965 15.029c-0.102 0.327 0.020 0.409 0.624 0.409 0.419 0 0.552-0.041 0.552-0.153 0-0.184-0.235-0.307-0.736-0.399-0.317-0.061-0.378-0.041-0.44 0.143z"></path>
            <path d="M30.947 15.008c-0.286 0.061-0.143 0.276 0.215 0.307 0.235 0.020 0.327-0.010 0.327-0.112 0-0.164-0.256-0.256-0.542-0.194z"></path>
            <path d="M29.546 15.182c0 0.082 0.072 0.153 0.164 0.153 0.143 0 0.143-0.031 0.041-0.153-0.072-0.082-0.143-0.153-0.164-0.153s-0.041 0.072-0.041 0.153z"></path>
            <path d="M23.974 15.223c-0.061 0.112 0.092 0.235 0.194 0.143 0.092-0.092 0.072-0.235-0.031-0.235-0.061 0-0.123 0.041-0.164 0.092z"></path>
            <path d="M26.224 15.652c-0.041 0.061-0.092 0.348-0.102 0.634l-0.041 0.532 0.256-0.307c0.276-0.348 0.348-0.971 0.102-0.971-0.082 0-0.184 0.051-0.215 0.112z"></path>
            <path d="M26.755 16.072c-0.031 0.297-0.020 0.583 0.031 0.624 0.041 0.051 0.317 0.072 0.624 0.051l0.552-0.031v-1.125l-1.145-0.061-0.061 0.542z"></path>
            <path d="M28.217 16.092c0 0.624 0.051 0.665 0.695 0.593l0.429-0.041v-1.104h-1.125v0.552z"></path>
            <path d="M29.597 15.663c-0.092 0.286-0.102 1.002-0.010 1.002 0.133 0 1.186-0.92 1.186-1.033 0-0.143-1.125-0.112-1.176 0.031z"></path>
            <path d="M32.47 15.663c-0.204 0.716-0.235 0.9-0.184 0.941 0.031 0.031 0.297 0.061 0.603 0.061 0.491 0 0.552-0.031 0.644-0.266 0.061-0.143 0.102-0.399 0.102-0.562 0-0.296-0.010-0.296-0.562-0.296-0.368 0-0.583 0.041-0.603 0.123z"></path>
            <path d="M16.235 15.714c-0.215 0.020-0.389 0.061-0.389 0.092s0.051 0.256 0.112 0.511l0.112 0.45h0.654c0.716 0 0.705 0.010 0.542-0.675-0.123-0.491-0.092-0.47-1.033-0.378z"></path>
            <path d="M17.38 15.755c0 0.051 0.051 0.307 0.112 0.562l0.112 0.45h1.319l-0.072-0.491c-0.031-0.266-0.082-0.511-0.112-0.562-0.072-0.112-1.36-0.082-1.36 0.041z"></path>
            <path d="M19.067 16.123c0.041 0.266 0.092 0.521 0.123 0.562 0.020 0.051 0.276 0.082 0.552 0.082 0.48 0 0.501-0.010 0.399-0.204-0.061-0.123-0.102-0.358-0.082-0.542l0.031-0.327-1.094-0.061 0.072 0.491z"></path>
            <path d="M21.848 15.847c0.031 0.112 0.072 0.204 0.092 0.204s0.041-0.092 0.041-0.204c0-0.112-0.041-0.204-0.092-0.204s-0.072 0.092-0.041 0.204z"></path>
            <path d="M22.206 16.174l0.031 0.542 1.482 0.061v-1.135h-1.544l0.031 0.532z"></path>
            <path d="M23.923 16.204c0 0.48 0.031 0.562 0.194 0.562 0.215 0 0.317-0.194 0.317-0.562s-0.102-0.562-0.317-0.562c-0.164 0-0.194 0.082-0.194 0.562z"></path>
            <path d="M14.15 15.898c-0.031 0.082-0.020 0.327 0.031 0.532l0.092 0.389 1.687 0.061-0.164-0.378c-0.082-0.204-0.153-0.46-0.153-0.562 0-0.174-0.082-0.194-0.716-0.194-0.542 0-0.736 0.041-0.777 0.153z"></path>
            <path d="M28.258 16.951c-0.061 0.041-0.164 0.204-0.215 0.378-0.061 0.164-0.143 0.389-0.184 0.491-0.072 0.164-0.020 0.184 0.46 0.153l0.532-0.031 0.184-0.48c0.102-0.266 0.153-0.501 0.123-0.532-0.082-0.092-0.767-0.072-0.9 0.020z"></path>
            <path d="M29.393 16.992c-0.031 0.072-0.112 0.327-0.194 0.562l-0.153 0.44h0.603c0.644 0 0.818-0.133 0.818-0.603 0-0.184-0.031-0.194-0.266-0.112-0.419 0.164-0.552 0.123-0.552-0.153 0-0.266-0.174-0.348-0.256-0.133z"></path>
            <path d="M32.102 17.145c-0.061 0.164-0.174 0.409-0.266 0.562l-0.153 0.286h1.237l0.245-0.501c0.143-0.276 0.225-0.521 0.194-0.562-0.041-0.031-0.307-0.061-0.613-0.061-0.501 0-0.552 0.020-0.644 0.276z"></path>
            <path d="M19.374 17.073c-0.020 0.031 0.051 0.256 0.143 0.511l0.164 0.46 0.593 0.031c0.317 0.020 0.583-0.010 0.583-0.061 0-0.184-0.297-0.808-0.44-0.93-0.143-0.112-0.971-0.123-1.043-0.010z"></path>
            <path d="M22.288 17.421c0 0.573 0.153 0.695 0.838 0.654l0.542-0.031 0.031-0.542 0.031-0.532h-1.442v0.45z"></path>
            <path d="M23.944 17.503l0.031 0.542 0.491 0.031c0.501 0.031 0.644-0.123 0.337-0.378-0.082-0.061-0.194-0.256-0.266-0.419-0.092-0.225-0.194-0.307-0.378-0.307-0.235 0-0.245 0.031-0.215 0.532z"></path>
            <path d="M25.62 17.452c-0.204 0.235-0.368 0.47-0.368 0.532s0.194 0.112 0.46 0.112h0.45l0.164-0.532c0.082-0.286 0.153-0.542 0.153-0.552s-0.112-0.010-0.245 0c-0.143 0-0.389 0.184-0.613 0.44z"></path>
            <path d="M26.592 17.421c-0.061 0.256-0.112 0.48-0.112 0.511s0.256 0.061 0.562 0.061c0.552 0 0.552 0 0.654-0.389 0.174-0.613 0.164-0.634-0.44-0.634h-0.552l-0.112 0.45z"></path>
            <path d="M14.446 17.574c0.133 0.317 0.286 0.532 0.419 0.562 0.276 0.072 1.697 0.082 1.697 0.010 0-0.031-0.112-0.286-0.256-0.562l-0.256-0.511h-1.82l0.215 0.501z"></path>
            <path d="M16.256 17.155c0 0.041 0.133 0.297 0.307 0.562 0.296 0.46 0.317 0.48 0.797 0.48 0.276 0 0.521-0.031 0.552-0.061 0.041-0.031-0.041-0.276-0.153-0.552l-0.225-0.511h-0.634c-0.358 0-0.644 0.041-0.644 0.082z"></path>
            <path d="M17.963 17.605l0.286 0.532 0.562-0.031c0.307-0.010 0.573-0.041 0.593-0.051 0.010-0.020-0.061-0.245-0.153-0.501l-0.174-0.48h-1.401l0.286 0.532z"></path>
            <path d="M31.335 17.329c-0.225 0.184-0.327 0.215-0.429 0.133-0.153-0.123-0.153-0.133-0.317 0.245l-0.123 0.286h0.491c0.48 0 0.491-0.010 0.716-0.46 0.256-0.521 0.143-0.593-0.337-0.204z"></path>
            <path d="M21.838 17.666c-0.194 0.378-0.174 0.46 0.112 0.409 0.153-0.020 0.174-0.092 0.133-0.389l-0.061-0.358-0.184 0.337z"></path>
            <path d="M27.747 18.28c-0.112 0.072-0.552 0.869-0.552 0.992 0 0.031 0.215 0.051 0.47 0.031 0.44-0.031 0.491-0.061 0.716-0.47 0.133-0.235 0.245-0.48 0.245-0.532 0-0.123-0.716-0.133-0.879-0.020z"></path>
            <path d="M28.688 18.668c-0.143 0.266-0.266 0.511-0.266 0.562s0.204 0.092 0.46 0.092c0.419 0 0.48-0.031 0.818-0.47 0.194-0.266 0.358-0.521 0.358-0.562 0-0.051-0.245-0.092-0.552-0.092-0.552 0-0.552 0-0.818 0.47z"></path>
            <path d="M30.006 18.73l-0.358 0.542 0.378 0.031c0.348 0.031 0.429-0.010 0.777-0.389 0.491-0.562 0.491-0.716-0.031-0.716-0.378 0-0.429 0.041-0.767 0.532z"></path>
            <path d="M31.284 18.648c-0.164 0.256-0.307 0.501-0.307 0.562s0.215 0.112 0.501 0.112c0.47 0 0.532-0.031 0.869-0.45 0.204-0.235 0.368-0.491 0.368-0.562s-0.204-0.112-0.562-0.112c-0.542 0-0.562 0.010-0.869 0.45z"></path>
            <path d="M17.513 18.382c-0.245 0.020-0.44 0.051-0.44 0.082s0.174 0.256 0.378 0.511c0.358 0.419 0.419 0.45 0.869 0.45 0.266 0 0.491-0.031 0.491-0.072 0-0.133-0.552-0.859-0.705-0.93-0.092-0.041-0.358-0.061-0.593-0.041z"></path>
            <path d="M18.546 18.423c-0.031 0.041 0.092 0.286 0.276 0.542 0.327 0.45 0.348 0.46 0.889 0.46h0.552l-0.307-0.542-0.307-0.532h-0.521c-0.297-0.010-0.562 0.031-0.583 0.072z"></path>
            <path d="M19.936 18.351c0 0.112 0.327 0.716 0.491 0.889 0.102 0.123 0.307 0.184 0.603 0.184 0.235 0 0.44-0.031 0.44-0.061 0-0.041-0.123-0.286-0.276-0.562-0.266-0.491-0.276-0.501-0.767-0.501-0.266 0-0.491 0.020-0.491 0.051z"></path>
            <path d="M21.47 18.587c0 0.164 0.072 0.358 0.153 0.429s0.153 0.194 0.153 0.266c0 0.092 0.123 0.143 0.358 0.143 0.348 0 0.358-0.010 0.297-0.286-0.204-0.808-0.194-0.787-0.583-0.818-0.358-0.031-0.378-0.020-0.378 0.266z"></path>
            <path d="M22.574 18.863l0.164 0.573 0.93-0.061 0.031-0.542 0.031-0.532h-1.309l0.153 0.562z"></path>
            <path d="M23.944 18.832c0.031 0.491 0.051 0.542 0.286 0.573 0.378 0.031 0.501-0.092 0.603-0.624l0.082-0.48h-1.002l0.031 0.532z"></path>
            <path d="M25.109 18.382c-0.031 0.051-0.082 0.276-0.123 0.501-0.072 0.48 0.031 0.583 0.47 0.491 0.235-0.051 0.327-0.153 0.45-0.532 0.092-0.266 0.164-0.491 0.164-0.511 0-0.072-0.91-0.020-0.961 0.051z"></path>
            <path d="M26.183 18.679c-0.072 0.215-0.153 0.45-0.174 0.511-0.041 0.102 0.082 0.133 0.44 0.133 0.48 0 0.511-0.020 0.726-0.399 0.327-0.573 0.297-0.624-0.317-0.624-0.542 0-0.552 0-0.675 0.378z"></path>
            <path d="M15.356 18.914l0.44 0.511h1.779l-0.757-1.022h-1.902l0.44 0.511z"></path>
            <path d="M67.067 20.703c0 1.39-0.010 1.503-0.174 1.421-0.307-0.133-1.38-0.174-1.769-0.051-1.36 0.409-2.167 2.454-1.697 4.304 0.215 0.818 0.552 1.35 1.104 1.707 0.593 0.399 1.718 0.46 2.351 0.133 0.378-0.194 0.429-0.204 0.511-0.061 0.072 0.123 0.266 0.164 0.787 0.164h0.705l-0.092-0.389c-0.051-0.204-0.092-2.198-0.092-4.427v-4.059l-0.225-0.051c-0.133-0.031-0.501-0.092-0.818-0.123l-0.593-0.072v1.503zM66.74 23.412l0.327 0.204v3.057l-0.266 0.204c-0.511 0.409-1.36 0.184-1.564-0.409-0.123-0.358-0.153-1.81-0.051-2.331 0.041-0.174 0.194-0.46 0.348-0.624 0.337-0.368 0.716-0.399 1.206-0.102z"></path>
            <path d="M70.553 19.364c-0.91 0.501-0.511 1.902 0.552 1.902 0.317 0 0.828-0.44 0.91-0.777 0.215-0.849-0.695-1.554-1.462-1.125z"></path>
            <path d="M85.388 19.394l-0.644 0.153 0.031 3.957c0.031 4.386 0.020 4.284 0.726 4.713 0.348 0.215 1.421 0.286 1.697 0.112 0.204-0.133-0.041-1.033-0.286-1.033-0.399 0-0.419-0.133-0.419-3.619 0-1.861-0.031-3.629-0.061-3.926-0.082-0.603-0.051-0.593-1.043-0.358z"></path>
            <path d="M27.082 19.609c-0.092 0.010-0.235 0.194-0.327 0.389s-0.245 0.378-0.327 0.409c-0.225 0.092-0.184 0.245 0.051 0.245 0.225 0 1.125-0.767 1.125-0.961 0-0.112-0.194-0.153-0.521-0.082z"></path>
            <path d="M27.686 20.018c-0.276 0.256-0.491 0.501-0.491 0.542 0 0.051 0.184 0.092 0.409 0.092 0.358 0 0.491-0.072 0.93-0.48 0.276-0.256 0.48-0.491 0.46-0.521-0.031-0.020-0.225-0.051-0.44-0.061-0.327-0.010-0.46 0.051-0.869 0.429z"></path>
            <path d="M28.882 20.1l-0.613 0.552h0.399c0.327 0 0.491-0.082 0.951-0.47 0.307-0.266 0.532-0.501 0.501-0.532s-0.184-0.061-0.348-0.072c-0.215-0.020-0.429 0.102-0.889 0.521z"></path>
            <path d="M30.088 20.028c-0.296 0.266-0.542 0.521-0.542 0.552 0 0.041 0.143 0.072 0.317 0.072 0.327 0 1.728-0.838 1.728-1.033 0-0.051-0.215-0.092-0.48-0.092-0.44 0.010-0.552 0.061-1.022 0.501z"></path>
            <path d="M94.671 19.68c-1.626 0.45-2.658 1.902-2.811 3.967-0.164 2.065 0.613 3.721 2.075 4.437 1.084 0.532 2.965 0.419 3.742-0.204l0.307-0.245-0.388-0.521-0.378-0.532-0.276 0.204c-0.613 0.44-1.677 0.45-2.259 0.020-0.716-0.532-0.971-1.401-0.91-3.128 0.031-0.869 0.092-1.247 0.256-1.605 0.511-1.135 1.615-1.503 2.679-0.9 0.184 0.112 0.348 0.194 0.368 0.174 0.521-0.716 0.685-1.053 0.593-1.196-0.286-0.46-2.034-0.736-2.996-0.47z"></path>
            <path d="M19.691 19.721c-0.041 0.051 0.174 0.307 0.46 0.562 0.368 0.327 0.613 0.47 0.818 0.47 0.164 0 0.297-0.031 0.297-0.082 0-0.041-0.184-0.286-0.419-0.562-0.337-0.399-0.47-0.48-0.757-0.48-0.194 0-0.368 0.041-0.399 0.092z"></path>
            <path d="M20.907 19.732c-0.041 0.072 0.112 0.307 0.368 0.573 0.675 0.685 0.92 0.573 0.47-0.215-0.235-0.419-0.685-0.603-0.838-0.358z"></path>
            <path d="M21.838 19.711c-0.031 0.051 0.051 0.297 0.184 0.542 0.194 0.368 0.307 0.46 0.562 0.48 0.368 0.041 0.378-0.010 0.112-0.634-0.174-0.409-0.235-0.47-0.501-0.47-0.164 0-0.327 0.041-0.358 0.082z"></path>
            <path d="M22.881 19.691c-0.072 0.072 0.051 0.532 0.225 0.849 0.072 0.153 0.194 0.215 0.337 0.194 0.194-0.031 0.225-0.102 0.256-0.573l0.031-0.532h-0.399c-0.215 0-0.419 0.031-0.45 0.061z"></path>
            <path d="M23.923 20.141c0 0.429 0.031 0.511 0.194 0.511 0.184 0 0.307-0.215 0.47-0.797 0.061-0.204 0.031-0.225-0.296-0.225h-0.368v0.511z"></path>
            <path d="M24.741 19.885c-0.051 0.143-0.133 0.378-0.164 0.521-0.061 0.235-0.041 0.256 0.225 0.225 0.215-0.020 0.348-0.133 0.521-0.44 0.133-0.225 0.235-0.44 0.235-0.491 0-0.041-0.164-0.072-0.358-0.072-0.296 0-0.378 0.051-0.46 0.256z"></path>
            <path d="M25.539 20.141c-0.307 0.552-0.245 0.705 0.225 0.511 0.245-0.102 0.92-0.808 0.92-0.961 0-0.031-0.194-0.061-0.429-0.061-0.419 0-0.45 0.031-0.716 0.511z"></path>
            <path d="M16.818 20.243l0.695 0.511h0.818c0.46 0 0.787-0.041 0.736-0.082-0.061-0.051-0.337-0.276-0.624-0.511l-0.532-0.429h-1.789l0.695 0.511z"></path>
            <path d="M18.464 19.946c0.399 0.45 1.043 0.808 1.431 0.808h0.389l-0.501-0.511c-0.47-0.48-0.542-0.511-1.012-0.511h-0.501l0.194 0.215z"></path>
            <path d="M47.898 19.854c-0.020 0.072-0.092 0.726-0.153 1.462-0.061 0.726-0.225 2.525-0.358 3.987-0.143 1.462-0.256 2.74-0.256 2.842 0 0.164 0.092 0.174 0.849 0.153l0.838-0.031 0.174-2.454c0.092-1.35 0.174-2.658 0.184-2.914 0.010-0.368 0.143 0.041 0.675 1.994 0.358 1.35 0.705 2.679 0.777 2.944l0.123 0.491 1.523-0.061 0.767-2.709c0.419-1.493 0.787-2.781 0.818-2.863 0.061-0.153 0.245 1.963 0.378 4.325l0.072 1.298h1.707l-0.061-0.542c-0.020-0.286-0.194-2.208-0.378-4.263l-0.327-3.732-2.239-0.061-0.634 2.382c-0.358 1.309-0.675 2.535-0.705 2.709-0.041 0.184-0.092 0.337-0.133 0.337-0.031 0-0.358-1.217-0.736-2.689l-0.665-2.679-1.094-0.031c-0.828-0.020-1.104 0.010-1.145 0.102z"></path>
            <path d="M25.61 21.265c-0.215 0.225-0.44 0.409-0.501 0.409-0.051 0 0.020-0.133 0.174-0.286 0.337-0.348 0.348-0.429 0.041-0.429-0.143 0-0.327 0.123-0.47 0.317-0.276 0.368-0.409 0.327-0.164-0.051 0.174-0.266 0.174-0.266-0.082-0.266-0.204 0-0.276 0.061-0.327 0.307-0.102 0.46-0.297 0.521-0.215 0.061 0.041-0.235 0.031-0.368-0.041-0.368-0.051 0-0.102 0.112-0.102 0.245 0 0.143-0.041 0.286-0.102 0.317-0.061 0.041-0.102-0.072-0.102-0.245 0-0.245-0.041-0.317-0.204-0.317-0.225 0-0.256 0.123-0.102 0.419 0.061 0.112 0.072 0.194 0.010 0.194-0.051 0-0.143-0.143-0.204-0.307-0.072-0.235-0.164-0.307-0.368-0.307-0.245 0-0.256 0.020-0.143 0.225 0.072 0.133 0.174 0.266 0.235 0.307s0.072 0.112 0.020 0.153c-0.041 0.041-0.215-0.092-0.389-0.307-0.164-0.204-0.378-0.378-0.47-0.378-0.112 0-0.061 0.102 0.184 0.358 0.184 0.194 0.317 0.378 0.276 0.419-0.031 0.031-0.235-0.123-0.46-0.358-0.296-0.307-0.48-0.419-0.695-0.409h-0.297l0.245 0.174c0.491 0.337 0.675 0.511 0.603 0.583-0.041 0.041-0.286-0.092-0.552-0.297-0.521-0.399-0.808-0.511-1.176-0.45-0.204 0.031-0.133 0.102 0.419 0.378 0.368 0.194 0.613 0.368 0.552 0.389s-0.46-0.153-0.9-0.378c-0.726-0.389-0.849-0.419-1.493-0.389-0.389 0.010-0.695 0.031-0.685 0.041 0.092 0.092 1.574 0.593 2.065 0.695l0.613 0.133 0.082 0.705c0.051 0.389 0.072 1.36 0.041 2.167-0.051 1.605-0.112 1.789-0.726 1.942l-0.317 0.082v1.523h7.974l0.031-0.746c0.031-0.716 0.020-0.736-0.204-0.736-0.286 0-0.654-0.235-0.808-0.532-0.072-0.133-0.112-0.951-0.102-2.351 0.010-1.38-0.020-2.198-0.092-2.28-0.082-0.092-0.031-0.153 0.194-0.256 0.164-0.061 0.378-0.204 0.48-0.317 0.164-0.184 0.164-0.194-0.164-0.194-0.317 0-0.736 0.245-1.176 0.675-0.092 0.092-0.194 0.133-0.235 0.092s0.082-0.194 0.266-0.348c0.368-0.317 0.409-0.419 0.143-0.419-0.102 0-0.368 0.184-0.583 0.409zM24.128 21.991c0 0.184-0.020 0.194-0.153 0.092-0.082-0.072-0.153-0.164-0.153-0.215s0.072-0.092 0.153-0.092c0.092 0 0.153 0.092 0.153 0.215zM24.537 21.868c0 0.051-0.072 0.143-0.153 0.215-0.123 0.102-0.153 0.102-0.153-0.020 0-0.082 0.031-0.184 0.072-0.215 0.092-0.102 0.235-0.092 0.235 0.020zM24.046 22.349c0.603 0.644 0.726 0.951 0.562 1.431-0.143 0.429-0.46 0.654-0.337 0.235 0.225-0.716 0.215-0.777-0.389-1.401-0.317-0.327-0.573-0.634-0.573-0.665 0-0.204 0.358-0.010 0.736 0.399zM23.566 22.809c0.041 0.051 0 0.184-0.092 0.286-0.204 0.225-0.215 0.818 0 1.114 0.266 0.389 0.348 0.256 0.348-0.603 0-0.613 0.031-0.818 0.133-0.777 0.082 0.020 0.123 0.327 0.133 0.971 0.020 0.777 0.051 0.981 0.235 1.206 0.296 0.378 0.184 0.44-0.164 0.102-0.164-0.153-0.46-0.419-0.675-0.603-0.307-0.256-0.399-0.419-0.45-0.746-0.082-0.603 0.317-1.309 0.532-0.951zM24.077 25.508c0 0.307-0.051 0.511-0.123 0.532-0.102 0.041-0.133-0.112-0.133-0.532s0.031-0.573 0.133-0.542c0.072 0.031 0.123 0.235 0.123 0.542zM23.535 25.273c-0.072 0.072-0.123 0.082-0.123 0.020 0-0.143 0.123-0.266 0.194-0.194 0.020 0.031-0.010 0.112-0.072 0.174z"></path>
            <path d="M27.553 21.122c-0.573 0.378-0.665 0.491-0.358 0.399 0.501-0.143 1.227-0.491 1.227-0.573 0-0.184-0.47-0.082-0.869 0.174z"></path>
            <path d="M28.708 21.020c-0.245 0.123-0.389 0.348-0.235 0.348s0.869-0.348 0.869-0.419c0-0.143-0.327-0.102-0.634 0.072z"></path>
            <path d="M74.878 21.96c-0.705 0.245-1.012 0.46-1.37 0.961-0.481 0.654-0.644 1.37-0.593 2.525 0.061 1.513 0.47 2.259 1.462 2.73 0.951 0.45 2.382 0.266 3.088-0.389l0.225-0.204-0.327-0.45c-0.184-0.245-0.358-0.44-0.399-0.45-0.041 0-0.245 0.112-0.45 0.256-0.399 0.266-0.93 0.337-1.278 0.153-0.409-0.225-0.552-0.695-0.552-1.891 0-0.91 0.041-1.196 0.194-1.482 0.368-0.675 0.808-0.787 1.513-0.389 0.348 0.194 0.419 0.204 0.491 0.082 0.051-0.082 0.204-0.317 0.358-0.511l0.266-0.358-0.266-0.225c-0.276-0.245-1.155-0.542-1.574-0.542-0.143 0.010-0.501 0.092-0.787 0.184z"></path>
            <path d="M80.593 21.889c-0.634 0.102-1.973 0.685-1.973 0.849 0 0.174 0.613 1.104 0.695 1.063 0.828-0.429 1.36-0.624 1.738-0.634 0.532-0.010 0.736 0.194 0.736 0.757v0.368l-0.961 0.112c-1.452 0.174-2.075 0.573-2.321 1.503-0.143 0.521-0.051 1.309 0.194 1.728 0.511 0.879 2.27 1.135 3.21 0.47l0.286-0.215 0.368 0.317c0.194 0.174 0.409 0.317 0.481 0.317s0.307-0.204 0.521-0.46l0.378-0.46-0.256-0.317c-0.266-0.307-0.266-0.327-0.266-2.116 0-0.992-0.051-1.973-0.102-2.178-0.112-0.399-0.521-0.849-0.92-0.992-0.429-0.164-1.247-0.215-1.81-0.112zM81.789 26.162c0 0.644-0.020 0.726-0.266 0.92-0.603 0.47-1.37 0.102-1.37-0.654 0-0.603 0.45-0.91 1.411-0.961 0.215-0.010 0.225 0.031 0.225 0.695z"></path>
            <path d="M117.603 21.879c-1.421 0.297-2.137 1.574-1.574 2.822 0.245 0.542 0.685 0.808 1.697 1.012 0.981 0.204 1.155 0.297 1.278 0.624 0.133 0.337-0.123 0.838-0.47 0.92-0.419 0.102-1.135-0.041-1.799-0.348l-0.603-0.296-0.296 0.583-0.296 0.593 0.603 0.256c1.554 0.675 3.088 0.573 3.977-0.266 0.971-0.92 0.797-2.484-0.348-3.026-0.245-0.112-0.501-0.215-0.552-0.215-0.337 0-1.452-0.45-1.544-0.624-0.296-0.552 0.388-1.002 1.247-0.818 0.276 0.061 0.634 0.184 0.787 0.266l0.296 0.143 0.215-0.511c0.123-0.276 0.194-0.552 0.164-0.603-0.102-0.164-1.125-0.491-1.738-0.542-0.337-0.031-0.808-0.020-1.043 0.031z"></path>
            <path d="M58.704 22.001c-0.45 0.153-1.217 0.838-1.452 1.319-0.112 0.215-0.256 0.716-0.307 1.125-0.194 1.37 0.123 2.566 0.869 3.251 0.634 0.583 1.084 0.757 2.045 0.757 0.675 0.010 0.92-0.041 1.38-0.256 0.307-0.143 0.654-0.327 0.757-0.419 0.194-0.143 0.194-0.153-0.102-0.624-0.164-0.256-0.317-0.46-0.348-0.44-1.135 0.675-1.943 0.736-2.474 0.194-0.286-0.276-0.552-1.053-0.409-1.196 0.031-0.031 0.849-0.051 1.83-0.051h1.769v-0.562c0-2.035-0.849-3.108-2.505-3.18-0.389-0.020-0.869 0.020-1.053 0.082zM60.35 23.433c0.112 0.143 0.204 0.44 0.215 0.665l0.010 0.389-1.922 0.061 0.051-0.47c0.112-0.992 1.104-1.37 1.646-0.644z"></path>
            <path d="M71.31 21.93c-0.051 0.020-0.317 0.061-0.583 0.102l-0.491 0.061v6.226h1.636v-6.441l-0.225 0.010c-0.133 0-0.276 0.020-0.337 0.041z"></path>
            <path d="M100.396 21.971c-0.828 0.266-1.298 0.705-1.697 1.595-0.245 0.521-0.286 0.757-0.286 1.534-0.010 1.564 0.511 2.566 1.626 3.077 0.583 0.276 1.452 0.327 2.116 0.123 0.624-0.184 1.36-0.9 1.626-1.595 0.337-0.838 0.337-2.403 0.010-3.139-0.286-0.613-0.746-1.114-1.298-1.401-0.44-0.235-1.646-0.348-2.096-0.194zM101.746 23.249c0.337 0.256 0.491 0.828 0.491 1.861 0 1.605-0.348 2.28-1.114 2.147-0.695-0.112-0.93-0.654-0.93-2.127 0-0.981 0.112-1.452 0.429-1.789 0.245-0.266 0.838-0.317 1.125-0.092z"></path>
            <path d="M105.477 22.052c-0.593 0.164-0.603 0.164-0.532 0.48 0.041 0.174 0.092 1.544 0.123 3.047l0.051 2.74h1.615v-4.601l0.337-0.204c0.215-0.143 0.47-0.204 0.726-0.184l0.409 0.031 0.184-0.613c0.102-0.337 0.164-0.675 0.133-0.746-0.061-0.153-0.797-0.164-1.104-0.010-0.123 0.061-0.368 0.256-0.542 0.419l-0.317 0.296-0.123-0.419c-0.133-0.45-0.123-0.45-0.961-0.235z"></path>
            <path d="M109.986 22.001l-0.593 0.102v4.437c0 5.050-0.112 4.55 0.971 4.253l0.613-0.174 0.020-1.206c0-0.654 0.051-1.196 0.102-1.196 0.041 0 0.235 0.051 0.429 0.112 0.562 0.184 1.585 0.061 2.065-0.256 0.46-0.307 0.961-1.033 1.125-1.636 0.061-0.225 0.092-0.91 0.072-1.544-0.031-1.033-0.061-1.196-0.337-1.738-0.44-0.869-1.043-1.227-2.034-1.227-0.573 0-0.808 0.051-1.114 0.225-0.481 0.286-0.481 0.286-0.481-0.020 0-0.143-0.051-0.245-0.123-0.245-0.072 0.010-0.399 0.061-0.716 0.112zM112.634 23.361c0.307 0.215 0.44 0.757 0.44 1.738 0 1.002-0.123 1.472-0.47 1.799-0.317 0.297-0.9 0.327-1.298 0.061l-0.276-0.174v-3.169l0.337-0.204c0.388-0.245 0.961-0.266 1.268-0.051z"></path>
        </symbol>
        <symbol width="115px" height="32px" id="icon-image5" viewBox="0 0 91 32" fill="white">
            <path d="M17.464 2.261c-1.020 0.545-1.423 1.060-1.756 2.201-0.232 0.828-0.212 1.242 0.131 1.837 0.414 0.717 0.737 1.009 1.070 0.949 0.141-0.030 0.283-0.010 0.313 0.030 0.141 0.222 0.495 0.040 1.1-0.596 1.282-1.312 1.544-2.544 0.808-3.806-0.474-0.828-0.949-0.999-1.666-0.616z"></path>
            <path d="M26.498 5.603c-1.837 0.404-7.238 2.191-9.842 3.24-4.331 1.767-9.428 4.3-10.216 5.098l-0.303 0.303 0.262 0.202c0.172 0.141 0.262 0.303 0.262 0.495 0 0.353 0.162 0.474 0.384 0.283 0.091-0.081 0.394-0.273 0.666-0.424 0.394-0.232 0.535-0.262 0.717-0.182 0.192 0.091 0.384 0.030 1.11-0.333 1.908-0.959 6.965-2.968 9.943-3.957 1.565-0.515 6.461-1.918 8.035-2.291l0.727-0.182 0.050-0.414c0.030-0.252 0-0.545-0.071-0.727-0.081-0.162-0.192-0.464-0.273-0.656-0.242-0.676-0.343-0.707-1.454-0.454z"></path>
            <path d="M29.83 8.631c-0.050 0.020-1.555 0.495-3.331 1.060-3.18 1.009-6.582 2.201-7.157 2.493l-0.283 0.151 0.485 0.333c0.273 0.182 0.565 0.414 0.656 0.515 0.091 0.111 0.384 0.404 0.656 0.656s0.767 0.747 1.090 1.090l0.596 0.636 2.332-1.11c1.282-0.606 3.271-1.524 4.432-2.039 2.009-0.898 2.090-0.949 2.090-1.221 0-0.424-0.353-1.292-0.808-1.999-0.373-0.575-0.485-0.656-0.757-0.565z"></path>
            <path d="M31.849 13.577c-1.272 0.293-2.867 0.676-3.533 0.848-1.272 0.343-5.219 1.514-5.29 1.585-0.020 0.020 0.151 0.252 0.394 0.515 0.232 0.262 0.545 0.727 0.686 1.030l0.273 0.545 2.251-0.061 2.261-0.071 1.524-0.485c0.848-0.273 2.261-0.686 3.15-0.929 0.888-0.232 1.676-0.485 1.746-0.555 0.232-0.212 0.172-1.504-0.101-2.271-0.232-0.656-0.232-0.656-0.636-0.676-0.222-0.010-1.444 0.222-2.726 0.525z"></path>
            <path d="M12.114 15.172c-5.269 2.554-9.237 4.694-9.338 5.027-0.151 0.464 0.404 2.211 0.697 2.211 0.091 0 0.626-0.182 1.191-0.414 1.161-0.454 3.614-1.312 3.614-1.252 0 0.020-1.151 0.636-2.544 1.373-3.21 1.676-3.735 1.999-3.846 2.312-0.182 0.525 0.474 1.999 1.050 2.352 0.131 0.081 0.777-0.182 2.826-1.161 1.464-0.697 3.543-1.635 4.613-2.1 1.060-0.474 1.938-0.888 1.938-0.939 0-0.091 0.485-1.433 0.929-2.594 0.121-0.303 0.555-1.373 0.969-2.372 0.424-0.999 0.838-2.059 0.939-2.352s0.222-0.585 0.262-0.656c0.111-0.172 0.333-0.797 0.333-0.959 0-0.061-0.061-0.121-0.121-0.121-0.071 0.010-1.656 0.747-3.513 1.645z"></path>
            <path d="M18.362 18.241c-0.172 0.373-0.464 1.020-0.656 1.423-0.192 0.414-0.343 0.767-0.343 0.787s-0.101 0.212-0.232 0.424c-0.131 0.202-0.525 0.919-0.878 1.585s-0.787 1.474-0.949 1.787c-0.252 0.464-0.353 0.575-0.565 0.565-0.141 0-0.404 0.030-0.596 0.071-0.212 0.040-0.313 0.030-0.273-0.030 0.081-0.131-0.474-0.323-0.737-0.252-0.121 0.030-0.212 0.010-0.212-0.050s-0.162-0.162-0.353-0.232c-0.232-0.091-0.384-0.222-0.414-0.363-0.040-0.131-0.081-0.232-0.091-0.232-0.061 0-1.524 0.838-1.787 1.030-0.232 0.162-0.283 0.273-0.283 0.626 0 0.868 0.575 2.079 0.979 2.079 0.091 0 1.413-0.626 2.948-1.403 1.534-0.767 3.836-1.888 5.128-2.483l2.342-1.090-0.050-0.313c-0.242-1.383-0.959-2.958-1.746-3.806-0.858-0.929-0.868-0.929-1.232-0.121z"></path>
            <path d="M24.732 18.897c0 0.020-0.202 0.787-0.444 1.716l-0.444 1.696h0.394c0.363 0 0.394-0.020 0.485-0.384 0.061-0.202 0.192-0.717 0.303-1.131l0.192-0.757 0.010 1.131 0.010 1.141h0.767l0.545-1.11c0.303-0.606 0.555-1.090 0.575-1.080 0.010 0.020-0.101 0.515-0.262 1.11l-0.293 1.080h0.394c0.434 0 0.343 0.222 0.888-1.989 0.172-0.676 0.313-1.282 0.313-1.332 0-0.071-0.232-0.111-0.555-0.111h-0.555l-0.545 1.080-0.555 1.090v-1.090l-0.010-1.080h-0.606c-0.333 0-0.606 0.010-0.606 0.020z"></path>
            <path d="M28.77 18.897c0 0.020-0.202 0.787-0.444 1.716l-0.444 1.696h1.201c0.888 0 1.201-0.030 1.201-0.131 0-0.061 0.030-0.222 0.061-0.353 0.061-0.212 0.040-0.222-0.666-0.222-0.626 0-0.717-0.020-0.666-0.162 0.030-0.091 0.061-0.222 0.061-0.303 0-0.101 0.151-0.141 0.606-0.141 0.596 0 0.606 0 0.686-0.333l0.081-0.323-0.535-0.030c-0.545-0.030-0.616-0.101-0.474-0.464 0.050-0.121 0.212-0.162 0.747-0.162 0.676 0 0.686 0 0.797-0.313 0.061-0.182 0.111-0.363 0.111-0.404 0-0.050-0.525-0.091-1.161-0.091s-1.161 0.010-1.161 0.020z"></path>
            <path d="M31.546 18.998c-0.020 0.071-0.222 0.848-0.444 1.716l-0.394 1.595h0.979c0.888 0 1.020-0.020 1.393-0.273 0.565-0.363 0.949-1.080 1.009-1.888 0.050-0.565 0.030-0.656-0.202-0.929-0.242-0.283-0.293-0.293-1.272-0.323-0.787-0.030-1.030-0.010-1.070 0.101zM33.11 19.836c0.081 0.101 0.101 0.303 0.061 0.606-0.091 0.596-0.606 1.161-1.060 1.161-0.172 0-0.313-0.030-0.313-0.081 0-0.040 0.101-0.464 0.222-0.959l0.232-0.878h0.363c0.202 0 0.424 0.071 0.495 0.151z"></path>
            <path d="M34.766 19.15c-0.040 0.162-0.242 0.929-0.444 1.716l-0.363 1.444h1.191c0.888 0 1.191-0.030 1.191-0.131 0-0.061 0.030-0.222 0.061-0.353 0.061-0.212 0.040-0.222-0.656-0.222-0.394 0-0.717-0.020-0.717-0.040 0-0.030 0.040-0.162 0.101-0.303 0.091-0.242 0.151-0.262 0.646-0.262 0.596 0 0.606-0.010 0.707-0.434 0.061-0.273 0.061-0.273-0.495-0.273-0.565 0-0.636-0.061-0.495-0.444 0.050-0.121 0.212-0.162 0.747-0.162 0.757 0 0.747 0 0.858-0.485l0.071-0.323h-2.342l-0.061 0.273z"></path>
            <path d="M38.208 19.069c-0.767 0.343-1.282 1.181-1.292 2.1-0.010 0.424 0.030 0.575 0.222 0.777 0.333 0.353 0.828 0.495 1.474 0.414 0.495-0.061 0.535-0.081 0.596-0.373 0.030-0.172 0.061-0.333 0.061-0.373 0-0.030-0.262-0.040-0.575-0.020-0.666 0.040-0.838-0.101-0.838-0.686 0-0.797 0.686-1.393 1.474-1.282 0.424 0.050 0.444 0.050 0.525-0.273 0.050-0.172 0.071-0.353 0.050-0.404-0.081-0.151-1.292-0.071-1.696 0.121z"></path>
            <path d="M40.449 18.948c-0.030 0.050-0.212 0.737-0.414 1.544-0.212 0.808-0.394 1.544-0.424 1.635-0.050 0.151 0.020 0.182 0.404 0.182 0.444 0 0.464-0.010 0.555-0.384 0.303-1.131 0.717-2.847 0.717-2.938 0-0.121-0.767-0.151-0.838-0.040z"></path>
            <path d="M41.893 18.897c0 0.020-0.202 0.797-0.444 1.726l-0.444 1.696 0.828-0.061 0.262-1.060 0.262-1.050 0.283 1.080 0.293 1.080h1.050l0.414-1.605c0.232-0.878 0.424-1.656 0.424-1.716 0-0.081-0.131-0.111-0.373-0.091l-0.384 0.030-0.273 1.009c-0.141 0.555-0.273 1.030-0.283 1.060s-0.141-0.424-0.293-1.009l-0.262-1.060-0.525-0.030c-0.293-0.020-0.535-0.020-0.535 0z"></path>
            <path d="M45.83 18.948c-0.373 0.141-0.707 0.575-0.707 0.929 0 0.343 0.081 0.505 0.545 1.161 0.151 0.222 0.161 0.293 0.050 0.424-0.101 0.131-0.252 0.151-0.656 0.111l-0.525-0.050-0.061 0.363c-0.030 0.202-0.040 0.373-0.020 0.394 0.010 0.020 0.303 0.061 0.636 0.091 1.413 0.151 1.979-0.828 1.151-1.979-0.161-0.232-0.273-0.485-0.242-0.565 0.071-0.182 0.454-0.283 0.747-0.192 0.353 0.121 0.586-0.555 0.232-0.697-0.192-0.071-0.939-0.071-1.151 0.010z"></path>
            <path d="M49.968 18.948c-0.081 0.030-0.273 0.172-0.424 0.313-0.404 0.373-0.384 0.838 0.081 1.504 0.313 0.454 0.343 0.555 0.232 0.697-0.091 0.111-0.262 0.151-0.636 0.121-0.485-0.030-0.505-0.020-0.575 0.273-0.111 0.384-0.030 0.454 0.636 0.525 1.322 0.131 1.938-0.818 1.201-1.847-0.505-0.697-0.343-1.060 0.394-0.898 0.262 0.061 0.313 0.030 0.414-0.212 0.081-0.242 0.071-0.313-0.071-0.414-0.182-0.131-0.959-0.162-1.252-0.061z"></path>
            <path d="M51.715 20.593l-1.131 1.716h0.495c0.485 0 0.505-0.010 0.767-0.454s0.273-0.454 0.797-0.454h0.545l0.030 0.424 0.030 0.434 0.485 0.030c0.262 0.020 0.474-0.010 0.474-0.050s-0.071-0.717-0.151-1.494c-0.081-0.777-0.151-1.514-0.151-1.645 0-0.202-0.050-0.222-0.535-0.222h-0.535l-1.12 1.716zM53.168 20.563c-0.030 0.020-0.172 0.030-0.313 0.010l-0.262-0.030 0.283-0.454 0.273-0.454 0.030 0.444c0.020 0.232 0.010 0.454-0.010 0.485z"></path>
            <path d="M55.127 19.25c-0.303 1.171-0.717 2.857-0.717 2.958 0 0.071 0.151 0.101 0.373 0.081l0.373-0.030 0.242-0.989c0.141-0.545 0.283-0.959 0.323-0.909 0.040 0.040 0.172 0.505 0.303 1.009l0.222 0.939h0.545c0.535 0 0.535 0 0.636-0.384 0.303-1.161 0.717-2.847 0.717-2.948 0-0.071-0.141-0.101-0.373-0.081l-0.363 0.030-0.242 0.909c-0.131 0.495-0.273 0.979-0.303 1.060s-0.182-0.323-0.323-0.909l-0.262-1.060-1.050-0.061-0.101 0.384z"></path>
            <path d="M59.155 18.948c-0.081 0.030-0.273 0.172-0.424 0.313-0.404 0.373-0.384 0.838 0.081 1.504 0.313 0.454 0.343 0.555 0.232 0.697-0.091 0.111-0.262 0.151-0.636 0.121-0.474-0.030-0.505-0.020-0.575 0.262-0.050 0.162-0.061 0.333-0.030 0.373 0.071 0.121 0.909 0.222 1.292 0.151 0.858-0.162 1.141-1.070 0.565-1.837-0.515-0.676-0.353-0.999 0.444-0.929 0.242 0.030 0.303-0.020 0.373-0.252 0.061-0.212 0.030-0.293-0.111-0.373-0.202-0.101-0.949-0.121-1.211-0.030z"></path>
            <path d="M62.738 18.998c-0.020 0.071-0.222 0.848-0.444 1.716l-0.394 1.595h0.878l0.161-0.525c0.081-0.283 0.151-0.585 0.151-0.656 0-0.091 0.161-0.131 0.545-0.131 0.596 0 0.606-0.010 0.707-0.434 0.061-0.273 0.061-0.273-0.444-0.273s-0.515-0.010-0.485-0.283c0.030-0.262 0.050-0.273 0.697-0.303 0.596-0.030 0.686-0.050 0.737-0.252 0.151-0.575 0.141-0.575-0.999-0.575-0.767 0-1.080 0.040-1.11 0.121z"></path>
            <path d="M65.373 18.958c-0.030 0.040-0.212 0.737-0.414 1.544-0.202 0.797-0.384 1.534-0.414 1.625-0.050 0.151 0.010 0.182 0.394 0.182h0.444l0.182-0.808c0.101-0.434 0.212-0.777 0.252-0.757 0.040 0.030 0.101 0.283 0.141 0.575 0.131 0.999 0.131 0.989 0.666 0.989h0.474l-0.131-0.585c-0.192-0.787-0.182-0.878 0.111-1.009 0.485-0.222 0.828-1.11 0.575-1.504-0.040-0.061-0.202-0.172-0.353-0.222-0.333-0.131-1.847-0.151-1.928-0.030zM66.665 19.644c0.202 0.081 0.212 0.384 0 0.585-0.192 0.192-0.868 0.222-0.797 0.030 0.212-0.596 0.262-0.676 0.444-0.676 0.111 0 0.262 0.030 0.353 0.061z"></path>
            <path d="M68.997 19.069c-0.545 0.242-1.020 0.808-1.211 1.444-0.192 0.656-0.192 0.828 0.010 1.242 0.384 0.808 1.777 0.878 2.625 0.131 0.979-0.868 1.121-2.403 0.242-2.857-0.394-0.202-1.171-0.192-1.666 0.040zM70.037 19.664c0.071 0.050 0.172 0.232 0.222 0.424 0.182 0.646-0.424 1.534-1.060 1.534-0.384 0-0.555-0.202-0.555-0.646 0-0.878 0.828-1.666 1.393-1.312z"></path>
            <path d="M71.864 19.301c-0.061 0.242-0.262 1.020-0.444 1.726l-0.343 1.292 0.838-0.061 0.525-2.12 0.182 0.707c0.404 1.625 0.303 1.464 0.909 1.464h0.535l0.424-1.645c0.232-0.898 0.414-1.676 0.414-1.716 0-0.050-0.172-0.071-0.374-0.050l-0.384 0.030-0.273 1.009c-0.141 0.555-0.273 1.030-0.283 1.060s-0.141-0.424-0.293-1.009l-0.273-1.060-1.040-0.061-0.121 0.434z"></path>
            <path d="M75.205 19.139c-0.182 0.464-0.131 0.545 0.293 0.545h0.394l-0.293 1.131c-0.162 0.626-0.323 1.221-0.353 1.312-0.050 0.151 0.010 0.182 0.404 0.182 0.515 0 0.404 0.202 0.898-1.666l0.242-0.909 0.404-0.030c0.343-0.020 0.424-0.071 0.474-0.273 0.030-0.131 0.091-0.303 0.121-0.394 0.050-0.141-0.091-0.162-1.211-0.162h-1.272l-0.101 0.262z"></path>
            <path d="M78.072 19.15c-0.040 0.162-0.242 0.929-0.444 1.726l-0.363 1.444 0.919-0.061 0.363-1.413c0.202-0.777 0.394-1.534 0.434-1.696 0.061-0.262 0.050-0.273-0.394-0.273-0.404 0-0.454 0.030-0.515 0.273z"></path>
            <path d="M79.152 20.543c-0.222 0.909-0.414 1.686-0.414 1.716s0.515 0.050 1.151 0.050c1.1 0 1.151-0.010 1.211-0.232 0.121-0.454 0.091-0.474-0.596-0.474-0.676 0-0.747-0.050-0.596-0.444 0.050-0.121 0.202-0.162 0.596-0.162 0.585 0 0.596-0.010 0.697-0.434 0.061-0.273 0.061-0.273-0.495-0.273-0.575 0-0.596-0.010-0.495-0.384 0.061-0.202 0.121-0.222 0.757-0.222 0.656 0 0.707-0.020 0.797-0.262 0.212-0.535 0.192-0.545-1.050-0.545h-1.151l-0.414 1.666z"></path>
            <path d="M82.281 19.25c-0.303 1.141-0.717 2.857-0.717 2.948 0 0.061 0.182 0.111 0.404 0.111 0.384 0 0.404-0.010 0.505-0.434 0.061-0.232 0.172-0.626 0.242-0.878l0.121-0.454 0.141 0.878 0.131 0.888h0.495c0.262 0 0.485-0.020 0.485-0.040 0-0.030-0.071-0.353-0.162-0.737-0.131-0.555-0.131-0.686-0.020-0.727 0.071-0.020 0.283-0.192 0.464-0.373 0.303-0.303 0.333-0.384 0.303-0.818-0.040-0.626-0.242-0.737-1.413-0.737h-0.878l-0.101 0.373zM83.624 19.644c0.192 0.071 0.212 0.454 0.040 0.626-0.071 0.071-0.273 0.121-0.464 0.121-0.333 0-0.333-0.010-0.273-0.333 0.040-0.172 0.091-0.353 0.121-0.404 0.050-0.091 0.353-0.091 0.575-0.010z"></path>
            <path d="M85.37 18.948c-0.050 0.081-0.878 3.22-0.878 3.321 0 0.020 0.525 0.040 1.161 0.040h1.151l0.091-0.333 0.081-0.323-0.686-0.030c-0.697-0.030-0.777-0.081-0.626-0.464 0.050-0.121 0.202-0.162 0.646-0.162 0.515 0 0.585-0.020 0.646-0.232 0.111-0.434 0.081-0.474-0.424-0.474-0.575 0-0.616-0.020-0.545-0.353 0.040-0.242 0.081-0.252 0.737-0.252 0.737 0 0.898-0.111 0.898-0.596 0-0.202-0.061-0.212-1.1-0.212-0.616 0-1.131 0.030-1.151 0.071z"></path>
            <path d="M88.409 19.038c-0.363 0.192-0.626 0.686-0.535 1.030 0.030 0.141 0.202 0.444 0.374 0.686 0.444 0.616 0.363 0.797-0.343 0.787-0.555-0.010-0.565 0-0.626 0.293-0.030 0.162-0.061 0.333-0.061 0.384 0 0.141 1.080 0.222 1.454 0.091 0.828-0.273 0.979-0.979 0.404-1.827-0.454-0.656-0.394-0.858 0.273-0.838 0.242 0.010 0.474-0.040 0.515-0.101 0.131-0.192 0.091-0.545-0.081-0.606-0.293-0.111-1.1-0.050-1.373 0.101z"></path>
            <path d="M39.904 23.288c9.085 0.020 23.965 0.020 33.060 0 9.085-0.010 1.645-0.020-16.535-0.020s-25.62 0.010-16.525 0.020z"></path>
            <path d="M24.227 24.086c-0.141 0.141-0.474 0.373-0.737 0.515-0.414 0.202-0.474 0.262-0.363 0.394 0.121 0.151 0.242 0.151 0.626-0.010 0.131-0.061 0.162-0.030 0.111 0.091-0.040 0.111-0.192 0.162-0.505 0.162-0.404 0-0.444 0.020-0.444 0.252 0 0.222 0.040 0.252 0.394 0.252s0.384 0.020 0.333 0.252c-0.040 0.212-0.101 0.252-0.424 0.252-0.293 0-0.394 0.040-0.434 0.202-0.050 0.202 0 0.202 2.554 0.202 2.281 0 2.614-0.020 2.665-0.162 0.091-0.242 0.091-0.242-0.303-0.242-0.293 0-0.353-0.030-0.303-0.162 0.030-0.091 0.061-0.202 0.061-0.252s0.202-0.091 0.454-0.091c0.414 0 0.454-0.020 0.454-0.252 0-0.222-0.040-0.252-0.363-0.252-0.313 0-0.353-0.030-0.323-0.232 0.020-0.172 0.111-0.232 0.363-0.252 0.242-0.020 0.323-0.081 0.323-0.232 0-0.182-0.091-0.192-1.787-0.192-1.767 0-1.777 0-1.595-0.202 0.182-0.192 0.172-0.202-0.030-0.202-0.111 0-0.273-0.020-0.343-0.050-0.081-0.030-0.252 0.061-0.384 0.212zM24.994 24.893c-0.030 0.091-0.061 0.202-0.061 0.252s-0.111 0.091-0.252 0.091c-0.141 0-0.252-0.040-0.252-0.091 0-0.252 0.151-0.414 0.373-0.414 0.192 0 0.242 0.040 0.192 0.162zM26.044 24.823c0 0.242-0.141 0.414-0.353 0.414-0.182 0-0.212-0.040-0.172-0.252 0.030-0.182 0.111-0.252 0.283-0.252 0.131 0 0.242 0.040 0.242 0.091zM27.074 24.984c-0.050 0.313-0.525 0.373-0.525 0.071 0-0.242 0.091-0.323 0.353-0.323 0.182 0 0.212 0.040 0.172 0.252zM24.712 25.963c-0.040 0.303-0.485 0.394-0.485 0.101 0-0.242 0.081-0.323 0.323-0.323 0.141 0 0.192 0.061 0.162 0.222zM25.802 25.903c-0.030 0.091-0.061 0.202-0.061 0.252s-0.111 0.091-0.252 0.091c-0.141 0-0.252-0.040-0.252-0.091 0-0.252 0.151-0.414 0.373-0.414 0.192 0 0.242 0.040 0.192 0.162zM26.832 25.963c-0.020 0.172-0.111 0.242-0.323 0.262-0.232 0.030-0.283 0-0.222-0.131 0.030-0.091 0.061-0.212 0.061-0.262s0.121-0.091 0.262-0.091c0.212 0 0.252 0.040 0.222 0.222z"></path>
            <path d="M64.363 24.146c-0.030 0.071-0.071 0.252-0.101 0.404-0.061 0.262-0.101 0.283-0.515 0.283-0.474 0-0.565-0.091-0.303-0.303 0.202-0.172 0.101-0.303-0.232-0.303-0.202 0-0.333 0.081-0.454 0.293-0.172 0.303-0.818 0.919-1.141 1.1-0.192 0.111-0.182 0.111 0.010 0.262 0.273 0.212 0.262 0.212 0.787-0.242 0.424-0.373 0.495-0.404 1.070-0.404h0.616l-0.061 0.273c-0.040 0.162-0.091 0.313-0.131 0.353-0.030 0.040-0.424 0.081-0.868 0.101-0.676 0.030-0.808 0.061-0.838 0.202-0.030 0.162 0.061 0.182 0.777 0.182 0.454 0 0.818 0.030 0.818 0.071 0 0.050-0.050 0.252-0.111 0.464l-0.101 0.384-1.171-0.020c-1.12-0.010-1.181 0-1.262 0.202l-0.071 0.212h2.715c2.655 0 2.726 0 2.726-0.202 0-0.192-0.071-0.202-1.11-0.202-0.606 0-1.11-0.030-1.11-0.081 0-0.040 0.050-0.242 0.111-0.454l0.101-0.373h0.888c0.808 0 0.898-0.020 0.949-0.202 0.050-0.192 0-0.202-0.848-0.202h-0.898l0.061-0.283c0.040-0.151 0.091-0.303 0.131-0.343 0.030-0.040 0.515-0.091 1.070-0.101 0.868-0.030 1.009-0.050 1.040-0.212 0.030-0.151-0.071-0.172-0.989-0.172h-1.030l0.061-0.242c0.030-0.131 0.091-0.313 0.121-0.404 0.050-0.131-0.010-0.162-0.303-0.162-0.212 0-0.384 0.050-0.404 0.121z"></path>
            <path d="M52.23 24.934l-0.202 0.808h1.292c0.797 0 1.292-0.040 1.292-0.101s-0.050-0.101-0.111-0.101c-0.050 0-0.081-0.040-0.040-0.091 0.030-0.061-0.030-0.141-0.121-0.202-0.161-0.091-0.141-0.101 0.101-0.111 0.151 0 0.273-0.050 0.273-0.101 0-0.061-0.131-0.101-0.303-0.101-0.161 0-0.303-0.050-0.303-0.111s0.121-0.091 0.273-0.071c0.141 0.020 0.283-0.020 0.303-0.091 0.030-0.081-0.131-0.131-0.495-0.162l-0.535-0.030 0.636-0.020c0.485-0.020 0.626-0.050 0.626-0.172 0-0.131-0.202-0.151-1.242-0.151h-1.232l-0.212 0.808zM53.098 24.631c-0.172 0.141-0.202 0.202-0.101 0.212 0.101 0 0.111 0.020 0.030 0.061-0.212 0.081-0.151 0.232 0.101 0.242 0.202 0.010 0.192 0.020-0.061 0.111-0.151 0.050-0.252 0.141-0.212 0.192 0.030 0.050 0 0.091-0.050 0.091-0.141 0-0.141-0.252 0-0.737 0.081-0.283 0.151-0.373 0.323-0.373 0.222 0 0.222 0.010-0.030 0.202zM53.603 24.833c0 0.050-0.071 0.101-0.161 0.101-0.081 0-0.121-0.050-0.091-0.101 0.030-0.061 0.101-0.101 0.161-0.101 0.050 0 0.091 0.040 0.091 0.101zM53.966 25.388c0.182 0.131 0.161 0.141-0.262 0.141s-0.444-0.010-0.262-0.141c0.111-0.081 0.232-0.151 0.262-0.151s0.151 0.071 0.262 0.151z"></path>
            <path d="M55.208 24.419c-0.384 0.384-0.444 0.646-0.161 0.767 0.293 0.131 0.252 0.293-0.081 0.333-0.212 0.030-0.252 0.071-0.192 0.242 0.061 0.192 0.030 0.202-1.464 0.162-1.393-0.030-1.524-0.020-1.524 0.141s0.121 0.182 0.939 0.202c0.898 0.020 0.898 0.020 0.202 0.050l-0.727 0.040-0.111 0.424c-0.061 0.232-0.151 0.555-0.202 0.717-0.061 0.162-0.101 0.313-0.101 0.323 0 0.091 0.596 0.030 0.656-0.061 0.040-0.061 0.707-0.101 1.676-0.101 0.999 0 1.605 0.040 1.605 0.101 0 0.050 0.131 0.101 0.283 0.101 0.273 0 0.303-0.040 0.495-0.757l0.202-0.747-0.767-0.040c-0.686-0.030-0.656-0.030 0.273-0.050 1.020-0.020 1.040-0.030 1.020-0.252-0.020-0.121 0-0.283 0.040-0.353 0.061-0.091-0.010-0.121-0.273-0.121-0.464 0-0.525-0.121-0.151-0.293 0.172-0.071 0.283-0.182 0.262-0.252-0.020-0.061 0.091-0.162 0.252-0.232 0.151-0.071 0.283-0.172 0.283-0.232 0-0.151-0.333-0.262-0.384-0.121-0.020 0.071-0.131 0.121-0.242 0.121-0.151 0-0.192-0.050-0.151-0.202 0.050-0.192 0-0.202-0.666-0.192-0.636 0.010-0.757 0.050-0.989 0.283zM56.358 24.631c0.050 0.182 0 0.202-0.454 0.202h-0.505l0.232-0.202c0.313-0.262 0.656-0.262 0.727 0zM56.328 25.176c0 0.091-0.394 0.131-0.515 0.050-0.101-0.061-0.040-0.091 0.192-0.091 0.172 0 0.323 0.020 0.323 0.040zM56.681 25.852c0.121 0.050-0.192 0.081-0.797 0.081-1.060 0.010-1.161-0.030-0.505-0.182 0.394-0.091 0.929-0.050 1.302 0.101zM54.541 26.317c-0.071 0.020-0.192 0.020-0.252 0-0.071-0.030-0.020-0.050 0.121-0.050s0.192 0.020 0.131 0.050zM53.249 26.65c-0.030 0.050-0.151 0.101-0.273 0.101-0.172 0-0.182 0.020-0.081 0.151 0.101 0.121 0.101 0.151-0.040 0.151-0.161 0-0.222-0.303-0.091-0.434 0.101-0.111 0.555-0.081 0.485 0.030zM54.541 26.751c0.040 0.172 0.131 0.202 0.545 0.202 0.575 0 0.878-0.141 0.636-0.303-0.131-0.081-0.121-0.101 0.030-0.101 0.131 0 0.182 0.061 0.151 0.222-0.030 0.222-0.071 0.232-1.292 0.262l-1.262 0.020 0.404-0.252c0.495-0.303 0.717-0.313 0.787-0.050zM55.42 26.65c0 0.050-0.071 0.101-0.151 0.101s-0.151-0.050-0.151-0.101c0-0.061 0.071-0.101 0.151-0.101s0.151 0.040 0.151 0.101zM55.046 27.326c-0.464 0.020-1.211 0.020-1.666 0-0.464-0.010-0.091-0.030 0.828-0.030s1.292 0.020 0.838 0.030z"></path>
            <path d="M32.596 25.963l-0.444 1.746h5.209l0.091-0.353c0.050-0.192 0.242-0.979 0.434-1.746l0.353-1.383h-5.199l-0.444 1.736zM36.472 24.732c0.040 0.151 0 0.202-0.151 0.202-0.141 0-0.182-0.050-0.141-0.151 0.040-0.111-0.020-0.151-0.242-0.151-0.202 0-0.303 0.050-0.303 0.151 0 0.121-0.172 0.151-0.949 0.151-0.747 0-0.959 0.030-1.009 0.151-0.040 0.131 0.091 0.151 0.898 0.151h0.959v0.596c0 0.384-0.050 0.636-0.141 0.707-0.091 0.081-0.151 0.081-0.182 0.020-0.020-0.071-0.373-0.091-1.009-0.040-0.888 0.050-0.989 0.081-0.989 0.252 0 0.182 0.050 0.192 0.656 0.131 0.565-0.061 0.697-0.050 0.868 0.111 0.182 0.172 0.212 0.172 0.555 0.010 0.323-0.162 0.373-0.162 0.575-0.020 0.303 0.212 0.575 0.192 0.848-0.071 0.232-0.212 0.293-0.151 0.172 0.162-0.050 0.141-0.333 0.162-2.029 0.162-1.817 0-1.958-0.010-1.908-0.182 0.030-0.091 0.172-0.646 0.313-1.232s0.283-1.12 0.303-1.191c0.030-0.091 0.414-0.121 1.454-0.121 1.312 0 1.403 0.010 1.454 0.202zM37.451 24.601c0 0.040-0.101 0.515-0.222 1.060-0.202 0.898-0.232 0.969-0.414 0.878-0.131-0.071-0.232-0.071-0.323 0.010-0.081 0.071-0.192 0.091-0.252 0.050s0.061-0.252 0.313-0.535c0.394-0.454 0.404-0.474 0.192-0.565-0.182-0.081-0.262-0.050-0.464 0.202l-0.242 0.293 0.020-0.353c0.030-0.353 0.030-0.353 0.555-0.384 0.333-0.020 0.535-0.081 0.575-0.172 0.030-0.081 0-0.151-0.071-0.151s-0.131-0.091-0.141-0.202c-0.010-0.151 0.040-0.202 0.232-0.202 0.131 0 0.242 0.030 0.242 0.071z"></path>
            <path d="M33.777 25.519c-0.020 0.040-0.071 0.242-0.111 0.454l-0.071 0.373h0.757c0.737 0 0.757-0.010 0.818-0.283 0.040-0.151 0.091-0.353 0.121-0.454 0.050-0.151-0.030-0.172-0.707-0.172-0.414 0-0.777 0.030-0.808 0.081zM34.726 25.893c0 0.091-0.091 0.151-0.252 0.151s-0.252-0.061-0.252-0.151c0-0.091 0.091-0.151 0.252-0.151s0.252 0.061 0.252 0.151z"></path>
            <path d="M42.842 25.035l-0.202 0.808h0.555c0.485 0.010 0.535 0.020 0.363 0.121-0.111 0.071-0.535 0.222-0.929 0.333-0.697 0.202-0.727 0.222-0.596 0.404 0.141 0.192 0.151 0.192 0.828-0.020 0.373-0.131 0.707-0.212 0.727-0.192 0.020 0.030-0.040 0.162-0.131 0.293-0.161 0.252-0.808 0.575-1.151 0.575-0.252 0-0.323 0.101-0.212 0.313 0.101 0.172 0.131 0.172 0.636 0.020 0.888-0.262 1.333-0.616 1.524-1.221 0.061-0.172 0.030-0.222-0.111-0.222-0.131 0-0.111-0.050 0.121-0.202 0.384-0.252 0.878-0.262 1.1-0.010 0.101 0.101 0.131 0.212 0.081 0.222-0.050 0.020-0.192 0.373-0.303 0.777l-0.192 0.737 0.353-0.030c0.353-0.030 0.363-0.040 0.495-0.656l0.141-0.616 0.596 0.212 0.606 0.222 0.212-0.222 0.212-0.212-0.535-0.162c-0.303-0.091-0.656-0.232-0.797-0.313-0.242-0.141-0.232-0.141 0.323-0.151 0.626 0 0.575 0.050 0.787-0.808 0.061-0.252 0.131-0.535 0.161-0.636 0.050-0.162-0.101-0.172-2.201-0.172h-2.251l-0.212 0.808zM44.82 24.681c0 0.121-0.131 0.151-0.606 0.151s-0.606-0.030-0.606-0.151c0-0.121 0.131-0.151 0.606-0.151s0.606 0.030 0.606 0.151zM46.738 24.681c0 0.121-0.141 0.151-0.656 0.151-0.606 0-0.757-0.061-0.586-0.232 0.030-0.040 0.333-0.071 0.656-0.071 0.454 0 0.586 0.030 0.586 0.151zM44.659 25.388c-0.050 0.111-0.222 0.151-0.656 0.151-0.464 0-0.596-0.030-0.596-0.151s0.141-0.151 0.656-0.151c0.535 0 0.636 0.030 0.596 0.151zM46.617 25.358c-0.030 0.081-0.283 0.141-0.666 0.162-0.515 0.020-0.626 0-0.626-0.131 0-0.121 0.131-0.151 0.666-0.151 0.485 0 0.656 0.030 0.626 0.121z"></path>
            <path d="M22.895 27.144l-0.464 0.384 0.232 0.131c0.222 0.121 0.283 0.101 0.707-0.242 0.434-0.353 0.565-0.565 0.363-0.565-0.050 0-0.151-0.020-0.232-0.040-0.071-0.030-0.343 0.121-0.606 0.333z"></path>
            <path d="M25.701 26.832c-0.273 0.030-0.283 0.050-0.222 0.454 0.081 0.505 0.081 0.495 0.404 0.414 0.202-0.050 0.262-0.121 0.252-0.333-0.010-0.434-0.111-0.565-0.434-0.535z"></path>
            <path d="M26.862 26.842c-0.111 0.071-0.101 0.141 0.081 0.394 0.111 0.172 0.212 0.353 0.212 0.424s0.081 0.091 0.232 0.040c0.474-0.141 0.485-0.182 0.222-0.575-0.252-0.373-0.474-0.454-0.747-0.283z"></path>
            <path d="M24.227 26.993c0 0.071-0.030 0.283-0.061 0.454-0.061 0.293-0.050 0.313 0.242 0.313 0.323 0 0.424-0.141 0.424-0.616 0-0.262-0.040-0.293-0.303-0.293-0.192 0-0.303 0.050-0.303 0.141z"></path>
        </symbol>
        <symbol width="82px" height="32px" id="icon-image6" viewBox="0 0 96 32" fill="white">
            <path d="M9.227-0.053c7.538 0 15.076 0 22.613 0 0 7.573 0 15.147 0 22.72-3.093 0-6.187 0-9.28 0-1.351 0-2.702 0-4.053 0-3.093 0-6.187 0-9.28 0 0-3.093 0-6.187 0-9.28 1.351 0 2.702 0 4.053 0 0 1.742 0 3.484 0 5.227 1.742 0 3.484 0 5.227 0 1.351 0 2.702 0 4.053 0 1.742 0 3.484 0 5.227 0 0-4.836 0-9.671 0-14.507-4.836 0-9.671 0-14.507 0 0 1.707 0 3.413 0 5.12-1.351 0.142-2.702 0.142-4.053 0 0-3.093 0-6.187 0-9.28zM13.28 13.387c1.742 0 3.484 0 5.227 0 0 1.742 0 3.484 0 5.227 0-1.742 0-3.484 0-5.227-1.742 0-3.484 0-5.227 0z"></path>
            <path d="M-0.053 9.227c3.093 0 6.187 0 9.28 0 1.351 0.142 2.702 0.142 4.053 0 3.093 0 6.187 0 9.28 0 0 3.129 0 6.258 0 9.387-1.351 0-2.702 0-4.053 0 0-1.742 0-3.484 0-5.227-1.742 0-3.484 0-5.227 0-1.351 0-2.702 0-4.053 0-1.742 0-3.484 0-5.227 0 0 4.836 0 9.671 0 14.507 4.836 0 9.671 0 14.507 0 0-1.671 0-3.342 0-5.013 1.351 0 2.702 0 4.053 0 0 3.022 0 6.044 0 9.067-7.538 0-15.076 0-22.613 0 0-7.573 0-15.147 0-22.72zM13.28 13.387c1.742 0 3.484 0 5.227 0 0 1.742 0 3.484 0 5.227 0-1.742 0-3.484 0-5.227-1.742 0-3.484 0-5.227 0z"></path>
            <path d="M73.333 11.147c-2.478 0.595-3.794 2.178-3.947 4.747 0.322 3.007 1.993 4.554 5.013 4.64 1.959 0.026 3.435-0.792 4.427-2.453 0.724-1.729 0.617-3.4-0.32-5.013-1.365-1.575-3.089-2.215-5.173-1.92zM73.76 13.493c1.758-0.17 2.789 0.612 3.093 2.347-0.505 2.155-1.785 2.812-3.84 1.973-1.422-1.316-1.422-2.631 0-3.947 0.259-0.129 0.508-0.254 0.747-0.373z"></path>
            <path d="M36.533 11.467c0 2.987 0 5.973 0 8.96 0.818 0 1.636 0 2.453 0-0.018-1.067 0-2.134 0.053-3.2 0.658 1.031 1.316 2.062 1.973 3.093 0.996 0.142 1.991 0.142 2.987 0-0.868-1.206-1.757-2.397-2.667-3.573 0.261-0.077 0.51-0.184 0.747-0.32 0.95-0.75 1.287-1.728 1.013-2.933-0.177-0.906-0.692-1.528-1.547-1.867-1.665-0.153-3.336-0.207-5.013-0.16zM38.987 13.28c0.604-0.065 1.12 0.112 1.547 0.533 0.261 0.515 0.172 0.959-0.267 1.333-0.41 0.164-0.837 0.253-1.28 0.267 0-0.711 0-1.422 0-2.133z"></path>
            <path d="M49.653 11.467c-1.070 2.959-2.173 5.91-3.307 8.853 0.851 0.124 1.704 0.142 2.56 0.053 0.188-0.474 0.366-0.954 0.533-1.44 1.067-0.142 2.133-0.142 3.2 0 0.199 0.454 0.377 0.916 0.533 1.387 0.85 0.106 1.704 0.142 2.56 0.107-1.102-2.987-2.204-5.973-3.307-8.96-0.924 0-1.849 0-2.773 0zM50.933 14.453c0.133 0.008 0.222 0.079 0.267 0.213 0.235 0.759 0.502 1.505 0.8 2.24-0.637 0.124-1.277 0.142-1.92 0.053 0.359-0.81 0.643-1.645 0.853-2.507z"></path>
            <path d="M59.040 11.467c2.454-0.036 4.908 0 7.36 0.107-1.311 2.249-2.662 4.471-4.053 6.667 1.208 0.053 2.417 0.071 3.627 0.053 0 0.711 0 1.422 0 2.133-2.561 0.036-5.121 0-7.68-0.107 1.351-2.24 2.702-4.48 4.053-6.72-1.1-0.107-2.202-0.142-3.307-0.107 0-0.676 0-1.351 0-2.027z"></path>
            <path d="M84.107 11.467c0.845-0.034 1.68 0.002 2.507 0.107 0.499 1.444 1.050 2.866 1.653 4.267 0.58-1.409 1.131-2.832 1.653-4.267 0.791-0.122 1.591-0.14 2.4-0.053 0.572 2.954 1.070 5.922 1.493 8.907-0.782 0-1.564 0-2.347 0-0.203-1.619-0.47-3.219-0.8-4.8-0.64 1.564-1.28 3.129-1.92 4.693-0.356 0.142-0.711 0.142-1.067 0-0.612-1.57-1.234-3.134-1.867-4.693-0.299 1.592-0.548 3.192-0.747 4.8-0.821 0.035-1.639-0-2.453-0.107 0.555-2.941 1.053-5.892 1.493-8.853z"></path>
            <path d="M18.507 22.667c1.351 0 2.702 0 4.053 0 0 0.071 0 0.142 0 0.213-1.351 0-2.702 0-4.053 0 0-0.071 0-0.142 0-0.213z"></path>
        </symbol>
        <symbol width="90px" height="32px" id="icon-image7" viewBox="0 0 32 32" fill="white">
            <path d="M33.085 18.454c0 0.55-0.167 0.957-0.461 1.198-0.373 0.299-0.815 0.417-1.271 0.417-0.55 0-1.104-0.191-1.561-0.506l0.496-0.933c0.373 0.324 0.697 0.461 1.021 0.461 0.329 0 0.569-0.172 0.569-0.447 0-0.329-0.447-0.432-0.702-0.506-0.589-0.186-1.207-0.294-1.207-1.256 0-0.908 0.643-1.492 1.531-1.492 0.442 0 0.982 0.137 1.399 0.363l-0.461 0.898c-0.221-0.182-0.491-0.294-0.771-0.294-0.26 0-0.496 0.152-0.496 0.373 0 0.201 0.177 0.329 0.609 0.452 0.226 0.064 0.432 0.123 0.609 0.211 0.432 0.206 0.697 0.515 0.697 1.060v0zM12.844 21.099h1.232v4.726h-1.232v-1.939h-1.777v1.939h-1.232v-4.726h1.232v1.826h1.777v-1.826zM12.402 10.793h0.015l0.55 1.644h-1.124c0 0 0.559-1.644 0.559-1.644zM11.475 13.463h1.855l0.339 0.898h1.438l-1.953-5.168h-1.472l-1.993 5.168h1.428c0 0 0.358-0.898 0.358-0.898zM11.548 18.292l0.481-1.413h0.010l0.471 1.413c0 0-0.962 0-0.962 0zM11.406 15.504l-1.713 4.447h1.227l0.309-0.771h1.595l0.29 0.771h1.237l-1.679-4.447h-1.266zM17.477 21.099h1.232v2.714c0 0.545-0.049 0.908-0.206 1.222-0.275 0.55-0.923 0.918-1.86 0.918-0.496 0-1.139-0.108-1.571-0.525-0.378-0.368-0.496-0.815-0.496-1.61v-2.714h1.227v2.532c0 0.609 0.069 1.242 0.834 1.242 0.756 0 0.834-0.613 0.834-1.237v-2.542h0.005zM15.117 13.134c-0.221-0.383-0.339-0.834-0.339-1.35 0-1.61 1.335-2.729 2.734-2.729 0.432 0 0.825 0.098 1.232 0.26v1.61c-0.27-0.363-0.717-0.569-1.183-0.569-0.795 0-1.379 0.604-1.379 1.433 0 0.844 0.589 1.404 1.404 1.404 0.432 0 0.864-0.196 1.163-0.55v1.61c-0.692 0.211-0.874 0.241-1.188 0.241-0.986 0.005-1.963-0.535-2.444-1.36v0zM28.329 15.504h1.158v4.447h-1.158l-2.12-2.724h-0.010v2.724h-1.158v-4.447h1.158l2.12 2.719h0.010c0 0 0-2.719 0-2.719zM26.871 23.185h2.444c-0.005 0.584-0.074 1.021-0.186 1.315-0.353 0.908-1.124 1.477-2.253 1.477-1.477 0-2.528-0.991-2.528-2.493 0-1.556 1.055-2.547 2.572-2.547 0.977 0 1.728 0.437 2.135 1.325l-1.168 0.491c-0.182-0.476-0.555-0.751-1.026-0.751-0.869 0-1.232 0.854-1.232 1.492 0 0.628 0.363 1.477 1.252 1.477 0.579 0 0.942-0.314 0.991-0.82h-1.006c0.005 0 0.005-0.967 0.005-0.967zM22.709 21.099h1.232v4.726h-1.232l-2.258-2.896h-0.015v2.896h-1.232v-4.726h1.232l2.258 2.891h0.015v-2.891zM29.723 21.099h2.694v1.041h-1.463v0.79h1.389v1.041h-1.389v0.815h1.463v1.041h-2.694v-4.726zM23.21 14.361h1.345v-5.168h-1.345c0 0 0 5.168 0 5.168zM27.828 10.326c0.79 0 1.472 0.638 1.472 1.364 0 0.864-0.638 1.541-1.463 1.541-0.81 0-1.463-0.658-1.463-1.541-0.005-0.741 0.697-1.364 1.453-1.364zM27.877 14.533c1.458 0 2.822-1.040 2.822-2.852 0-1.585-1.394-2.66-2.866-2.66-0.452 0-1.094 0.098-1.723 0.535-0.275 0.191-1.139 0.829-1.139 2.184 0 1.418 1.031 2.793 2.906 2.793v0zM32.466 14.361h-1.345v-5.168h1.345l2.469 3.161h0.015v-3.161h1.345v5.168h-1.345l-2.469-3.166h-0.015c0 0 0 3.166 0 3.166zM34.209 19.951v-3.465h-0.957v-0.977h3.072v0.977h-0.957v3.465c0 0-1.158 0-1.158 0zM23.445 19.951h1.158v-4.447h-1.158v4.447zM16.501 17.468h2.297c-0.005 0.55-0.069 0.962-0.177 1.237-0.329 0.854-1.060 1.389-2.115 1.389-1.389 0-2.375-0.933-2.375-2.346 0-1.463 0.991-2.395 2.42-2.395 0.918 0 1.625 0.412 2.007 1.247l-1.099 0.461c-0.172-0.447-0.52-0.707-0.962-0.707-0.815 0-1.158 0.8-1.158 1.404 0 0.589 0.344 1.389 1.178 1.389 0.545 0 0.888-0.294 0.933-0.771h-0.947c0 0 0-0.908 0-0.908zM20.324 10.331h-1.114v-1.139h3.573v1.139h-1.114v4.029h-1.345v-4.029zM34.223 23.215h-0.108v-1.178h0.108c0.609 0 0.869 0.186 0.869 0.589s-0.265 0.594-0.869 0.589v0zM35.337 23.887c0.643-0.113 1.036-0.653 1.036-1.335 0-0.977-0.677-1.453-1.629-1.453h-1.86v4.726h1.232v-1.816h0.015l1.163 1.816h1.531c0 0-1.487-1.939-1.487-1.939zM20.432 18.292l0.481-1.413h0.010l0.471 1.413h-0.962zM20.29 15.504l-1.713 4.447h1.227l0.309-0.771h1.595l0.29 0.771h1.237l-1.679-4.447h-1.266z"></path>
            <path d="M1.566 25.826v0c-1.615 0-3.004-1.31-2.92-2.994 0.108-2.233 2.091-2.557 2.773-3.553 0.054-0.083 0.162-0.108 0.24-0.054 0.025 0.015 0.039 0.034 0.054 0.054v0c0.682 1.001 2.665 1.32 2.773 3.553 0.083 1.679-1.306 2.994-2.92 2.994zM1.566 17.291c-3.023 0-5.472 2.444-5.472 5.458s2.449 5.458 5.472 5.458c3.018 0 5.472-2.444 5.472-5.458s-2.449-5.458-5.472-5.458z"></path>
            <path d="M7.858 7.647l-0.005-0.079-0.079 0.010c-1.364 0.152-2.636 0.717-3.691 1.629 0.005-0.108 0.010-0.216 0.010-0.319 0-2.052-0.903-3.941-2.479-5.183l-0.049-0.039-0.049 0.039c-1.575 1.247-2.479 3.131-2.479 5.183 0 0.103 0.005 0.211 0.010 0.319-1.055-0.913-2.326-1.477-3.691-1.629l-0.079-0.010-0.005 0.079c0 0.069-0.005 0.137-0.005 0.211 0 2.209 1.124 4.162 2.871 5.409 0.407 0.29 0.844 0.594 1.276 0.874 0.829 0.535 1.61 1.040 1.929 1.6 0.064 0.123 0.211 0.172 0.334 0.108 0.049-0.025 0.083-0.064 0.108-0.108 0.314-0.559 1.099-1.065 1.929-1.6 0.432-0.28 0.859-0.574 1.276-0.874 1.747-1.247 2.871-3.205 2.871-5.409 0-0.069 0-0.142-0.005-0.211z"></path>
        </symbol>
        <symbol width="100px" height="32px" id="icon-image8" viewBox="0 0 79 32" fill="white">
            <path d="M23.331 0.397c-0.052 0-0.091-0.038-0.091-0.084s0.040-0.084 0.091-0.084h55.382v31.246c-12.706-16.675-32.564-28.287-55.382-31.077z"></path>
            <path d="M69.943 18.743c0.454-5.925 0.491-9.043 1.519-9.884 0.781-0.64 2.493-0.965 5.853-1.184-3.677-0.239-4.889-0.429-5.928-1.27-1.004-0.812-1.199-1.926-1.443-5.126-0.241 3.139-0.368 4.155-1.375 5.074-1.072 0.978-2.124 1.070-5.996 1.322 3.552 0.232 4.897 0.438 5.853 1.221 1.116 0.913 1.061 3.866 1.519 9.847z"></path>
            <path d="M15.125 18.494v5.26h1.289v-4.28c0.433-0.421 0.743-0.28 1.599 0.516l0.521-1.314c-0.26-0.127-0.595-0.266-1.078-0.266-0.485 0-0.844 0.266-1.018 0.503l-0.062 0.085-0.012-0.014 0.012-0.489h-1.252zM20.344 15.71h-1.289v8.044h1.289v-8.044zM9.063 21.125c0 1.469 0.966 2.685 2.529 2.685 1.561 0 2.529-1.216 2.529-2.685s-0.968-2.687-2.529-2.687c-1.563 0-2.529 1.218-2.529 2.687zM36.062 18.494h-1.289v5.26h1.289v-5.26zM41.591 18.494v2.953c0 1.51 0.571 2.476 3.273 2.476 3.161 0 4.277-1.372 4.277-2.883 0-1.482-1.054-2.644-2.505-2.644-1.587 0-2.491 1.191-2.491 2.394 0 0.867 0.471 1.748 1.487 2.223l0.309-0.406c-0.409-0.532-0.569-1.147-0.569-1.721 0-1.050 0.569-1.944 1.238-1.944 0.844 0 1.227 1.063 1.227 2.167 0 1.106-0.346 2.351-2.641 2.351-1.821 0-2.318-0.419-2.318-1.665v-3.302h-1.289zM42.261 16.115c-0.385 0-0.682 0.336-0.682 0.77 0 0.433 0.297 0.768 0.682 0.768 0.383 0 0.681-0.336 0.681-0.768 0-0.434-0.297-0.77-0.681-0.77zM35.579 16.115c-0.385 0-0.682 0.336-0.682 0.77 0 0.433 0.297 0.768 0.682 0.768s0.682-0.336 0.682-0.768c0-0.434-0.297-0.77-0.682-0.77zM37.104 19.935c-0.124 2 2.479 1.525 2.405 2.742-0.038 0.489-0.409 0.658-0.806 0.644-0.645-0.055-1.042-0.476-1.389-0.937l-0.383 0.964c0.521 0.336 1.090 0.504 1.587 0.545 1.116 0.085 2.058-0.462 2.12-1.678 0.112-1.888-2.579-1.651-2.529-2.615 0.024-0.421 0.445-0.63 0.88-0.602 0.445 0.042 0.793 0.322 1.178 0.712l0.347-0.867c-0.483-0.237-0.942-0.349-1.351-0.392-1.203-0.084-2.008 0.631-2.058 1.484zM23.677 23.866c0.608 0 1.104-0.239 1.551-0.63l0.024 0.015v0.503h1.191v-8.044h-1.289v3.203c-0.361-0.307-0.906-0.503-1.463-0.503-0.707 0-2.393 0.489-2.393 2.798 0 1.721 1.339 2.658 2.379 2.658zM31.252 23.754h0.547l2.727-7.064h-0.707l-1.896 4.967-1.872-4.967h-1.563l2.764 7.064zM54.918 23.754v-2.895c0-1.959-1.327-2.449-2.108-2.449-0.559 0-1.030 0.237-1.501 0.602l-0.024-0.014v-0.504h-1.19v5.26h1.289v-4.239c0.383-0.376 0.756-0.532 1.078-0.532 0.682 0 1.153 0.743 1.153 1.554v3.217h1.301zM5.704 17.361h-0.732l-1.463 4.266-1.561-4.911h-1.501l2.319 7.023h0.707l1.499-4.336 1.487 4.336h0.708l2.317-7.008h-0.707l-1.625 4.895-1.449-4.266zM12.757 21.125c0 1.217-0.359 2.183-1.166 2.183s-1.166-0.966-1.166-2.183c0-1.218 0.359-2.183 1.166-2.183s1.166 0.964 1.166 2.183zM25.154 19.544v3.176c-0.335 0.322-0.645 0.559-1.116 0.559-0.571 0-1.315-0.545-1.315-2.126 0-1.707 1.178-2.938 2.431-1.609z"></path>
        </symbol>
        <symbol width="125px" height="32px" id="icon-image9" viewBox="0 0 206 32" fill="white">
            <path d="M46.916 6.608c-0.667 0.367-1.324 0.483-1.942 0.483-2.019 0-3.159-1.342-3.159-3.207s1.314-3.313 3.303-3.313c0.686 0 1.265 0.145 1.633 0.319v0.947c-0.473-0.251-0.986-0.405-1.613-0.405-1.43 0-2.241 1.101-2.241 2.425 0 1.4 0.841 2.376 2.193 2.376 0.618 0 1.101-0.174 1.545-0.425l0.28 0.802 0.001-0.001z"></path>
            <path d="M48.472 0.628h1.015v2.687h3.188v-2.687h1.015v6.366h-1.015v-2.82h-3.188v2.82h-1.015v-6.366z"></path>
            <path d="M57.458 0.6h0.782l2.521 6.395h-1.091l-0.628-1.633h-2.357l-0.608 1.633h-1.062l2.444-6.395h-0.001zM58.733 4.531l-0.522-1.449c-0.174-0.522-0.27-0.812-0.338-1.025h-0.019c-0.058 0.223-0.155 0.512-0.348 1.024l-0.522 1.449h1.75z"></path>
            <path d="M62.086 0.628h1.594c0.618 0 1.052 0.107 1.381 0.291 0.628 0.319 0.88 0.878 0.88 1.497 0 0.86-0.493 1.42-1.256 1.662v0.019c0.193 0.107 0.444 0.454 0.782 1.024l1.091 1.874h-1.169l-0.976-1.691c-0.309-0.55-0.541-0.821-0.715-0.859h-0.599v2.55h-1.015v-6.366l0.001-0.001zM63.641 3.603c0.319 0 0.551-0.057 0.763-0.174 0.29-0.174 0.483-0.483 0.483-0.909 0-0.358-0.135-0.667-0.415-0.841-0.174-0.135-0.425-0.221-0.821-0.221h-0.551v2.144h0.541v0.001z"></path>
            <path d="M68.048 0.628h1.015v6.366h-1.015v-6.366z"></path>
            <path d="M72.28 1.488h-1.845v-0.86h4.879l-0.29 0.86h-1.729v5.507h-1.015v-5.507h-0.001z"></path>
            <path d="M78 4.464l-2.145-3.835h1.111l1.555 2.918h0.019l1.517-2.918h1.101l-2.135 3.855v2.511h-1.025v-2.531h0.001z"></path>
            <path d="M85.024 0.628h3.391l-0.29 0.86h-2.087v1.836h2.048v0.859h-2.048v2.812h-1.015v-6.367z"></path>
            <path d="M89.691 3.835c0-1.932 1.324-3.264 3.178-3.264s3.168 1.353 3.168 3.264c0 1.911-1.353 3.256-3.168 3.256s-3.178-1.295-3.178-3.256zM94.966 3.835c0-1.439-0.792-2.405-2.096-2.405s-2.096 0.917-2.096 2.405c0 1.488 0.841 2.396 2.096 2.396s2.096-0.908 2.096-2.396z"></path>
            <path d="M97.933 5.816c-0.145-0.319-0.213-0.715-0.213-1.16v-4.029h1.015v3.952c0 0.329 0.049 0.628 0.155 0.86 0.223 0.512 0.686 0.792 1.381 0.792s1.15-0.28 1.371-0.792c0.116-0.232 0.164-0.532 0.164-0.88v-3.932h1.015v4.029c0 0.454-0.078 0.851-0.223 1.179-0.367 0.831-1.179 1.256-2.328 1.256s-1.981-0.425-2.337-1.275z"></path>
            <path d="M109.42 6.995l-2.859-3.768c-0.319-0.405-0.561-0.753-0.782-1.054h-0.019c0.019 0.28 0.029 0.608 0.029 1.025v3.796h-1.015v-6.366h0.995l2.753 3.623c0.329 0.425 0.579 0.773 0.782 1.082h0.019c-0.010-0.338-0.019-0.696-0.019-1.091v-3.614h1.014v6.366h-0.898v0.001z"></path>
            <path d="M112.33 0.628h1.826c2.261 0 3.448 1.285 3.448 3.14s-1.285 3.227-3.526 3.227h-1.748v-6.367zM114.088 6.135c1.787 0 2.435-1.082 2.435-2.357 0-1.372-0.802-2.29-2.454-2.29h-0.724v4.647h0.743z"></path>
            <path d="M121.083 0.6h0.782l2.521 6.395h-1.091l-0.628-1.633h-2.357l-0.608 1.633h-1.062l2.444-6.395h-0.001zM122.358 4.531l-0.522-1.449c-0.174-0.522-0.27-0.812-0.338-1.025h-0.019c-0.057 0.223-0.155 0.512-0.348 1.024l-0.521 1.449h1.748z"></path>
            <path d="M126.92 1.488h-1.846v-0.86h4.878l-0.29 0.86h-1.729v5.507h-1.014v-5.507z"></path>
            <path d="M131.19 0.628h1.014v6.366h-1.014v-6.366z"></path>
            <path d="M133.925 3.835c0-1.932 1.324-3.264 3.178-3.264s3.168 1.353 3.168 3.264c0 1.911-1.353 3.256-3.168 3.256s-3.178-1.295-3.178-3.256zM139.2 3.835c0-1.439-0.792-2.405-2.096-2.405s-2.096 0.917-2.096 2.405c0 1.488 0.841 2.396 2.096 2.396s2.096-0.908 2.096-2.396z"></path>
            <path d="M146.649 6.995l-2.859-3.768c-0.319-0.405-0.561-0.753-0.782-1.054h-0.019c0.019 0.28 0.029 0.608 0.029 1.025v3.796h-1.015v-6.366h0.995l2.753 3.623c0.329 0.425 0.579 0.773 0.782 1.082h0.019c-0.010-0.338-0.019-0.696-0.019-1.091v-3.614h1.014v6.366h-0.898v0.001z"></path>
            <path d="M42.217 29.030c0.751 0.507 1.855 0.994 3.181 0.994 1.458 0 2.783-0.574 2.783-2.143 0-3.291-6.361-2.893-6.361-7.268 0-2.099 1.612-3.821 4.417-3.821 1.37 0 2.584 0.354 3.291 0.707v1.79c-0.994-0.53-2.121-0.818-3.224-0.818-1.214 0-2.43 0.509-2.43 1.944 0 3.092 6.383 2.761 6.383 7.31 0 2.474-2.010 3.976-4.837 3.976-1.679 0-3.070-0.509-4.020-1.149l0.818-1.523v-0.001z"></path>
            <path d="M53.809 16.926h7.355l-0.596 1.679h-4.793v4.616h4.749v1.678h-4.749v4.903h5.478v1.679h-7.444v-14.556z"></path>
            <path d="M64.64 16.926h3.291c1.48 0 2.474 0.265 3.224 0.707 1.303 0.729 1.856 1.988 1.856 3.313 0 2.010-1.105 3.269-2.915 3.821v0.045c0.442 0.243 0.994 1.038 1.767 2.341l2.584 4.329h-2.297l-2.385-4.042c-0.685-1.214-1.237-1.877-1.657-1.988h-1.501v6.030h-1.966v-14.556zM67.909 23.839c0.773 0 1.348-0.155 1.877-0.464 0.729-0.398 1.192-1.171 1.192-2.231 0-0.84-0.309-1.546-0.927-2.010-0.442-0.332-1.105-0.596-2.121-0.596h-1.325v5.301h1.303z"></path>
            <path d="M77.366 16.926h1.966v6.272h7.642v-6.272h1.943v14.556h-1.943v-6.604h-7.642v6.604h-1.966v-14.556z"></path>
            <path d="M93.688 16.926h1.966v14.556h-1.966v-14.556z"></path>
            <path d="M119.474 16.926h2.982c1.414 0 2.408 0.221 3.202 0.663 1.37 0.751 2.186 2.121 2.186 3.998 0 1.679-0.729 3.291-2.562 4.108-0.751 0.331-1.701 0.53-3.004 0.53h-0.84v5.256h-1.966v-14.556h0.001zM122.412 24.612c0.883 0 1.525-0.155 1.988-0.397 0.95-0.487 1.392-1.392 1.392-2.628 0-1.149-0.442-2.076-1.303-2.584-0.487-0.287-1.127-0.464-2.054-0.464h-0.994v6.074h0.972l-0.001-0.001z"></path>
            <path d="M131.014 16.926h3.291c1.48 0 2.474 0.265 3.224 0.707 1.303 0.729 1.856 1.988 1.856 3.313 0 2.010-1.104 3.269-2.915 3.821v0.045c0.442 0.243 0.994 1.038 1.767 2.341l2.584 4.329h-2.297l-2.386-4.042c-0.684-1.214-1.236-1.877-1.656-1.988h-1.503v6.030h-1.966v-14.556h0.001zM134.283 23.839c0.774 0 1.347-0.155 1.877-0.464 0.729-0.398 1.192-1.171 1.192-2.231 0-0.84-0.309-1.546-0.928-2.010-0.442-0.332-1.104-0.596-2.121-0.596h-1.325v5.301h1.304z"></path>
            <path d="M146.354 25.672l-4.86-8.747h2.165l3.666 6.913h0.045l3.6-6.913h2.143l-4.815 8.791v5.765h-1.944v-5.809z"></path>
            <path d="M103.634 25.672l-4.86-8.747h2.165l3.666 6.913h0.045l3.6-6.913h2.143l-4.815 8.791v5.765h-1.944v-5.809z"></path>
            <path d="M159.377 18.604h-4.196v-1.679h10.779l-0.596 1.679h-4.020v12.877h-1.966v-12.877z"></path>
            <path d="M168.954 28.698c-0.265-0.707-0.398-1.546-0.398-2.495v-9.276h1.966v9.122c0 0.751 0.089 1.436 0.332 1.988 0.507 1.281 1.612 1.988 3.313 1.988s2.828-0.707 3.335-1.988c0.22-0.552 0.309-1.237 0.309-2.054v-9.056h1.966v9.276c0 0.972-0.133 1.834-0.442 2.541-0.774 1.943-2.562 2.96-5.169 2.96s-4.44-1.038-5.212-3.004l-0.001-0.001z"></path>
            <path d="M184.049 16.926h1.966v12.877h5.323v1.679h-7.289v-14.556z"></path>
            <path d="M198.989 16.881h1.458l5.654 14.6h-2.121l-1.414-3.821h-5.654l-1.392 3.821h-2.076l5.545-14.6zM201.949 26.048l-1.369-3.799c-0.42-1.237-0.641-1.899-0.818-2.43h-0.044c-0.155 0.529-0.398 1.214-0.84 2.452l-1.37 3.777h4.44z"></path>
            <path d="M14.288 0.038v26.907h4.98v-21.929h7.651v9.298h4.979v-14.276h-17.61z"></path>
            <path d="M26.919 26.945v4.979h4.979v-12.631h-4.979v7.652z"></path>
            <path d="M26.919 14.314h-7.651v4.979h12.63v-4.979h-4.979z"></path>
            <path d="M4.991 26.945v-7.652h9.297v-4.979h-14.276v17.61h26.907v-4.979h-21.928z"></path>
        </symbol>
<symbol id="scroll-icon-2" viewBox="0 0 32 32">
<path fill="#4f2ee8"  d="M15.053 17.867c0.124 0.125 0.271 0.224 0.434 0.292s0.337 0.103 0.513 0.103 0.35-0.035 0.513-0.103c0.162-0.068 0.31-0.167 0.434-0.292l6.107-6.12c0.124-0.125 0.271-0.224 0.434-0.292s0.337-0.103 0.513-0.103c0.176 0 0.35 0.035 0.513 0.103s0.31 0.167 0.434 0.292c0.248 0.25 0.388 0.588 0.388 0.94s-0.139 0.69-0.388 0.94l-6.12 6.12c-0.75 0.749-1.767 1.17-2.827 1.17s-2.077-0.421-2.827-1.17l-6.12-6.12c-0.246-0.248-0.385-0.584-0.387-0.933-0.001-0.175 0.033-0.349 0.099-0.512s0.164-0.31 0.288-0.435c0.124-0.125 0.271-0.224 0.434-0.292s0.337-0.103 0.513-0.103c0.176 0 0.35 0.035 0.513 0.103s0.31 0.167 0.434 0.292l6.107 6.12z"></path>
</symbol>
    </defs>
</svg>